<svg width="796" height="766" viewBox="0 0 796 766" fill="none" xmlns="http://www.w3.org/2000/svg">
<path d="M11 43C16.9362 43 27.3221 40.798 34.0745 34C40.9997 27.0279 41 19 41 11" stroke="#D5B678" stroke-width="2"/>
<path d="M787 43C780.872 43 770.119 40.798 763.149 34C756 27.0279 755.5 19 755.5 11" stroke="#D5B678" stroke-width="2"/>
<path d="M11 725.5C16.9362 725.5 27.3221 727.133 34.0745 733.719C40.9997 740.473 41 748.25 41 756" stroke="#D5B678" stroke-width="2"/>
<path d="M787 725.5C781.064 725.5 768.752 726.414 762 733C755.075 739.754 754 748.25 754 756" stroke="#D5B678" stroke-width="2"/>
<path d="M42 12.0003L275.811 12" stroke="#D5B678" stroke-width="2"/>
<path d="M522 13H521V11L522 11V13ZM755 13L522 13V11L755 11V13Z" fill="#D5B678"/>
<path d="M275 11.5C275 21.7223 281.263 32.8674 311.888 49.0252C342.513 65.183 382.656 65.8425 399.21 65.8425" stroke="#D5B678" stroke-width="2"/>
<path d="M522 12.5C522 22.7223 516.497 32.8674 485.872 49.0252C455.248 65.183 415.104 65.8425 398.55 65.8425" stroke="#D5B678" stroke-width="2"/>
<path d="M275 756C275 745.778 279.944 735.896 310.569 719.738C341.194 703.581 381.337 702.921 397.891 702.921" stroke="#D5B678" stroke-width="2"/>
<path d="M522 756C522 745.778 515.178 735.896 484.553 719.738C453.928 703.581 413.785 702.921 397.231 702.921" stroke="#D5B678" stroke-width="2"/>
<path d="M522 12L522 754" stroke="#D5B678" stroke-width="2"/>
<line x1="11" y1="135" x2="276" y2="135" stroke="#D5B678" stroke-width="2"/>
<line x1="11" y1="259" x2="276" y2="259" stroke="#D5B678" stroke-width="2"/>
<line x1="11" y1="382" x2="276" y2="382" stroke="#D5B678" stroke-width="2"/>
<line x1="11" y1="505" x2="276" y2="505" stroke="#D5B678" stroke-width="2"/>
<line x1="11" y1="629" x2="276" y2="629" stroke="#D5B678" stroke-width="2"/>
<line x1="523" y1="135" x2="788" y2="135" stroke="#D5B678" stroke-width="2"/>
<line x1="523" y1="259" x2="788" y2="259" stroke="#D5B678" stroke-width="2"/>
<line x1="523" y1="382" x2="788" y2="382" stroke="#D5B678" stroke-width="2"/>
<line x1="523" y1="505" x2="788" y2="505" stroke="#D5B678" stroke-width="2"/>
<line x1="523" y1="629" x2="788" y2="629" stroke="#D5B678" stroke-width="2"/>
<path d="M275 11L275 756" stroke="#D5B678" stroke-width="2"/>
<path d="M143 12L143 756" stroke="#D5B678" stroke-width="2"/>
<path d="M654 11L654 755" stroke="#D5B678" stroke-width="2"/>
<path d="M41 755H275.5" stroke="#D5B678" stroke-width="2"/>
<line x1="521" y1="755" x2="753" y2="755" stroke="#D5B678" stroke-width="2"/>
<path d="M786.007 43.4289L786.007 726.333" stroke="#D5B678" stroke-width="2"/>
<path d="M11.7528 43.4191L11.7528 726.331" stroke="#D5B678" stroke-width="2"/>
<path d="M337.9 27V19.476H332.5V27H329.716V10.44H332.5V17.184H337.9V10.44H340.684V27H337.9ZM354.211 23.892C354.211 24.388 354.287 24.752 354.439 24.984C354.591 25.208 354.835 25.376 355.171 25.488L354.571 27.312C353.947 27.24 353.411 27.068 352.963 26.796C352.515 26.524 352.175 26.112 351.943 25.56C351.479 26.144 350.891 26.584 350.179 26.88C349.467 27.176 348.707 27.324 347.899 27.324C346.619 27.324 345.603 26.964 344.851 26.244C344.107 25.516 343.735 24.564 343.735 23.388C343.735 22.052 344.255 21.024 345.295 20.304C346.335 19.584 347.823 19.224 349.759 19.224H351.571V18.396C351.571 17.58 351.323 16.992 350.827 16.632C350.339 16.272 349.647 16.092 348.751 16.092C348.335 16.092 347.831 16.148 347.239 16.26C346.647 16.364 346.027 16.528 345.379 16.752L344.719 14.856C345.511 14.56 346.287 14.344 347.047 14.208C347.807 14.064 348.511 13.992 349.159 13.992C350.855 13.992 352.119 14.368 352.951 15.12C353.791 15.872 354.211 16.912 354.211 18.24V23.892ZM348.715 25.344C349.259 25.344 349.791 25.2 350.311 24.912C350.831 24.624 351.251 24.22 351.571 23.7V20.904H350.083C348.819 20.904 347.915 21.116 347.371 21.54C346.827 21.956 346.555 22.532 346.555 23.268C346.555 23.94 346.735 24.456 347.095 24.816C347.463 25.168 348.003 25.344 348.715 25.344ZM368.853 14.328V27H366.165V21.876C365.701 22.284 365.137 22.608 364.473 22.848C363.809 23.088 363.089 23.208 362.313 23.208C361.057 23.208 360.105 22.872 359.457 22.2C358.809 21.52 358.485 20.588 358.485 19.404V14.328H361.173V19.08C361.173 19.824 361.341 20.356 361.677 20.676C362.013 20.996 362.505 21.156 363.153 21.156C363.689 21.156 364.237 21.048 364.797 20.832C365.357 20.608 365.813 20.316 366.165 19.956V14.328H368.853ZM375.54 21.528C375.596 22.392 375.78 23.1 376.092 23.652C376.404 24.196 376.812 24.596 377.316 24.852C377.828 25.108 378.388 25.236 378.996 25.236C379.62 25.236 380.196 25.14 380.724 24.948C381.252 24.756 381.784 24.484 382.32 24.132L383.484 25.74C382.892 26.22 382.2 26.604 381.408 26.892C380.616 27.18 379.768 27.324 378.864 27.324C377.552 27.324 376.44 27.044 375.528 26.484C374.624 25.924 373.936 25.144 373.464 24.144C372.992 23.144 372.756 21.988 372.756 20.676C372.756 19.404 372.988 18.268 373.452 17.268C373.916 16.26 374.58 15.464 375.444 14.88C376.308 14.288 377.34 13.992 378.54 13.992C379.668 13.992 380.636 14.248 381.444 14.76C382.26 15.272 382.888 16 383.328 16.944C383.776 17.88 384 19.008 384 20.328C384 20.544 383.992 20.76 383.976 20.976C383.968 21.184 383.956 21.368 383.94 21.528H375.54ZM378.564 15.984C377.724 15.984 377.028 16.284 376.476 16.884C375.932 17.484 375.616 18.42 375.528 19.692H381.396C381.372 18.5 381.116 17.584 380.628 16.944C380.148 16.304 379.46 15.984 378.564 15.984ZM393.879 13.992C394.999 13.992 395.895 14.268 396.567 14.82C397.239 15.364 397.727 16.136 398.031 17.136C398.335 18.128 398.487 19.296 398.487 20.64C398.487 21.928 398.303 23.076 397.935 24.084C397.567 25.092 397.019 25.884 396.291 26.46C395.571 27.036 394.675 27.324 393.603 27.324C392.275 27.324 391.203 26.856 390.387 25.92V31.872L387.699 32.172V14.328H390.039L390.207 15.96C390.687 15.304 391.243 14.812 391.875 14.484C392.515 14.156 393.183 13.992 393.879 13.992ZM393.135 16.068C392.535 16.068 392.007 16.248 391.551 16.608C391.095 16.968 390.707 17.392 390.387 17.88V23.808C390.691 24.264 391.051 24.616 391.467 24.864C391.891 25.104 392.367 25.224 392.895 25.224C393.799 25.224 394.487 24.86 394.959 24.132C395.431 23.404 395.667 22.244 395.667 20.652C395.667 19.572 395.571 18.696 395.379 18.024C395.195 17.344 394.915 16.848 394.539 16.536C394.171 16.224 393.703 16.068 393.135 16.068ZM413.129 14.328L412.817 16.428H408.497V27H405.809V16.428H401.321V14.328H413.129ZM426.164 23.892C426.164 24.388 426.24 24.752 426.392 24.984C426.544 25.208 426.788 25.376 427.124 25.488L426.524 27.312C425.9 27.24 425.364 27.068 424.916 26.796C424.468 26.524 424.128 26.112 423.896 25.56C423.432 26.144 422.844 26.584 422.132 26.88C421.42 27.176 420.66 27.324 419.852 27.324C418.572 27.324 417.556 26.964 416.804 26.244C416.06 25.516 415.688 24.564 415.688 23.388C415.688 22.052 416.208 21.024 417.248 20.304C418.288 19.584 419.776 19.224 421.712 19.224H423.524V18.396C423.524 17.58 423.276 16.992 422.78 16.632C422.292 16.272 421.6 16.092 420.704 16.092C420.288 16.092 419.784 16.148 419.192 16.26C418.6 16.364 417.98 16.528 417.332 16.752L416.672 14.856C417.464 14.56 418.24 14.344 419 14.208C419.76 14.064 420.464 13.992 421.112 13.992C422.808 13.992 424.072 14.368 424.904 15.12C425.744 15.872 426.164 16.912 426.164 18.24V23.892ZM420.668 25.344C421.212 25.344 421.744 25.2 422.264 24.912C422.784 24.624 423.204 24.22 423.524 23.7V20.904H422.036C420.772 20.904 419.868 21.116 419.324 21.54C418.78 21.956 418.508 22.532 418.508 23.268C418.508 23.94 418.688 24.456 419.048 24.816C419.416 25.168 419.956 25.344 420.668 25.344ZM438.31 27V21.576H433.558V27H430.87V14.328H433.558V19.488H438.31V14.328H440.998V27H438.31ZM455.389 14.328V27H452.785V21.792C452.785 20.872 452.821 20.004 452.893 19.188C452.973 18.364 453.069 17.64 453.181 17.016L448.261 27H445.261V14.328H447.865V19.548C447.865 20.42 447.829 21.28 447.757 22.128C447.685 22.968 447.585 23.684 447.457 24.276L452.341 14.328H455.389ZM466.84 27V16.236H464.692C463.828 16.236 463.184 16.4 462.76 16.728C462.336 17.056 462.124 17.568 462.124 18.264C462.124 19 462.324 19.54 462.724 19.884C463.132 20.228 463.784 20.4 464.68 20.4H467.224V22.272H463.612L461.92 21.84C461.072 21.512 460.424 21.052 459.976 20.46C459.536 19.86 459.316 19.14 459.316 18.3C459.316 17.044 459.78 16.068 460.708 15.372C461.644 14.676 462.988 14.328 464.74 14.328H469.528V27H466.84ZM458.476 27L461.728 21.336L464.188 21.936L461.416 27H458.476Z" fill="#D5B678"/>
<circle cx="11.3066" cy="754.245" r="7.91043" transform="rotate(-37.6469 11.3066 754.245)" fill="#D5B678"/>
<circle cx="784.901" cy="754.905" r="7.91043" transform="rotate(-37.6469 784.901 754.905)" fill="#D5B678"/>
<circle cx="11.3066" cy="11.0948" r="7.91043" transform="rotate(-37.6469 11.3066 11.0948)" fill="#D5B678"/>
<circle cx="784.901" cy="11.755" r="7.91043" transform="rotate(-37.6469 784.901 11.755)" fill="#D5B678"/>
</svg>
