<svg width="408" height="900" viewBox="0 0 408 900" fill="none" xmlns="http://www.w3.org/2000/svg">
<path d="M237 382.776C188.179 379.441 94.5957 432.761 118.977 471.638C137.233 500.748 155.474 490.697 185.098 485.694L173.249 499.512L133.197 520L78.2139 514.282L73 461.394L110.445 400.168L203.821 358L237 382.776Z" fill="#D5B678"/>
<path d="M192.759 628L293 527L170.352 584.986L122 628H192.759Z" fill="#D5B678"/>
<path d="M275 633.312C275 633.312 320.734 613.275 303.76 567L322.62 572.009L337 616.376L311.304 645L275 633.312Z" fill="#D5B678"/>
<path d="M248.6 350.9C287.333 350.9 317.667 357.9 339.6 371.9C361.533 385.9 372.5 404.333 372.5 427.2C372.5 444 366.9 459.867 355.7 474.8C344.5 489.267 330.033 502.8 312.3 515.4C294.567 528 275.2 540.133 254.2 551.8C233.667 563 213.6 573.733 194 584C174.4 594.267 157.367 604.3 142.9 614.1C153.167 614.1 164.133 615.733 175.8 619C187.933 622.267 200.767 625.533 214.3 628.8C228.3 632.067 242.767 633.7 257.7 633.7C276.833 633.7 292.933 630.9 306 625.3C319.067 619.7 325.6 611.3 325.6 600.1C325.6 587.967 318.133 577.7 303.2 569.3L310.2 560.2C324.667 568.133 334.7 577.233 340.3 587.5C346.367 597.3 349.4 608.967 349.4 622.5C349.4 639.3 345.2 655.867 336.8 672.2C328.4 688.533 315.1 702.067 296.9 712.8C279.167 723.067 255.6 728.2 226.2 728.2C210.8 728.2 195.633 726.567 180.7 723.3C165.767 720.033 150.367 716.767 134.5 713.5C119.1 709.767 102.3 707.667 84.1 707.2C65.4333 706.267 50.2667 707.433 38.6 710.7C27.4 713.5 14.5667 717.933 0.0999995 724L3.6 709.3C12 702.3 23.6667 693.2 38.6 682C54 670.8 71.0333 657.967 89.7 643.5C108.367 628.567 127.033 612.7 145.7 595.9C164.833 578.633 182.333 560.667 198.2 542C214.067 523.333 226.9 504.433 236.7 485.3C246.5 465.7 251.4 446.333 251.4 427.2C251.4 408.067 246.5 394.3 236.7 385.9C226.9 377.5 214.067 373.3 198.2 373.3C183.733 373.3 169.267 376.333 154.8 382.4C140.8 388.467 127.967 396.633 116.3 406.9C104.633 416.7 95.3 427.9 88.3 440.5C81.3 453.1 77.8 465.933 77.8 479C77.8 490.2 80.8333 498.6 86.9 504.2C92.9667 509.8 103.233 512.6 117.7 512.6C131.233 512.6 142.667 510.267 152 505.6C161.8 500.467 172.067 493.233 182.8 483.9L191.2 493.7C178.133 505.833 164.833 514.467 151.3 519.6C137.767 524.733 125.167 527.3 113.5 527.3C106.033 527.3 98.1 526.133 89.7 523.8C81.7667 521 75 516.333 69.4 509.8C63.8 502.8 61 492.767 61 479.7C61 464.3 65.4333 449.133 74.3 434.2C83.1667 418.8 95.7667 404.8 112.1 392.2C128.433 379.6 148.033 369.567 170.9 362.1C194.233 354.633 220.133 350.9 248.6 350.9Z" fill="white"/>
</svg>
