<svg width="459" height="900" viewBox="0 0 459 900" fill="none" xmlns="http://www.w3.org/2000/svg">
<rect x="286" y="595" width="116" height="108" transform="rotate(-180 286 595)" fill="#D5B678"/>
<path d="M443.8 361.4V376.1C429.333 376.1 419.067 379.6 413 386.6C407.4 393.6 404.6 406.9 404.6 426.5V658.9C404.6 678.5 407.4 691.8 413 698.8C419.067 705.8 429.333 709.3 443.8 709.3V724C434.467 723.533 420.233 723.067 401.1 722.6C382.433 721.667 364 721.2 345.8 721.2C326.2 721.2 307.067 721.667 288.4 722.6C269.733 723.067 255.733 723.533 246.4 724V709.3C258.533 709.3 266.933 705.8 271.6 698.8C276.267 691.8 278.6 678.5 278.6 658.9V426.5C278.6 406.9 276.267 393.6 271.6 386.6C266.933 379.6 258.533 376.1 246.4 376.1V361.4C255.267 361.867 268.333 362.567 285.6 363.5C302.867 363.967 320.6 364.2 338.8 364.2C358.4 364.2 378.233 363.967 398.3 363.5C418.367 362.567 433.533 361.867 443.8 361.4ZM212.1 361.4V376.1C200.433 376.1 192.033 379.6 186.9 386.6C182.233 393.6 179.9 406.9 179.9 426.5V658.9C179.9 678.5 182.233 691.8 186.9 698.8C192.033 705.8 200.433 709.3 212.1 709.3V724C203.233 723.533 190.167 723.067 172.9 722.6C155.633 721.667 137.9 721.2 119.7 721.2C100.1 721.2 80.2667 721.667 60.2 722.6C40.1333 723.067 24.9667 723.533 14.7 724V709.3C29.1667 709.3 39.2 705.8 44.8 698.8C50.8667 691.8 53.9 678.5 53.9 658.9V426.5C53.9 406.9 50.8667 393.6 44.8 386.6C39.2 379.6 29.1667 376.1 14.7 376.1V361.4C24.0333 361.867 38.2667 362.567 57.4 363.5C76.5333 363.967 94.9667 364.2 112.7 364.2C132.3 364.2 151.433 363.967 170.1 363.5C188.767 362.567 202.767 361.867 212.1 361.4ZM326.2 530.1V544.1H128.8V530.1H326.2Z" fill="white"/>
</svg>
