<svg width="1440" height="900" viewBox="0 0 1440 900" fill="none" xmlns="http://www.w3.org/2000/svg">
<g clip-path="url(#clip0_622_2295)">
<ellipse cx="2.96588" cy="2.97204" rx="2.96588" ry="2.97204" transform="matrix(-0.789456 -0.613807 -0.607778 0.794107 1069.3 8.64062)" fill="#D5B678"/>
<ellipse cx="2.96588" cy="2.97204" rx="2.96588" ry="2.97204" transform="matrix(-0.789456 -0.613807 -0.607778 0.794107 1151.35 16.0908)" fill="#D5B678"/>
<path d="M1180.56 26.012C1179.94 26.8266 1180.09 27.9965 1180.89 28.6248C1181.7 29.2532 1182.86 29.1022 1183.49 28.2876C1184.11 27.4729 1183.96 26.3031 1183.15 25.6747C1182.34 25.0463 1181.18 25.1973 1180.56 26.012Z" fill="#D5B678"/>
<path d="M1123.33 25L1122.03 63.925L1083.41 65.2337L1122.03 66.5423L1123.33 105.467L1124.63 66.5423L1163.25 65.2337L1124.63 63.925L1123.33 25Z" fill="#D5B678"/>
<path d="M1136.64 65.2344C1136.64 65.2344 1130.2 63.9315 1127.41 61.1236C1124.62 58.3157 1123.33 51.8234 1123.33 51.8234C1123.33 51.8234 1122 58.317 1119.21 61.1236C1116.43 63.9137 1110.02 65.2344 1110.02 65.2344C1110.02 65.2344 1116.43 66.589 1119.21 69.3905C1121.99 72.1921 1123.33 78.6454 1123.33 78.6454C1123.33 78.6454 1124.64 72.1933 1127.41 69.3905C1130.19 66.5712 1136.64 65.2344 1136.64 65.2344Z" fill="#D5B678"/>
<path d="M1304.54 48.4749C1303.92 49.2895 1304.07 50.4593 1304.88 51.0877C1305.68 51.7161 1306.84 51.5651 1307.47 50.7505C1308.09 49.9358 1307.94 48.766 1307.13 48.1376C1306.33 47.5092 1305.16 47.6602 1304.54 48.4749Z" fill="#D5B678"/>
<ellipse cx="2.96588" cy="2.97204" rx="2.96588" ry="2.97204" transform="matrix(-0.789456 -0.613807 -0.607778 0.794107 1163.3 112.641)" fill="#D5B678"/>
<ellipse cx="2.96588" cy="2.97204" rx="2.96588" ry="2.97204" transform="matrix(-0.789456 -0.613807 -0.607778 0.794107 1248.3 42.6406)" fill="#D5B678"/>
<ellipse cx="2.96588" cy="2.97204" rx="2.96588" ry="2.97204" transform="matrix(-0.789456 -0.613807 -0.607778 0.794107 1396.3 299.641)" fill="#D5B678"/>
<ellipse cx="2.96588" cy="2.97204" rx="2.96588" ry="2.97204" transform="matrix(-0.789456 -0.613807 -0.607778 0.794107 1098.3 171.641)" fill="#D5B678"/>
<path d="M1231.54 94.4749C1230.92 95.2895 1231.07 96.4593 1231.88 97.0877C1232.68 97.7161 1233.84 97.5651 1234.47 96.7505C1235.09 95.9358 1234.94 94.766 1234.13 94.1376C1233.33 93.5092 1232.16 93.6602 1231.54 94.4749Z" fill="#D5B678"/>
<path d="M1066.54 121.475C1065.92 122.29 1066.07 123.459 1066.88 124.088C1067.68 124.716 1068.84 124.565 1069.47 123.75C1070.09 122.936 1069.94 121.766 1069.13 121.138C1068.33 120.509 1067.16 120.66 1066.54 121.475Z" fill="#D5B678"/>
<path d="M1199.4 124.956L1196.83 137.265L1184.62 139.857L1196.83 142.449L1199.4 154.759L1201.97 142.449L1214.18 139.857L1201.97 137.265L1199.4 124.956Z" fill="#D5B678"/>
<path d="M1371.78 231L1369.21 243.309L1357 245.901L1369.21 248.493L1371.78 260.803L1374.36 248.493L1386.57 245.901L1374.36 243.309L1371.78 231Z" fill="#D5B678"/>
<path d="M1255.54 132.475C1254.92 133.29 1255.07 134.459 1255.88 135.088C1256.68 135.716 1257.84 135.565 1258.47 134.75C1259.09 133.936 1258.94 132.766 1258.13 132.138C1257.33 131.509 1256.16 131.66 1255.54 132.475Z" fill="#D5B678"/>
<path d="M1202.96 139.852L1200.49 138.754L1199.4 136.27L1198.3 138.754L1195.85 139.852L1198.3 140.962L1199.4 143.433L1200.49 140.962L1202.96 139.852Z" fill="#D5B678"/>
<path d="M1325.46 162.887C1324.84 163.702 1324.99 164.871 1325.8 165.5C1326.6 166.128 1327.76 165.977 1328.39 165.163C1329.01 164.348 1328.86 163.178 1328.05 162.55C1327.24 161.921 1326.08 162.072 1325.46 162.887Z" fill="#D5B678"/>
<path d="M1393.13 106.475C1392.51 107.29 1392.66 108.459 1393.46 109.088C1394.27 109.716 1395.43 109.565 1396.06 108.75C1396.68 107.936 1396.53 106.766 1395.72 106.138C1394.91 105.509 1393.75 105.66 1393.13 106.475Z" fill="#D5B678"/>
<path d="M1306.13 116.475C1305.51 117.29 1305.66 118.459 1306.46 119.088C1307.27 119.716 1308.43 119.565 1309.06 118.75C1309.68 117.936 1309.53 116.766 1308.72 116.138C1307.91 115.509 1306.75 115.66 1306.13 116.475Z" fill="#D5B678"/>
<path d="M1331.13 302.475C1330.51 303.29 1330.66 304.459 1331.46 305.088C1332.27 305.716 1333.43 305.565 1334.06 304.75C1334.68 303.936 1334.53 302.766 1333.72 302.138C1332.91 301.509 1331.75 301.66 1331.13 302.475Z" fill="#D5B678"/>
<path d="M1417.13 266.475C1416.51 267.29 1416.66 268.459 1417.46 269.088C1418.27 269.716 1419.43 269.565 1420.06 268.75C1420.68 267.936 1420.53 266.766 1419.72 266.138C1418.91 265.509 1417.75 265.66 1417.13 266.475Z" fill="#D5B678"/>
<path d="M1389.13 370.475C1388.51 371.29 1388.66 372.459 1389.46 373.088C1390.27 373.716 1391.43 373.565 1392.06 372.75C1392.68 371.936 1392.53 370.766 1391.72 370.138C1390.91 369.509 1389.75 369.66 1389.13 370.475Z" fill="#D5B678"/>
<path d="M1306.13 116.475C1305.51 117.29 1305.66 118.459 1306.46 119.088C1307.27 119.716 1308.43 119.565 1309.06 118.75C1309.68 117.936 1309.53 116.766 1308.72 116.138C1307.91 115.509 1306.75 115.66 1306.13 116.475Z" fill="#D5B678"/>
<ellipse cx="2.96588" cy="2.97204" rx="2.96588" ry="2.97204" transform="matrix(-0.789456 -0.613807 -0.607778 0.794107 1223.07 179.954)" fill="#D5B678"/>
<path d="M1279.34 190.887C1278.72 191.702 1278.87 192.871 1279.68 193.5C1280.49 194.128 1281.65 193.977 1282.27 193.163C1282.9 192.348 1282.75 191.178 1281.94 190.55C1281.13 189.921 1279.97 190.072 1279.34 190.887Z" fill="#D5B678"/>
<path d="M1180.62 189.726L1179.6 200.194L1169.22 201.218L1179.6 202.242L1180.62 212.711L1181.63 202.242L1192.02 201.218L1181.63 200.194L1180.62 189.726Z" fill="#D5B678"/>
<path d="M1188.13 98.4749C1187.51 99.2895 1187.66 100.459 1188.46 101.088C1189.27 101.716 1190.43 101.565 1191.06 100.75C1191.68 99.9358 1191.53 98.766 1190.72 98.1376C1189.91 97.5092 1188.75 97.6602 1188.13 98.4749Z" fill="#D5B678"/>
<path d="M1255.81 223L1254.8 233.469L1244.41 234.493L1254.8 235.517L1255.81 245.985L1256.83 235.517L1267.22 234.493L1256.83 233.469L1255.81 223Z" fill="#D5B678"/>
<path d="M1206.31 241.846C1205.68 242.661 1205.83 243.83 1206.64 244.459C1207.45 245.087 1208.61 244.936 1209.24 244.122C1209.86 243.307 1209.71 242.137 1208.9 241.509C1208.09 240.88 1206.93 241.031 1206.31 241.846Z" fill="#D5B678"/>
<path d="M1274.32 258.983C1273.69 259.797 1273.84 260.967 1274.65 261.596C1275.46 262.224 1276.62 262.073 1277.24 261.258C1277.87 260.444 1277.72 259.274 1276.91 258.645C1276.1 258.017 1274.94 258.168 1274.32 258.983Z" fill="#D5B678"/>
<path d="M1132.54 264.475C1131.92 265.29 1132.07 266.459 1132.88 267.088C1133.68 267.716 1134.84 267.565 1135.47 266.75C1136.09 265.936 1135.94 264.766 1135.13 264.138C1134.33 263.509 1133.16 263.66 1132.54 264.475Z" fill="#D5B678"/>
<ellipse cx="2.96588" cy="2.97204" rx="2.96588" ry="2.97204" transform="matrix(-0.789456 -0.613807 -0.607778 0.794107 1220.71 276.051)" fill="#D5B678"/>
<ellipse cx="2.96588" cy="2.97204" rx="2.96588" ry="2.97204" transform="matrix(-0.789456 -0.613807 -0.607778 0.794107 1220.71 276.051)" fill="#D5B678"/>
<path d="M1024.12 79L1026.69 91.3093L1038.9 93.9014L1026.69 96.4934L1024.12 108.803L1021.54 96.4934L1009.33 93.9014L1021.54 91.3093L1024.12 79Z" fill="#D5B678"/>
<path d="M967.975 86.5188C968.599 87.3335 968.449 88.5033 967.641 89.1317C966.832 89.7601 965.672 89.6091 965.048 88.7944C964.425 87.9798 964.575 86.8099 965.383 86.1815C966.191 85.5531 967.352 85.7041 967.975 86.5188Z" fill="#D5B678"/>
<ellipse cx="2.96588" cy="2.97204" rx="2.96588" ry="2.97204" transform="matrix(0.789456 -0.613807 0.607778 0.794107 1076.81 92.6846)" fill="#D5B678"/>
<path d="M1020.56 93.8955L1023.02 92.7976L1024.11 90.3138L1025.21 92.7976L1027.67 93.8955L1025.21 95.0055L1024.11 97.4772L1023.02 95.0055L1020.56 93.8955Z" fill="#D5B678"/>
<path d="M898.056 116.931C898.679 117.746 898.529 118.915 897.721 119.544C896.913 120.172 895.752 120.021 895.129 119.207C894.505 118.392 894.655 117.222 895.463 116.594C896.272 115.965 897.432 116.116 898.056 116.931Z" fill="#D5B678"/>
<path d="M1004.06 61.4748C1004.68 62.2895 1004.53 63.4593 1003.72 64.0877C1002.91 64.7162 1001.75 64.5652 1001.13 63.7505C1000.51 62.9358 1000.66 61.766 1001.46 61.1376C1002.27 60.5092 1003.43 60.6602 1004.06 61.4748Z" fill="#D5B678"/>
<ellipse cx="2.96588" cy="2.97204" rx="2.96588" ry="2.97204" transform="matrix(0.789456 -0.613807 0.607778 0.794107 1000.45 133.998)" fill="#D5B678"/>
<path d="M944.172 144.931C944.795 145.746 944.645 146.915 943.837 147.544C943.029 148.172 941.868 148.021 941.245 147.207C940.621 146.392 940.771 145.222 941.579 144.594C942.388 143.965 943.548 144.116 944.172 144.931Z" fill="#D5B678"/>
<path d="M847.056 169.475C847.679 170.29 847.53 171.459 846.721 172.088C845.913 172.716 844.752 172.565 844.129 171.75C843.505 170.936 843.655 169.766 844.463 169.138C845.272 168.509 846.432 168.66 847.056 169.475Z" fill="#D5B678"/>
<path d="M806.056 148.475C806.679 149.29 806.53 150.459 805.721 151.088C804.913 151.716 803.752 151.565 803.129 150.75C802.505 149.936 802.655 148.766 803.463 148.138C804.272 147.509 805.432 147.66 806.056 148.475Z" fill="#D5B678"/>
<path d="M794.056 212.475C794.679 213.29 794.53 214.459 793.721 215.088C792.913 215.716 791.752 215.565 791.129 214.75C790.505 213.936 790.655 212.766 791.463 212.138C792.272 211.509 793.432 211.66 794.056 212.475Z" fill="#D5B678"/>
<path d="M807.056 187.475C807.679 188.29 807.53 189.459 806.721 190.088C805.913 190.716 804.752 190.565 804.129 189.75C803.505 188.936 803.655 187.766 804.463 187.138C805.272 186.509 806.432 186.66 807.056 187.475Z" fill="#D5B678"/>
<path d="M719.056 168.475C719.679 169.29 719.53 170.459 718.721 171.088C717.913 171.716 716.752 171.565 716.129 170.75C715.505 169.936 715.655 168.766 716.463 168.138C717.272 167.509 718.432 167.66 719.056 168.475Z" fill="#D5B678"/>
<path d="M682.056 239.475C682.679 240.29 682.53 241.459 681.721 242.088C680.913 242.716 679.752 242.565 679.129 241.75C678.505 240.936 678.655 239.766 679.463 239.138C680.272 238.509 681.432 238.66 682.056 239.475Z" fill="#D5B678"/>
<path d="M773.056 278.475C773.679 279.29 773.53 280.459 772.721 281.088C771.913 281.716 770.752 281.565 770.129 280.75C769.505 279.936 769.655 278.766 770.463 278.138C771.272 277.509 772.432 277.66 773.056 278.475Z" fill="#D5B678"/>
<path d="M664.056 368.475C664.679 369.29 664.53 370.459 663.721 371.088C662.913 371.716 661.752 371.565 661.129 370.75C660.505 369.936 660.655 368.766 661.463 368.138C662.272 367.509 663.432 367.66 664.056 368.475Z" fill="#D5B678"/>
<path d="M720.056 528.475C720.679 529.29 720.53 530.459 719.721 531.088C718.913 531.716 717.752 531.565 717.129 530.75C716.505 529.936 716.655 528.766 717.463 528.138C718.272 527.509 719.432 527.66 720.056 528.475Z" fill="#D5B678"/>
<path d="M571.056 795.475C571.679 796.29 571.53 797.459 570.721 798.088C569.913 798.716 568.752 798.565 568.129 797.75C567.505 796.936 567.655 795.766 568.463 795.138C569.272 794.509 570.432 794.66 571.056 795.475Z" fill="#D5B678"/>
<path d="M616.056 754.475C616.679 755.29 616.53 756.459 615.721 757.088C614.913 757.716 613.752 757.565 613.129 756.75C612.505 755.936 612.655 754.766 613.463 754.138C614.272 753.509 615.432 753.66 616.056 754.475Z" fill="#D5B678"/>
<path d="M647.056 777.475C647.679 778.29 647.53 779.459 646.721 780.088C645.913 780.716 644.752 780.565 644.129 779.75C643.505 778.936 643.655 777.766 644.463 777.138C645.272 776.509 646.432 776.66 647.056 777.475Z" fill="#D5B678"/>
<path d="M647.056 777.475C647.679 778.29 647.53 779.459 646.721 780.088C645.913 780.716 644.752 780.565 644.129 779.75C643.505 778.936 643.655 777.766 644.463 777.138C645.272 776.509 646.432 776.66 647.056 777.475Z" fill="#D5B678"/>
<path d="M721.056 845.475C721.679 846.29 721.53 847.459 720.721 848.088C719.913 848.716 718.752 848.565 718.129 847.75C717.505 846.936 717.655 845.766 718.463 845.138C719.272 844.509 720.432 844.66 721.056 845.475Z" fill="#D5B678"/>
<path d="M721.056 845.475C721.679 846.29 721.53 847.459 720.721 848.088C719.913 848.716 718.752 848.565 718.129 847.75C717.505 846.936 717.655 845.766 718.463 845.138C719.272 844.509 720.432 844.66 721.056 845.475Z" fill="#D5B678"/>
<path d="M642.056 872.475C642.679 873.29 642.53 874.459 641.721 875.088C640.913 875.716 639.752 875.565 639.129 874.75C638.505 873.936 638.655 872.766 639.463 872.138C640.272 871.509 641.432 871.66 642.056 872.475Z" fill="#D5B678"/>
<path d="M642.056 872.475C642.679 873.29 642.53 874.459 641.721 875.088C640.913 875.716 639.752 875.565 639.129 874.75C638.505 873.936 638.655 872.766 639.463 872.138C640.272 871.509 641.432 871.66 642.056 872.475Z" fill="#D5B678"/>
<path d="M705.056 816.475C705.679 817.29 705.53 818.459 704.721 819.088C703.913 819.716 702.752 819.565 702.129 818.75C701.505 817.936 701.655 816.766 702.463 816.138C703.272 815.509 704.432 815.66 705.056 816.475Z" fill="#D5B678"/>
<path d="M852.056 867.475C852.679 868.29 852.53 869.459 851.721 870.088C850.913 870.716 849.752 870.565 849.129 869.75C848.505 868.936 848.655 867.766 849.463 867.138C850.272 866.509 851.432 866.66 852.056 867.475Z" fill="#D5B678"/>
<path d="M520.056 830.475C520.679 831.29 520.53 832.459 519.721 833.088C518.913 833.716 517.752 833.565 517.129 832.75C516.505 831.936 516.655 830.766 517.463 830.138C518.272 829.509 519.432 829.66 520.056 830.475Z" fill="#D5B678"/>
<path d="M1040.06 809.475C1040.68 810.29 1040.53 811.459 1039.72 812.088C1038.91 812.716 1037.75 812.565 1037.13 811.75C1036.51 810.936 1036.66 809.766 1037.46 809.138C1038.27 808.509 1039.43 808.66 1040.06 809.475Z" fill="#D5B678"/>
<path d="M852.056 867.475C852.679 868.29 852.53 869.459 851.721 870.088C850.913 870.716 849.752 870.565 849.129 869.75C848.505 868.936 848.655 867.766 849.463 867.138C850.272 866.509 851.432 866.66 852.056 867.475Z" fill="#D5B678"/>
<path d="M957.056 308.475C957.679 309.29 957.53 310.459 956.721 311.088C955.913 311.716 954.752 311.565 954.129 310.75C953.505 309.936 953.655 308.766 954.463 308.138C955.272 307.509 956.432 307.66 957.056 308.475Z" fill="#D5B678"/>
<path d="M1170.06 304.475C1170.68 305.29 1170.53 306.459 1169.72 307.088C1168.91 307.716 1167.75 307.565 1167.13 306.75C1166.51 305.936 1166.66 304.766 1167.46 304.138C1168.27 303.509 1169.43 303.66 1170.06 304.475Z" fill="#D5B678"/>
<path d="M1243.06 381.475C1243.68 382.29 1243.53 383.459 1242.72 384.088C1241.91 384.716 1240.75 384.565 1240.13 383.75C1239.51 382.936 1239.66 381.766 1240.46 381.138C1241.27 380.509 1242.43 380.66 1243.06 381.475Z" fill="#D5B678"/>
<path d="M1356.06 221.475C1356.68 222.29 1356.53 223.459 1355.72 224.088C1354.91 224.716 1353.75 224.565 1353.13 223.75C1352.51 222.936 1352.66 221.766 1353.46 221.138C1354.27 220.509 1355.43 220.66 1356.06 221.475Z" fill="#D5B678"/>
<path d="M687.056 339.475C687.679 340.29 687.53 341.459 686.721 342.088C685.913 342.716 684.752 342.565 684.129 341.75C683.505 340.936 683.655 339.766 684.463 339.138C685.272 338.509 686.432 338.66 687.056 339.475Z" fill="#D5B678"/>
<path d="M903.056 269.475C903.679 270.29 903.53 271.459 902.721 272.088C901.913 272.716 900.752 272.565 900.129 271.75C899.505 270.936 899.655 269.766 900.463 269.138C901.272 268.509 902.432 268.66 903.056 269.475Z" fill="#D5B678"/>
<path d="M1042.9 143.77L1043.91 154.238L1054.3 155.262L1043.91 156.286L1042.9 166.755L1041.88 156.286L1031.5 155.262L1041.88 154.238L1042.9 143.77Z" fill="#D5B678"/>
<path d="M1121.98 156.519C1122.6 157.333 1122.45 158.503 1121.64 159.132C1120.83 159.76 1119.67 159.609 1119.05 158.794C1118.42 157.98 1118.57 156.81 1119.38 156.182C1120.19 155.553 1121.35 155.704 1121.98 156.519Z" fill="#D5B678"/>
<path d="M967.702 177.044L968.718 187.513L979.104 188.537L968.718 189.561L967.702 200.029L966.686 189.561L956.3 188.537L966.686 187.513L967.702 177.044Z" fill="#D5B678"/>
<path d="M1017.21 195.89C1017.83 196.705 1017.68 197.874 1016.87 198.503C1016.07 199.131 1014.9 198.98 1014.28 198.166C1013.66 197.351 1013.81 196.181 1014.62 195.553C1015.42 194.924 1016.58 195.075 1017.21 195.89Z" fill="#D5B678"/>
<path d="M949.199 213.027C949.823 213.841 949.673 215.011 948.865 215.64C948.056 216.268 946.896 216.117 946.272 215.302C945.649 214.488 945.799 213.318 946.607 212.689C947.415 212.061 948.576 212.212 949.199 213.027Z" fill="#D5B678"/>
<path d="M831.056 108.475C831.679 109.29 831.529 110.459 830.721 111.088C829.913 111.716 828.752 111.565 828.129 110.75C827.505 109.936 827.655 108.766 828.463 108.138C829.272 107.509 830.432 107.66 831.056 108.475Z" fill="#D5B678"/>
<path d="M773.056 66.4748C773.679 67.2895 773.529 68.4593 772.721 69.0877C771.913 69.7162 770.752 69.5652 770.129 68.7505C769.505 67.9358 769.655 66.766 770.463 66.1376C771.272 65.5092 772.432 65.6602 773.056 66.4748Z" fill="#D5B678"/>
<path d="M880.056 26.4748C880.679 27.2895 880.529 28.4593 879.721 29.0877C878.913 29.7162 877.752 29.5652 877.129 28.7505C876.505 27.9358 876.655 26.766 877.463 26.1376C878.272 25.5092 879.432 25.6602 880.056 26.4748Z" fill="#D5B678"/>
<path d="M1090.98 218.519C1091.6 219.333 1091.45 220.503 1090.64 221.132C1089.83 221.76 1088.67 221.609 1088.05 220.794C1087.42 219.98 1087.57 218.81 1088.38 218.182C1089.19 217.553 1090.35 217.704 1090.98 218.519Z" fill="#D5B678"/>
<ellipse cx="2.96588" cy="2.97204" rx="2.96588" ry="2.97204" transform="matrix(0.789456 -0.613807 0.607778 0.794107 1002.8 230.095)" fill="#D5B678"/>
<ellipse cx="2.96588" cy="2.97204" rx="2.96588" ry="2.97204" transform="matrix(0.789456 -0.613807 0.607778 0.794107 1002.8 230.095)" fill="#D5B678"/>
<ellipse cx="2.96588" cy="2.97204" rx="2.96588" ry="2.97204" transform="matrix(0.789456 -0.613807 0.607778 0.794107 906 156.641)" fill="#D5B678"/>
<ellipse cx="2.96588" cy="2.97204" rx="2.96588" ry="2.97204" transform="matrix(-0.789456 -0.613807 -0.607778 0.794107 73.8519 10.6406)" fill="#D5B678"/>
<path d="M130.129 21.5735C129.505 22.3882 129.655 23.558 130.463 24.1864C131.272 24.8148 132.432 24.6638 133.056 23.8491C133.679 23.0344 133.53 21.8646 132.721 21.2362C131.913 20.6078 130.752 20.7588 130.129 21.5735Z" fill="#D5B678"/>
<path d="M31.4022 20.4121L30.3863 30.8809L20 31.9048L30.3863 32.9288L31.4022 43.3975L32.4181 32.9288L42.8044 31.9048L32.4181 30.8809L31.4022 20.4121Z" fill="#D5B678"/>
<path d="M44.1289 58.4749C43.5054 59.2895 43.6552 60.4593 44.4634 61.0877C45.2716 61.7161 46.4322 61.5651 47.0557 60.7505C47.6792 59.9358 47.5295 58.766 46.7213 58.1376C45.9131 57.5092 44.7525 57.6602 44.1289 58.4749Z" fill="#D5B678"/>
<path d="M112.129 58.4172C111.505 59.2319 111.655 60.4017 112.463 61.0301C113.272 61.6585 114.432 61.5075 115.056 60.6929C115.679 59.8782 115.529 58.7084 114.721 58.08C113.913 57.4516 112.752 57.6026 112.129 58.4172Z" fill="#D5B678"/>
<path d="M221.129 56.4748C220.505 57.2895 220.655 58.4593 221.463 59.0877C222.272 59.7162 223.432 59.5652 224.056 58.7505C224.679 57.9358 224.529 56.766 223.721 56.1376C222.913 55.5092 221.752 55.6602 221.129 56.4748Z" fill="#D5B678"/>
<path d="M295.129 32.4748C294.505 33.2895 294.655 34.4593 295.463 35.0877C296.272 35.7162 297.432 35.5652 298.056 34.7505C298.679 33.9358 298.529 32.766 297.721 32.1376C296.913 31.5092 295.752 31.6602 295.129 32.4748Z" fill="#D5B678"/>
<path d="M551.129 51.4748C550.505 52.2895 550.655 53.4593 551.463 54.0877C552.272 54.7162 553.432 54.5652 554.056 53.7505C554.679 52.9358 554.529 51.766 553.721 51.1376C552.913 50.5092 551.752 50.6602 551.129 51.4748Z" fill="#D5B678"/>
<path d="M41.1289 160.475C40.5054 161.29 40.6551 162.459 41.4633 163.088C42.2715 163.716 43.4321 163.565 44.0556 162.75C44.6791 161.936 44.5294 160.766 43.7212 160.138C42.913 159.509 41.7524 159.66 41.1289 160.475Z" fill="#D5B678"/>
<path d="M16.1289 90.4172C15.5054 91.2319 15.6551 92.4017 16.4633 93.0301C17.2715 93.6585 18.4321 93.5075 19.0556 92.6929C19.6791 91.8782 19.5294 90.7084 18.7212 90.08C17.913 89.4516 16.7524 89.6026 16.1289 90.4172Z" fill="#D5B678"/>
<path d="M110.129 212.475C109.505 213.29 109.655 214.459 110.463 215.088C111.272 215.716 112.432 215.565 113.056 214.75C113.679 213.936 113.529 212.766 112.721 212.138C111.913 211.509 110.752 211.66 110.129 212.475Z" fill="#D5B678"/>
<path d="M98.1289 156.475C97.5054 157.29 97.6551 158.459 98.4633 159.088C99.2715 159.716 100.432 159.565 101.056 158.75C101.679 157.936 101.529 156.766 100.721 156.138C99.913 155.509 98.7524 155.66 98.1289 156.475Z" fill="#D5B678"/>
<path d="M49.1289 112.475C48.5054 113.29 48.6551 114.459 49.4633 115.088C50.2715 115.716 51.4321 115.565 52.0556 114.75C52.6791 113.936 52.5294 112.766 51.7212 112.138C50.913 111.509 49.7524 111.66 49.1289 112.475Z" fill="#D5B678"/>
<path d="M27.1289 318.475C26.5054 319.29 26.6551 320.459 27.4633 321.088C28.2715 321.716 29.4321 321.565 30.0556 320.75C30.6791 319.936 30.5294 318.766 29.7212 318.138C28.913 317.509 27.7524 317.66 27.1289 318.475Z" fill="#D5B678"/>
<path d="M36.1289 418.475C35.5054 419.29 35.6551 420.459 36.4633 421.088C37.2715 421.716 38.4321 421.565 39.0556 420.75C39.6791 419.936 39.5294 418.766 38.7212 418.138C37.913 417.509 36.7524 417.66 36.1289 418.475Z" fill="#D5B678"/>
<path d="M93.1289 448.475C92.5054 449.29 92.6551 450.459 93.4633 451.088C94.2715 451.716 95.4321 451.565 96.0556 450.75C96.6791 449.936 96.5294 448.766 95.7212 448.138C94.913 447.509 93.7524 447.66 93.1289 448.475Z" fill="#D5B678"/>
<path d="M52.1289 540.475C51.5054 541.29 51.6551 542.459 52.4633 543.088C53.2715 543.716 54.4321 543.565 55.0556 542.75C55.6791 541.936 55.5294 540.766 54.7212 540.138C53.913 539.509 52.7524 539.66 52.1289 540.475Z" fill="#D5B678"/>
<path d="M24.1289 577.475C23.5054 578.29 23.6551 579.459 24.4633 580.088C25.2715 580.716 26.4321 580.565 27.0556 579.75C27.6791 578.936 27.5294 577.766 26.7212 577.138C25.913 576.509 24.7524 576.66 24.1289 577.475Z" fill="#D5B678"/>
<path d="M63.1289 655.475C62.5054 656.29 62.6551 657.459 63.4633 658.088C64.2715 658.716 65.4321 658.565 66.0556 657.75C66.6791 656.936 66.5294 655.766 65.7212 655.138C64.913 654.509 63.7524 654.66 63.1289 655.475Z" fill="#D5B678"/>
<path d="M84.1289 693.475C83.5054 694.29 83.6551 695.459 84.4633 696.088C85.2715 696.716 86.4321 696.565 87.0556 695.75C87.6791 694.936 87.5294 693.766 86.7212 693.138C85.913 692.509 84.7524 692.66 84.1289 693.475Z" fill="#D5B678"/>
<path d="M41.1289 725.475C40.5054 726.29 40.6551 727.459 41.4633 728.088C42.2715 728.716 43.4321 728.565 44.0556 727.75C44.6791 726.936 44.5294 725.766 43.7212 725.138C42.913 724.509 41.7524 724.66 41.1289 725.475Z" fill="#D5B678"/>
<path d="M76.1289 818.475C75.5054 819.29 75.6551 820.459 76.4633 821.088C77.2715 821.716 78.4321 821.565 79.0556 820.75C79.6791 819.936 79.5294 818.766 78.7212 818.138C77.913 817.509 76.7524 817.66 76.1289 818.475Z" fill="#D5B678"/>
<path d="M19.1289 779.475C18.5054 780.29 18.6551 781.459 19.4633 782.088C20.2715 782.716 21.4321 782.565 22.0556 781.75C22.6791 780.936 22.5294 779.766 21.7212 779.138C20.913 778.509 19.7524 778.66 19.1289 779.475Z" fill="#D5B678"/>
<path d="M54.1289 756.475C53.5054 757.29 53.6551 758.459 54.4633 759.088C55.2715 759.716 56.4321 759.565 57.0556 758.75C57.6791 757.936 57.5294 756.766 56.7212 756.138C55.913 755.509 54.7524 755.66 54.1289 756.475Z" fill="#D5B678"/>
<path d="M54.1289 756.475C53.5054 757.29 53.6551 758.459 54.4633 759.088C55.2715 759.716 56.4321 759.565 57.0556 758.75C57.6791 757.936 57.5294 756.766 56.7212 756.138C55.913 755.509 54.7524 755.66 54.1289 756.475Z" fill="#D5B678"/>
<path d="M114.129 820.475C113.505 821.29 113.655 822.459 114.463 823.088C115.272 823.716 116.432 823.565 117.056 822.75C117.679 821.936 117.529 820.766 116.721 820.138C115.913 819.509 114.752 819.66 114.129 820.475Z" fill="#D5B678"/>
<path d="M25.1289 875.475C24.5054 876.29 24.6551 877.459 25.4633 878.088C26.2715 878.716 27.4321 878.565 28.0556 877.75C28.6791 876.936 28.5294 875.766 27.7212 875.138C26.913 874.509 25.7524 874.66 25.1289 875.475Z" fill="#D5B678"/>
<path d="M124.129 888.475C123.505 889.29 123.655 890.459 124.463 891.088C125.272 891.716 126.432 891.565 127.056 890.75C127.679 889.936 127.529 888.766 126.721 888.138C125.913 887.509 124.752 887.66 124.129 888.475Z" fill="#D5B678"/>
<path d="M201.129 850.475C200.505 851.29 200.655 852.459 201.463 853.088C202.272 853.716 203.432 853.565 204.056 852.75C204.679 851.936 204.529 850.766 203.721 850.138C202.913 849.509 201.752 849.66 201.129 850.475Z" fill="#D5B678"/>
<path d="M165.129 774.475C164.505 775.29 164.655 776.459 165.463 777.088C166.272 777.716 167.432 777.565 168.056 776.75C168.679 775.936 168.529 774.766 167.721 774.138C166.913 773.509 165.752 773.66 165.129 774.475Z" fill="#D5B678"/>
<path d="M199.129 582.475C198.505 583.29 198.655 584.459 199.463 585.088C200.272 585.716 201.432 585.565 202.056 584.75C202.679 583.936 202.529 582.766 201.721 582.138C200.913 581.509 199.752 581.66 199.129 582.475Z" fill="#D5B678"/>
<path d="M185.129 382.475C184.505 383.29 184.655 384.459 185.463 385.088C186.272 385.716 187.432 385.565 188.056 384.75C188.679 383.936 188.529 382.766 187.721 382.138C186.913 381.509 185.752 381.66 185.129 382.475Z" fill="#D5B678"/>
<path d="M546.129 209.475C545.505 210.29 545.655 211.459 546.463 212.088C547.272 212.716 548.432 212.565 549.056 211.75C549.679 210.936 549.529 209.766 548.721 209.138C547.913 208.509 546.752 208.66 546.129 209.475Z" fill="#D5B678"/>
<path d="M62.1289 596.475C61.5054 597.29 61.6551 598.459 62.4633 599.088C63.2715 599.716 64.4321 599.565 65.0556 598.75C65.6791 597.936 65.5294 596.766 64.7212 596.138C63.913 595.509 62.7524 595.66 62.1289 596.475Z" fill="#D5B678"/>
<path d="M127.129 693.475C126.505 694.29 126.655 695.459 127.463 696.088C128.272 696.716 129.432 696.565 130.056 695.75C130.679 694.936 130.529 693.766 129.721 693.138C128.913 692.509 127.752 692.66 127.129 693.475Z" fill="#D5B678"/>
<ellipse cx="2.96588" cy="2.97204" rx="2.96588" ry="2.97204" transform="matrix(-0.789456 -0.613807 -0.607778 0.794107 68.4976 78.6797)" fill="#D5B678"/>
<ellipse cx="2.96588" cy="2.97204" rx="2.96588" ry="2.97204" transform="matrix(-0.789456 -0.613807 -0.607778 0.794107 68.4976 78.6797)" fill="#D5B678"/>
<ellipse cx="2.96588" cy="2.97204" rx="2.96588" ry="2.97204" transform="matrix(-0.789456 -0.613807 -0.607778 0.794107 168.301 33.2832)" fill="#D5B678"/>
<ellipse cx="2.96588" cy="2.97204" rx="2.96588" ry="2.97204" transform="matrix(0.789456 -0.613807 0.607778 0.794107 772 199.641)" fill="#D5B678"/>
<ellipse cx="2.96588" cy="2.97204" rx="2.96588" ry="2.97204" transform="matrix(0.789456 -0.613807 0.607778 0.794107 1386.17 592.091)" fill="#D5B678"/>
<ellipse cx="2.96588" cy="2.97204" rx="2.96588" ry="2.97204" transform="matrix(0.789456 -0.613807 0.607778 0.794107 1376 432.641)" fill="#D5B678"/>
<path d="M1356.96 602.012C1357.58 602.827 1357.43 603.996 1356.62 604.625C1355.81 605.253 1354.65 605.102 1354.03 604.288C1353.41 603.473 1353.56 602.303 1354.37 601.675C1355.17 601.046 1356.33 601.197 1356.96 602.012Z" fill="#D5B678"/>
<path d="M1232.98 624.475C1233.6 625.29 1233.45 626.459 1232.64 627.088C1231.83 627.716 1230.67 627.565 1230.05 626.75C1229.42 625.936 1229.57 624.766 1230.38 624.138C1231.19 623.509 1232.35 623.66 1232.98 624.475Z" fill="#D5B678"/>
<ellipse cx="2.96588" cy="2.97204" rx="2.96588" ry="2.97204" transform="matrix(0.789456 -0.613807 0.607778 0.794107 1367.81 669.641)" fill="#D5B678"/>
<path d="M1305.98 670.475C1306.6 671.29 1306.45 672.459 1305.64 673.088C1304.83 673.716 1303.67 673.565 1303.05 672.75C1302.42 671.936 1302.57 670.766 1303.38 670.138C1304.19 669.509 1305.35 669.66 1305.98 670.475Z" fill="#D5B678"/>
<path d="M1380.06 621.475C1380.68 622.29 1380.53 623.459 1379.72 624.088C1378.91 624.716 1377.75 624.565 1377.13 623.75C1376.51 622.936 1376.66 621.766 1377.46 621.138C1378.27 620.509 1379.43 620.66 1380.06 621.475Z" fill="#D5B678"/>
<path d="M1417.06 516.475C1417.68 517.29 1417.53 518.459 1416.72 519.088C1415.91 519.716 1414.75 519.565 1414.13 518.75C1413.51 517.936 1413.66 516.766 1414.46 516.138C1415.27 515.509 1416.43 515.66 1417.06 516.475Z" fill="#D5B678"/>
<path d="M1358.06 451.475C1358.68 452.29 1358.53 453.459 1357.72 454.088C1356.91 454.716 1355.75 454.565 1355.13 453.75C1354.51 452.936 1354.66 451.766 1355.46 451.138C1356.27 450.509 1357.43 450.66 1358.06 451.475Z" fill="#D5B678"/>
<path d="M1338.12 700.956L1340.69 713.265L1352.9 715.857L1340.69 718.449L1338.12 730.759L1335.54 718.449L1323.33 715.857L1335.54 713.265L1338.12 700.956Z" fill="#D5B678"/>
<path d="M1281.98 708.475C1282.6 709.29 1282.45 710.459 1281.64 711.088C1280.83 711.716 1279.67 711.565 1279.05 710.75C1278.42 709.936 1278.57 708.766 1279.38 708.138C1280.19 707.509 1281.35 707.66 1281.98 708.475Z" fill="#D5B678"/>
<ellipse cx="2.96588" cy="2.97204" rx="2.96588" ry="2.97204" transform="matrix(0.789456 -0.613807 0.607778 0.794107 1390.81 714.641)" fill="#D5B678"/>
<path d="M1334.56 715.852L1337.02 714.754L1338.11 712.27L1339.21 714.754L1341.67 715.852L1339.21 716.962L1338.11 719.433L1337.02 716.962L1334.56 715.852Z" fill="#D5B678"/>
<path d="M1380.06 876.475C1380.68 877.29 1380.53 878.459 1379.72 879.088C1378.91 879.716 1377.75 879.565 1377.13 878.75C1376.51 877.936 1376.66 876.766 1377.46 876.138C1378.27 875.509 1379.43 875.66 1380.06 876.475Z" fill="#D5B678"/>
<ellipse cx="2.96588" cy="2.97204" rx="2.96588" ry="2.97204" transform="matrix(0.789456 -0.613807 0.607778 0.794107 1314.45 755.954)" fill="#D5B678"/>
<path d="M1258.17 766.887C1258.8 767.702 1258.65 768.871 1257.84 769.5C1257.03 770.128 1255.87 769.977 1255.24 769.163C1254.62 768.348 1254.77 767.178 1255.58 766.55C1256.39 765.921 1257.55 766.072 1258.17 766.887Z" fill="#D5B678"/>
<path d="M1356.9 765.726L1357.91 776.194L1368.3 777.218L1357.91 778.242L1356.9 788.711L1355.88 778.242L1345.5 777.218L1355.88 776.194L1356.9 765.726Z" fill="#D5B678"/>
<path d="M1412.4 628L1413.42 638.469L1423.8 639.493L1413.42 640.517L1412.4 650.985L1411.39 640.517L1401 639.493L1411.39 638.469L1412.4 628Z" fill="#D5B678"/>
<path d="M1435.98 778.475C1436.6 779.29 1436.45 780.459 1435.64 781.088C1434.83 781.716 1433.67 781.565 1433.05 780.75C1432.42 779.936 1432.57 778.766 1433.38 778.138C1434.19 777.509 1435.35 777.66 1435.98 778.475Z" fill="#D5B678"/>
<path d="M1281.7 799L1282.72 809.469L1293.1 810.493L1282.72 811.517L1281.7 821.985L1280.69 811.517L1270.3 810.493L1280.69 809.469L1281.7 799Z" fill="#D5B678"/>
<path d="M1331.21 817.846C1331.83 818.661 1331.68 819.83 1330.87 820.459C1330.07 821.087 1328.9 820.936 1328.28 820.122C1327.66 819.307 1327.81 818.137 1328.62 817.509C1329.42 816.88 1330.58 817.031 1331.21 817.846Z" fill="#D5B678"/>
<path d="M1263.2 834.983C1263.82 835.797 1263.67 836.967 1262.86 837.596C1262.06 838.224 1260.9 838.073 1260.27 837.258C1259.65 836.444 1259.8 835.274 1260.61 834.645C1261.42 834.017 1262.58 834.168 1263.2 834.983Z" fill="#D5B678"/>
<path d="M1404.98 840.475C1405.6 841.29 1405.45 842.459 1404.64 843.088C1403.83 843.716 1402.67 843.565 1402.05 842.75C1401.42 841.936 1401.57 840.766 1402.38 840.138C1403.19 839.509 1404.35 839.66 1404.98 840.475Z" fill="#D5B678"/>
<ellipse cx="2.96588" cy="2.97204" rx="2.96588" ry="2.97204" transform="matrix(0.789456 -0.613807 0.607778 0.794107 1316.8 852.051)" fill="#D5B678"/>
<ellipse cx="2.96588" cy="2.97204" rx="2.96588" ry="2.97204" transform="matrix(0.789456 -0.613807 0.607778 0.794107 1316.8 852.051)" fill="#D5B678"/>
<path d="M1214.98 881.475C1215.6 882.29 1215.45 883.459 1214.64 884.088C1213.83 884.716 1212.67 884.565 1212.05 883.75C1211.42 882.936 1211.57 881.766 1212.38 881.138C1213.19 880.509 1214.35 880.66 1214.98 881.475Z" fill="#D5B678"/>
<path d="M1281.17 886.887C1281.8 887.702 1281.65 888.871 1280.84 889.5C1280.03 890.128 1278.87 889.977 1278.24 889.163C1277.62 888.348 1277.77 887.178 1278.58 886.55C1279.39 885.921 1280.55 886.072 1281.17 886.887Z" fill="#D5B678"/>
<path d="M73.4007 196L70.829 208.309L58.6166 210.901L70.829 213.493L73.4007 225.803L75.9723 213.493L88.1847 210.901L75.9723 208.309L73.4007 196Z" fill="#D5B678"/>
<path d="M84.7841 837L82.2124 849.309L70.0001 851.901L82.2124 854.493L84.7841 866.803L87.3557 854.493L99.5681 851.901L87.3557 849.309L84.7841 837Z" fill="#D5B678"/>
<path d="M99.7825 228L98.7666 238.469L88.3803 239.493L98.7666 240.517L99.7825 250.985L100.798 240.517L111.185 239.493L100.798 238.469L99.7825 228Z" fill="#D5B678"/>
<path d="M102.402 654L101.386 664.469L91 665.493L101.386 666.517L102.402 676.985L103.418 666.517L113.804 665.493L103.418 664.469L102.402 654Z" fill="#D5B678"/>
<path d="M23.4022 509L22.3863 519.469L12 520.493L22.3863 521.517L23.4022 531.985L24.4181 521.517L34.8044 520.493L24.4181 519.469L23.4022 509Z" fill="#D5B678"/>
<ellipse cx="2.96588" cy="2.97204" rx="2.96588" ry="2.97204" transform="matrix(-0.789456 -0.613807 -0.607778 0.794107 62.1847 249.641)" fill="#D5B678"/>
<ellipse cx="2.96588" cy="2.97204" rx="2.96588" ry="2.97204" transform="matrix(-0.789456 -0.613807 -0.607778 0.794107 126.185 287.641)" fill="#D5B678"/>
<ellipse cx="2.96588" cy="2.97204" rx="2.96588" ry="2.97204" transform="matrix(-0.789456 -0.613807 -0.607778 0.794107 54.2955 387.641)" fill="#D5B678"/>
<ellipse cx="2.96588" cy="2.97204" rx="2.96588" ry="2.97204" transform="matrix(-0.789456 -0.613807 -0.607778 0.794107 44.2955 490.641)" fill="#D5B678"/>
<ellipse cx="2.96588" cy="2.97204" rx="2.96588" ry="2.97204" transform="matrix(-0.789456 -0.613807 -0.607778 0.794107 43.2955 627.641)" fill="#D5B678"/>
<ellipse cx="2.96588" cy="2.97204" rx="2.96588" ry="2.97204" transform="matrix(-0.789456 -0.613807 -0.607778 0.794107 83.2955 732.641)" fill="#D5B678"/>
<ellipse cx="2.96588" cy="2.97204" rx="2.96588" ry="2.97204" transform="matrix(-0.789456 -0.613807 -0.607778 0.794107 55.2955 832.641)" fill="#D5B678"/>
<ellipse cx="2.96588" cy="2.97204" rx="2.96588" ry="2.97204" transform="matrix(-0.789456 -0.613807 -0.607778 0.794107 685.296 829.641)" fill="#D5B678"/>
<ellipse cx="2.96588" cy="2.97204" rx="2.96588" ry="2.97204" transform="matrix(-0.789456 -0.613807 -0.607778 0.794107 95.2955 626.641)" fill="#D5B678"/>
<path d="M66.1289 284.475C65.5054 285.29 65.6552 286.459 66.4634 287.088C67.2716 287.716 68.4322 287.565 69.0557 286.75C69.6792 285.936 69.5295 284.766 68.7213 284.138C67.9131 283.509 66.7525 283.66 66.1289 284.475Z" fill="#D5B678"/>
<path d="M147.129 244.475C146.505 245.29 146.655 246.459 147.463 247.088C148.272 247.716 149.432 247.565 150.056 246.75C150.679 245.936 150.53 244.766 149.721 244.138C148.913 243.509 147.752 243.66 147.129 244.475Z" fill="#D5B678"/>
<path d="M105.129 318.475C104.505 319.29 104.655 320.459 105.463 321.088C106.272 321.716 107.432 321.565 108.056 320.75C108.679 319.936 108.53 318.766 107.721 318.138C106.913 317.509 105.752 317.66 105.129 318.475Z" fill="#D5B678"/>
<path d="M21.1289 212.475C20.5054 213.29 20.6552 214.459 21.4634 215.088C22.2716 215.716 23.4322 215.565 24.0557 214.75C24.6792 213.936 24.5295 212.766 23.7213 212.138C22.9131 211.509 21.7525 211.66 21.1289 212.475Z" fill="#D5B678"/>
</g>
<defs>
<clipPath id="clip0_622_2295">
<rect width="1440" height="900" fill="white"/>
</clipPath>
</defs>
</svg>
