<svg width="1440" height="900" viewBox="0 0 1440 900" fill="none" xmlns="http://www.w3.org/2000/svg">
<g clip-path="url(#clip0_622_2374)">
<path d="M1313.78 9L1316.36 21.3093L1328.57 23.9014L1316.36 26.4934L1313.78 38.8027L1311.21 26.4934L1299 23.9014L1311.21 21.3093L1313.78 9Z" fill="#D5B678"/>
<path d="M1287.4 41L1288.42 51.4688L1298.8 52.4927L1288.42 53.5167L1287.4 63.9854L1286.39 53.5167L1276 52.4927L1286.39 51.4688L1287.4 41Z" fill="#D5B678"/>
<path d="M1166.4 68L1167.42 78.4688L1177.8 79.4927L1167.42 80.5167L1166.4 90.9854L1165.39 80.5167L1155 79.4927L1165.39 78.4688L1166.4 68Z" fill="#D5B678"/>
<ellipse cx="2.96588" cy="2.97204" rx="2.96588" ry="2.97204" transform="matrix(0.789456 -0.613807 0.607778 0.794107 1325 62.6406)" fill="#D5B678"/>
<ellipse cx="2.96588" cy="2.97204" rx="2.96588" ry="2.97204" transform="matrix(0.789456 -0.613807 0.607778 0.794107 731 36.6406)" fill="#D5B678"/>
<ellipse cx="2.96588" cy="2.97204" rx="2.96588" ry="2.97204" transform="matrix(0.789456 -0.613807 0.607778 0.794107 1094 102.641)" fill="#D5B678"/>
<ellipse cx="2.96588" cy="2.97204" rx="2.96588" ry="2.97204" transform="matrix(0.789456 -0.613807 0.607778 0.794107 1094 102.641)" fill="#D5B678"/>
<path d="M1221.06 123.475C1221.68 124.29 1221.53 125.459 1220.72 126.088C1219.91 126.716 1218.75 126.565 1218.13 125.75C1217.51 124.936 1217.66 123.766 1218.46 123.138C1219.27 122.509 1220.43 122.66 1221.06 123.475Z" fill="#D5B678"/>
<path d="M1128.06 58.4749C1128.68 59.2895 1128.53 60.4593 1127.72 61.0877C1126.91 61.7161 1125.75 61.5651 1125.13 60.7505C1124.51 59.9358 1124.66 58.766 1125.46 58.1376C1126.27 57.5092 1127.43 57.6602 1128.06 58.4749Z" fill="#D5B678"/>
<path d="M1040.06 97.4749C1040.68 98.2895 1040.53 99.4593 1039.72 100.088C1038.91 100.716 1037.75 100.565 1037.13 99.7505C1036.51 98.9358 1036.66 97.766 1037.46 97.1376C1038.27 96.5092 1039.43 96.6602 1040.06 97.4749Z" fill="#D5B678"/>
<path d="M1074.06 77.4749C1074.68 78.2895 1074.53 79.4593 1073.72 80.0877C1072.91 80.7161 1071.75 80.5651 1071.13 79.7505C1070.51 78.9358 1070.66 77.766 1071.46 77.1376C1072.27 76.5092 1073.43 76.6602 1074.06 77.4749Z" fill="#D5B678"/>
<path d="M1143.06 120.475C1143.68 121.29 1143.53 122.459 1142.72 123.088C1141.91 123.716 1140.75 123.565 1140.13 122.75C1139.51 121.936 1139.66 120.766 1140.46 120.138C1141.27 119.509 1142.43 119.66 1143.06 120.475Z" fill="#D5B678"/>
<path d="M821.056 82.4749C821.679 83.2895 821.53 84.4593 820.721 85.0877C819.913 85.7161 818.752 85.5651 818.129 84.7505C817.505 83.9358 817.655 82.766 818.463 82.1376C819.272 81.5092 820.432 81.6602 821.056 82.4749Z" fill="#D5B678"/>
<path d="M960.056 201.475C960.679 202.29 960.53 203.459 959.721 204.088C958.913 204.716 957.752 204.565 957.129 203.75C956.505 202.936 956.655 201.766 957.463 201.138C958.272 200.509 959.432 200.66 960.056 201.475Z" fill="#D5B678"/>
<path d="M890.056 128.475C890.679 129.29 890.53 130.459 889.721 131.088C888.913 131.716 887.752 131.565 887.129 130.75C886.505 129.936 886.655 128.766 887.463 128.138C888.272 127.509 889.432 127.66 890.056 128.475Z" fill="#D5B678"/>
<path d="M699.056 130.475C699.679 131.29 699.53 132.459 698.721 133.088C697.913 133.716 696.752 133.565 696.129 132.75C695.505 131.936 695.655 130.766 696.463 130.138C697.272 129.509 698.432 129.66 699.056 130.475Z" fill="#D5B678"/>
<path d="M694.056 10.4749C694.679 11.2895 694.53 12.4593 693.721 13.0877C692.913 13.7161 691.752 13.5651 691.129 12.7505C690.505 11.9358 690.655 10.766 691.463 10.1376C692.272 9.5092 693.432 9.66021 694.056 10.4749Z" fill="#D5B678"/>
<path d="M694.056 10.4749C694.679 11.2895 694.53 12.4593 693.721 13.0877C692.913 13.7161 691.752 13.5651 691.129 12.7505C690.505 11.9358 690.655 10.766 691.463 10.1376C692.272 9.5092 693.432 9.66021 694.056 10.4749Z" fill="#D5B678"/>
<path d="M694.056 10.4749C694.679 11.2895 694.53 12.4593 693.721 13.0877C692.913 13.7161 691.752 13.5651 691.129 12.7505C690.505 11.9358 690.655 10.766 691.463 10.1376C692.272 9.5092 693.432 9.66021 694.056 10.4749Z" fill="#D5B678"/>
<path d="M771.056 22.4749C771.679 23.2895 771.53 24.4593 770.721 25.0877C769.913 25.7161 768.752 25.5651 768.129 24.7505C767.505 23.9358 767.655 22.766 768.463 22.1376C769.272 21.5092 770.432 21.6602 771.056 22.4749Z" fill="#D5B678"/>
<path d="M754.056 78.4749C754.679 79.2895 754.53 80.4593 753.721 81.0877C752.913 81.7161 751.752 81.5651 751.129 80.7505C750.505 79.9358 750.655 78.766 751.463 78.1376C752.272 77.5092 753.432 77.6602 754.056 78.4749Z" fill="#D5B678"/>
<path d="M885.056 60.4749C885.679 61.2895 885.53 62.4593 884.721 63.0877C883.913 63.7161 882.752 63.5651 882.129 62.7505C881.505 61.9358 881.655 60.766 882.463 60.1376C883.272 59.5092 884.432 59.6602 885.056 60.4749Z" fill="#D5B678"/>
<path d="M960.056 98.4749C960.679 99.2895 960.53 100.459 959.721 101.088C958.913 101.716 957.752 101.565 957.129 100.75C956.505 99.9358 956.655 98.766 957.463 98.1376C958.272 97.5092 959.432 97.6602 960.056 98.4749Z" fill="#D5B678"/>
<path d="M1414.06 80.4749C1414.68 81.2895 1414.53 82.4593 1413.72 83.0877C1412.91 83.7161 1411.75 83.5651 1411.13 82.7505C1410.51 81.9358 1410.66 80.766 1411.46 80.1376C1412.27 79.5092 1413.43 79.6602 1414.06 80.4749Z" fill="#D5B678"/>
<path d="M1321.06 97.4749C1321.68 98.2895 1321.53 99.4593 1320.72 100.088C1319.91 100.716 1318.75 100.565 1318.13 99.7505C1317.51 98.9358 1317.66 97.766 1318.46 97.1376C1319.27 96.5092 1320.43 96.6602 1321.06 97.4749Z" fill="#D5B678"/>
<path d="M1240.06 57.4749C1240.68 58.2895 1240.53 59.4593 1239.72 60.0877C1238.91 60.7161 1237.75 60.5651 1237.13 59.7505C1236.51 58.9358 1236.66 57.766 1237.46 57.1376C1238.27 56.5092 1239.43 56.6602 1240.06 57.4749Z" fill="#D5B678"/>
<path d="M1366.06 25.4749C1366.68 26.2895 1366.53 27.4593 1365.72 28.0877C1364.91 28.7161 1363.75 28.5651 1363.13 27.7505C1362.51 26.9358 1362.66 25.766 1363.46 25.1376C1364.27 24.5092 1365.43 24.6602 1366.06 25.4749Z" fill="#D5B678"/>
<path d="M65.4022 29L66.4181 39.4688L76.8044 40.4927L66.4181 41.5167L65.4022 51.9854L64.3863 41.5167L54 40.4927L64.3863 39.4688L65.4022 29Z" fill="#D5B678"/>
<ellipse cx="2.96588" cy="2.97204" rx="2.96588" ry="2.97204" transform="matrix(0.789456 -0.613807 0.607778 0.794107 103 50.6406)" fill="#D5B678"/>
<path d="M192.056 68.4749C192.679 69.2895 192.53 70.4593 191.721 71.0877C190.913 71.7161 189.752 71.5651 189.129 70.7505C188.505 69.9358 188.655 68.766 189.463 68.1376C190.272 67.5092 191.432 67.6602 192.056 68.4749Z" fill="#D5B678"/>
<path d="M99.0557 85.4749C99.6793 86.2895 99.5295 87.4593 98.7213 88.0877C97.9131 88.7161 96.7525 88.5651 96.129 87.7505C95.5055 86.9358 95.6552 85.766 96.4634 85.1376C97.2716 84.5092 98.4322 84.6602 99.0557 85.4749Z" fill="#D5B678"/>
<path d="M144.056 13.4749C144.679 14.2895 144.53 15.4593 143.721 16.0877C142.913 16.7161 141.752 16.5651 141.129 15.7505C140.505 14.9358 140.655 13.766 141.463 13.1376C142.272 12.5092 143.432 12.6602 144.056 13.4749Z" fill="#D5B678"/>
<path d="M24.0557 20.4749C24.6793 21.2895 24.5295 22.4593 23.7213 23.0877C22.9131 23.7161 21.7525 23.5651 21.129 22.7505C20.5055 21.9358 20.6552 20.766 21.4634 20.1376C22.2716 19.5092 23.4322 19.6602 24.0557 20.4749Z" fill="#D5B678"/>
<path d="M29.0557 131.475C29.6793 132.29 29.5295 133.459 28.7213 134.088C27.9131 134.716 26.7525 134.565 26.129 133.75C25.5055 132.936 25.6552 131.766 26.4634 131.138C27.2716 130.509 28.4322 130.66 29.0557 131.475Z" fill="#D5B678"/>
<path d="M110.129 116.475C109.505 117.29 109.655 118.459 110.463 119.088C111.272 119.716 112.432 119.565 113.056 118.75C113.679 117.936 113.529 116.766 112.721 116.138C111.913 115.509 110.752 115.66 110.129 116.475Z" fill="#D5B678"/>
<path d="M27.1289 222.475C26.5054 223.29 26.6551 224.459 27.4633 225.088C28.2715 225.716 29.4321 225.565 30.0556 224.75C30.6791 223.936 30.5294 222.766 29.7212 222.138C28.913 221.509 27.7524 221.66 27.1289 222.475Z" fill="#D5B678"/>
<path d="M36.1289 322.475C35.5054 323.29 35.6551 324.459 36.4633 325.088C37.2715 325.716 38.4321 325.565 39.0556 324.75C39.6791 323.936 39.5294 322.766 38.7212 322.138C37.913 321.509 36.7524 321.66 36.1289 322.475Z" fill="#D5B678"/>
<path d="M25.1289 480.475C24.5054 481.29 24.6551 482.459 25.4633 483.088C26.2715 483.716 27.4321 483.565 28.0556 482.75C28.6791 481.936 28.5294 480.766 27.7212 480.138C26.913 479.509 25.7524 479.66 25.1289 480.475Z" fill="#D5B678"/>
<path d="M52.1289 556.475C51.5054 557.29 51.6551 558.459 52.4633 559.088C53.2715 559.716 54.4321 559.565 55.0556 558.75C55.6791 557.936 55.5294 556.766 54.7212 556.138C53.913 555.509 52.7524 555.66 52.1289 556.475Z" fill="#D5B678"/>
<path d="M24.1289 630.475C23.5054 631.29 23.6551 632.459 24.4633 633.088C25.2715 633.716 26.4321 633.565 27.0556 632.75C27.6791 631.936 27.5294 630.766 26.7212 630.138C25.913 629.509 24.7524 629.66 24.1289 630.475Z" fill="#D5B678"/>
<path d="M40.1289 703.475C39.5054 704.29 39.6551 705.459 40.4633 706.088C41.2715 706.716 42.4321 706.565 43.0556 705.75C43.6791 704.936 43.5294 703.766 42.7212 703.138C41.913 702.509 40.7524 702.66 40.1289 703.475Z" fill="#D5B678"/>
<path d="M16.1289 825.475C15.5054 826.29 15.6551 827.459 16.4633 828.088C17.2715 828.716 18.4321 828.565 19.0556 827.75C19.6791 826.936 19.5294 825.766 18.7212 825.138C17.913 824.509 16.7524 824.66 16.1289 825.475Z" fill="#D5B678"/>
<path d="M30.1289 844.475C29.5054 845.29 29.6551 846.459 30.4633 847.088C31.2715 847.716 32.4321 847.565 33.0556 846.75C33.6791 845.936 33.5294 844.766 32.7212 844.138C31.913 843.509 30.7524 843.66 30.1289 844.475Z" fill="#D5B678"/>
<path d="M30.1289 844.475C29.5054 845.29 29.6551 846.459 30.4633 847.088C31.2715 847.716 32.4321 847.565 33.0556 846.75C33.6791 845.936 33.5294 844.766 32.7212 844.138C31.913 843.509 30.7524 843.66 30.1289 844.475Z" fill="#D5B678"/>
<path d="M162.129 844.475C161.505 845.29 161.655 846.459 162.463 847.088C163.272 847.716 164.432 847.565 165.056 846.75C165.679 845.936 165.529 844.766 164.721 844.138C163.913 843.509 162.752 843.66 162.129 844.475Z" fill="#D5B678"/>
<path d="M162.129 844.475C161.505 845.29 161.655 846.459 162.463 847.088C163.272 847.716 164.432 847.565 165.056 846.75C165.679 845.936 165.529 844.766 164.721 844.138C163.913 843.509 162.752 843.66 162.129 844.475Z" fill="#D5B678"/>
<path d="M113.129 876.475C112.505 877.29 112.655 878.459 113.463 879.088C114.272 879.716 115.432 879.565 116.056 878.75C116.679 877.936 116.529 876.766 115.721 876.138C114.913 875.509 113.752 875.66 113.129 876.475Z" fill="#D5B678"/>
<path d="M113.129 876.475C112.505 877.29 112.655 878.459 113.463 879.088C114.272 879.716 115.432 879.565 116.056 878.75C116.679 877.936 116.529 876.766 115.721 876.138C114.913 875.509 113.752 875.66 113.129 876.475Z" fill="#D5B678"/>
<path d="M378.129 881.475C377.505 882.29 377.655 883.459 378.463 884.088C379.272 884.716 380.432 884.565 381.056 883.75C381.679 882.936 381.529 881.766 380.721 881.138C379.913 880.509 378.752 880.66 378.129 881.475Z" fill="#D5B678"/>
<path d="M378.129 881.475C377.505 882.29 377.655 883.459 378.463 884.088C379.272 884.716 380.432 884.565 381.056 883.75C381.679 882.936 381.529 881.766 380.721 881.138C379.913 880.509 378.752 880.66 378.129 881.475Z" fill="#D5B678"/>
<path d="M612.129 847.475C611.505 848.29 611.655 849.459 612.463 850.088C613.272 850.716 614.432 850.565 615.056 849.75C615.679 848.936 615.529 847.766 614.721 847.138C613.913 846.509 612.752 846.66 612.129 847.475Z" fill="#D5B678"/>
<path d="M612.129 847.475C611.505 848.29 611.655 849.459 612.463 850.088C613.272 850.716 614.432 850.565 615.056 849.75C615.679 848.936 615.529 847.766 614.721 847.138C613.913 846.509 612.752 846.66 612.129 847.475Z" fill="#D5B678"/>
<path d="M928.129 871.475C927.505 872.29 927.655 873.459 928.463 874.088C929.272 874.716 930.432 874.565 931.056 873.75C931.679 872.936 931.529 871.766 930.721 871.138C929.913 870.509 928.752 870.66 928.129 871.475Z" fill="#D5B678"/>
<path d="M928.129 871.475C927.505 872.29 927.655 873.459 928.463 874.088C929.272 874.716 930.432 874.565 931.056 873.75C931.679 872.936 931.529 871.766 930.721 871.138C929.913 870.509 928.752 870.66 928.129 871.475Z" fill="#D5B678"/>
<path d="M1274.13 825.475C1273.51 826.29 1273.66 827.459 1274.46 828.088C1275.27 828.716 1276.43 828.565 1277.06 827.75C1277.68 826.936 1277.53 825.766 1276.72 825.138C1275.91 824.509 1274.75 824.66 1274.13 825.475Z" fill="#D5B678"/>
<path d="M1274.13 825.475C1273.51 826.29 1273.66 827.459 1274.46 828.088C1275.27 828.716 1276.43 828.565 1277.06 827.75C1277.68 826.936 1277.53 825.766 1276.72 825.138C1275.91 824.509 1274.75 824.66 1274.13 825.475Z" fill="#D5B678"/>
<path d="M76.4022 104L75.3863 114.469L65 115.493L75.3863 116.517L76.4022 126.985L77.4181 116.517L87.8044 115.493L77.4181 114.469L76.4022 104Z" fill="#D5B678"/>
<ellipse cx="2.96588" cy="2.97204" rx="2.96588" ry="2.97204" transform="matrix(-0.789456 -0.613807 -0.607778 0.794107 62.1847 153.641)" fill="#D5B678"/>
<ellipse cx="2.96588" cy="2.97204" rx="2.96588" ry="2.97204" transform="matrix(-0.789456 -0.613807 -0.607778 0.794107 54.2955 291.641)" fill="#D5B678"/>
<ellipse cx="2.96588" cy="2.97204" rx="2.96588" ry="2.97204" transform="matrix(-0.789456 -0.613807 -0.607778 0.794107 44.2955 394.641)" fill="#D5B678"/>
<path d="M66.1289 188.475C65.5054 189.29 65.6552 190.459 66.4634 191.088C67.2716 191.716 68.4322 191.565 69.0557 190.75C69.6792 189.936 69.5295 188.766 68.7213 188.138C67.9131 187.509 66.7525 187.66 66.1289 188.475Z" fill="#D5B678"/>
<path d="M21.1289 116.475C20.5054 117.29 20.6552 118.459 21.4634 119.088C22.2716 119.716 23.4322 119.565 24.0557 118.75C24.6792 117.936 24.5295 116.766 23.7213 116.138C22.9131 115.509 21.7525 115.66 21.1289 116.475Z" fill="#D5B678"/>
<path d="M1378.93 163.887C1378.31 164.702 1378.46 165.871 1379.27 166.5C1380.07 167.128 1381.24 166.977 1381.86 166.163C1382.48 165.348 1382.33 164.178 1381.52 163.55C1380.72 162.921 1379.56 163.072 1378.93 163.887Z" fill="#D5B678"/>
<path d="M1320.13 242.475C1319.51 243.29 1319.66 244.459 1320.46 245.088C1321.27 245.716 1322.43 245.565 1323.06 244.75C1323.68 243.936 1323.53 242.766 1322.72 242.138C1321.91 241.509 1320.75 241.66 1320.13 242.475Z" fill="#D5B678"/>
<path d="M1359.13 316.475C1358.51 317.29 1358.66 318.459 1359.46 319.088C1360.27 319.716 1361.43 319.565 1362.06 318.75C1362.68 317.936 1362.53 316.766 1361.72 316.138C1360.91 315.509 1359.75 315.66 1359.13 316.475Z" fill="#D5B678"/>
<path d="M1356.13 368.475C1355.51 369.29 1355.66 370.459 1356.46 371.088C1357.27 371.716 1358.43 371.565 1359.06 370.75C1359.68 369.936 1359.53 368.766 1358.72 368.138C1357.91 367.509 1356.75 367.66 1356.13 368.475Z" fill="#D5B678"/>
<path d="M1402.13 484.475C1401.51 485.29 1401.66 486.459 1402.46 487.088C1403.27 487.716 1404.43 487.565 1405.06 486.75C1405.68 485.936 1405.53 484.766 1404.72 484.138C1403.91 483.509 1402.75 483.66 1402.13 484.475Z" fill="#D5B678"/>
<path d="M1345.13 570.475C1344.51 571.29 1344.66 572.459 1345.46 573.088C1346.27 573.716 1347.43 573.565 1348.06 572.75C1348.68 571.936 1348.53 570.766 1347.72 570.138C1346.91 569.509 1345.75 569.66 1345.13 570.475Z" fill="#D5B678"/>
<path d="M1215.13 247.475C1214.51 248.29 1214.66 249.459 1215.46 250.088C1216.27 250.716 1217.43 250.565 1218.06 249.75C1218.68 248.936 1218.53 247.766 1217.72 247.138C1216.91 246.509 1215.75 246.66 1215.13 247.475Z" fill="#D5B678"/>
<path d="M1384.13 697.475C1383.51 698.29 1383.66 699.459 1384.46 700.088C1385.27 700.716 1386.43 700.565 1387.06 699.75C1387.68 698.936 1387.53 697.766 1386.72 697.138C1385.91 696.509 1384.75 696.66 1384.13 697.475Z" fill="#D5B678"/>
<path d="M1415.13 750.475C1414.51 751.29 1414.66 752.459 1415.46 753.088C1416.27 753.716 1417.43 753.565 1418.06 752.75C1418.68 751.936 1418.53 750.766 1417.72 750.138C1416.91 749.509 1415.75 749.66 1415.13 750.475Z" fill="#D5B678"/>
<path d="M1366.13 617.475C1365.51 618.29 1365.66 619.459 1366.46 620.088C1367.27 620.716 1368.43 620.565 1369.06 619.75C1369.68 618.936 1369.53 617.766 1368.72 617.138C1367.91 616.509 1366.75 616.66 1366.13 617.475Z" fill="#D5B678"/>
<path d="M1357.13 835.475C1356.51 836.29 1356.66 837.459 1357.46 838.088C1358.27 838.716 1359.43 838.565 1360.06 837.75C1360.68 836.936 1360.53 835.766 1359.72 835.138C1358.91 834.509 1357.75 834.66 1357.13 835.475Z" fill="#D5B678"/>
<path d="M1322.13 876.475C1321.51 877.29 1321.66 878.459 1322.46 879.088C1323.27 879.716 1324.43 879.565 1325.06 878.75C1325.68 877.936 1325.53 876.766 1324.72 876.138C1323.91 875.509 1322.75 875.66 1322.13 876.475Z" fill="#D5B678"/>
<path d="M1407.13 830.475C1406.51 831.29 1406.66 832.459 1407.46 833.088C1408.27 833.716 1409.43 833.565 1410.06 832.75C1410.68 831.936 1410.53 830.766 1409.72 830.138C1408.91 829.509 1407.75 829.66 1407.13 830.475Z" fill="#D5B678"/>
<path d="M1372.13 234.475C1371.51 235.29 1371.66 236.459 1372.46 237.088C1373.27 237.716 1374.43 237.565 1375.06 236.75C1375.68 235.936 1375.53 234.766 1374.72 234.138C1373.91 233.509 1372.75 233.66 1372.13 234.475Z" fill="#D5B678"/>
<path d="M1396.9 111.983C1396.28 112.797 1396.43 113.967 1397.24 114.596C1398.05 115.224 1399.21 115.073 1399.83 114.258C1400.46 113.444 1400.31 112.274 1399.5 111.645C1398.69 111.017 1397.53 111.168 1396.9 111.983Z" fill="#D5B678"/>
<ellipse cx="2.96588" cy="2.97204" rx="2.96588" ry="2.97204" transform="matrix(-0.789456 -0.613807 -0.607778 0.794107 1343.3 129.051)" fill="#D5B678"/>
<ellipse cx="2.96588" cy="2.97204" rx="2.96588" ry="2.97204" transform="matrix(-0.789456 -0.613807 -0.607778 0.794107 1343.3 129.051)" fill="#D5B678"/>
<ellipse cx="2.96588" cy="2.97204" rx="2.96588" ry="2.97204" transform="matrix(-0.789456 -0.613807 -0.607778 0.794107 1419.3 304.641)" fill="#D5B678"/>
<ellipse cx="2.96588" cy="2.97204" rx="2.96588" ry="2.97204" transform="matrix(-0.789456 -0.613807 -0.607778 0.794107 1353.3 412.641)" fill="#D5B678"/>
<ellipse cx="2.96588" cy="2.97204" rx="2.96588" ry="2.97204" transform="matrix(-0.789456 -0.613807 -0.607778 0.794107 1412.3 661.641)" fill="#D5B678"/>
<ellipse cx="2.96588" cy="2.97204" rx="2.96588" ry="2.97204" transform="matrix(-0.789456 -0.613807 -0.607778 0.794107 1396.3 772.641)" fill="#D5B678"/>
<ellipse cx="2.96588" cy="2.97204" rx="2.96588" ry="2.97204" transform="matrix(-0.789456 -0.613807 -0.607778 0.794107 1384.3 865.641)" fill="#D5B678"/>
<ellipse cx="2.96588" cy="2.97204" rx="2.96588" ry="2.97204" transform="matrix(-0.789456 -0.613807 -0.607778 0.794107 1426.3 202.641)" fill="#D5B678"/>
<ellipse cx="2.96588" cy="2.97204" rx="2.96588" ry="2.97204" transform="matrix(-0.789456 -0.613807 -0.607778 0.794107 1292.3 353.641)" fill="#D5B678"/>
<path d="M1378.4 76L1377.39 86.4688L1367 87.4927L1377.39 88.5167L1378.4 98.9854L1379.42 88.5167L1389.8 87.4927L1379.42 86.4688L1378.4 76Z" fill="#D5B678"/>
<path d="M1401.4 254L1400.39 264.469L1390 265.493L1400.39 266.517L1401.4 276.985L1402.42 266.517L1412.8 265.493L1402.42 264.469L1401.4 254Z" fill="#D5B678"/>
<path d="M1399.4 386L1398.39 396.469L1388 397.493L1398.39 398.517L1399.4 408.985L1400.42 398.517L1410.8 397.493L1400.42 396.469L1399.4 386Z" fill="#D5B678"/>
</g>
<defs>
<clipPath id="clip0_622_2374">
<rect width="1440" height="900" fill="white"/>
</clipPath>
</defs>
</svg>
