<svg width="1440" height="900" viewBox="0 0 1440 900" fill="none" xmlns="http://www.w3.org/2000/svg">
<g clip-path="url(#clip0_622_2391)">
<ellipse cx="2.96588" cy="2.97204" rx="2.96588" ry="2.97204" transform="matrix(-0.789456 -0.613807 -0.607778 0.794107 1381.88 87.2285)" fill="#D5B678"/>
<path d="M1357.37 18.5879L1354.79 30.8972L1342.58 33.4892L1354.79 36.0813L1357.37 48.3906L1359.94 36.0813L1372.15 33.4892L1359.94 30.8972L1357.37 18.5879Z" fill="#D5B678"/>
<path d="M1316.71 90.0627C1316.09 90.8774 1316.24 92.0472 1317.05 92.6756C1317.85 93.304 1319.01 93.153 1319.64 92.3384C1320.26 91.5237 1320.11 90.3539 1319.3 89.7255C1318.5 89.0971 1317.33 89.2481 1316.71 90.0627Z" fill="#D5B678"/>
<path d="M1402.71 54.0627C1402.09 54.8774 1402.24 56.0472 1403.05 56.6756C1403.85 57.304 1405.01 57.153 1405.64 56.3384C1406.26 55.5237 1406.11 54.3539 1405.3 53.7255C1404.5 53.0971 1403.33 53.2481 1402.71 54.0627Z" fill="#D5B678"/>
<path d="M1374.71 158.063C1374.09 158.877 1374.24 160.047 1375.05 160.676C1375.85 161.304 1377.01 161.153 1377.64 160.338C1378.26 159.524 1378.11 158.354 1377.3 157.725C1376.5 157.097 1375.33 157.248 1374.71 158.063Z" fill="#D5B678"/>
<path d="M1241.4 10.5879L1240.38 21.0566L1229.99 22.0806L1240.38 23.1045L1241.4 33.5733L1242.41 23.1045L1252.8 22.0806L1242.41 21.0566L1241.4 10.5879Z" fill="#D5B678"/>
<path d="M1259.9 46.5705C1259.28 47.3852 1259.43 48.5551 1260.23 49.1835C1261.04 49.8119 1262.2 49.6609 1262.83 48.8462C1263.45 48.0315 1263.3 46.8617 1262.49 46.2333C1261.68 45.6049 1260.52 45.7559 1259.9 46.5705Z" fill="#D5B678"/>
<ellipse cx="2.96588" cy="2.97204" rx="2.96588" ry="2.97204" transform="matrix(-0.789456 -0.613807 -0.607778 0.794107 1206.3 63.6387)" fill="#D5B678"/>
<ellipse cx="2.96588" cy="2.97204" rx="2.96588" ry="2.97204" transform="matrix(-0.789456 -0.613807 -0.607778 0.794107 1206.3 63.6387)" fill="#D5B678"/>
<path d="M1228.64 169.063C1229.26 169.877 1229.11 171.047 1228.3 171.676C1227.5 172.304 1226.33 172.153 1225.71 171.338C1225.09 170.524 1225.24 169.354 1226.05 168.725C1226.85 168.097 1228.01 168.248 1228.64 169.063Z" fill="#D5B678"/>
<path d="M1341.64 9.06276C1342.26 9.87742 1342.11 11.0472 1341.3 11.6756C1340.5 12.304 1339.33 12.153 1338.71 11.3384C1338.09 10.5237 1338.24 9.35387 1339.05 8.72548C1339.85 8.09709 1341.01 8.2481 1341.64 9.06276Z" fill="#D5B678"/>
<ellipse cx="2.96588" cy="2.97204" rx="2.96588" ry="2.97204" transform="matrix(0.789456 -0.613807 0.607778 0.794107 1371.75 379.679)" fill="#D5B678"/>
<ellipse cx="2.96588" cy="2.97204" rx="2.96588" ry="2.97204" transform="matrix(0.789456 -0.613807 0.607778 0.794107 1361.58 220.229)" fill="#D5B678"/>
<path d="M1342.54 389.6C1343.16 390.415 1343.01 391.584 1342.21 392.213C1341.4 392.841 1340.24 392.69 1339.61 391.875C1338.99 391.061 1339.14 389.891 1339.95 389.263C1340.76 388.634 1341.92 388.785 1342.54 389.6Z" fill="#D5B678"/>
<path d="M1218.56 412.063C1219.18 412.877 1219.03 414.047 1218.22 414.676C1217.41 415.304 1216.25 415.153 1215.63 414.338C1215.01 413.524 1215.16 412.354 1215.96 411.725C1216.77 411.097 1217.93 411.248 1218.56 412.063Z" fill="#D5B678"/>
<ellipse cx="2.96588" cy="2.97204" rx="2.96588" ry="2.97204" transform="matrix(0.789456 -0.613807 0.607778 0.794107 1353.39 457.229)" fill="#D5B678"/>
<path d="M1291.56 458.063C1292.18 458.877 1292.03 460.047 1291.22 460.676C1290.41 461.304 1289.25 461.153 1288.63 460.338C1288.01 459.524 1288.16 458.354 1288.96 457.725C1289.77 457.097 1290.93 457.248 1291.56 458.063Z" fill="#D5B678"/>
<path d="M1365.64 409.063C1366.26 409.877 1366.11 411.047 1365.3 411.676C1364.5 412.304 1363.33 412.153 1362.71 411.338C1362.09 410.524 1362.24 409.354 1363.05 408.725C1363.85 408.097 1365.01 408.248 1365.64 409.063Z" fill="#D5B678"/>
<path d="M1402.64 304.063C1403.26 304.877 1403.11 306.047 1402.3 306.676C1401.5 307.304 1400.33 307.153 1399.71 306.338C1399.09 305.524 1399.24 304.354 1400.05 303.725C1400.85 303.097 1402.01 303.248 1402.64 304.063Z" fill="#D5B678"/>
<path d="M1343.64 239.063C1344.26 239.877 1344.11 241.047 1343.3 241.676C1342.5 242.304 1341.33 242.153 1340.71 241.338C1340.09 240.524 1340.24 239.354 1341.05 238.725C1341.85 238.097 1343.01 238.248 1343.64 239.063Z" fill="#D5B678"/>
<path d="M1323.7 488.544L1326.27 500.853L1338.48 503.445L1326.27 506.037L1323.7 518.347L1321.13 506.037L1308.91 503.445L1321.13 500.853L1323.7 488.544Z" fill="#D5B678"/>
<path d="M1267.56 496.063C1268.18 496.877 1268.03 498.047 1267.22 498.676C1266.41 499.304 1265.25 499.153 1264.63 498.338C1264.01 497.524 1264.16 496.354 1264.97 495.725C1265.77 495.097 1266.93 495.248 1267.56 496.063Z" fill="#D5B678"/>
<ellipse cx="2.96588" cy="2.97204" rx="2.96588" ry="2.97204" transform="matrix(0.789456 -0.613807 0.607778 0.794107 1376.39 502.229)" fill="#D5B678"/>
<path d="M1320.14 503.439L1322.6 502.342L1323.69 499.858L1324.8 502.342L1327.25 503.439L1324.8 504.549L1323.69 507.021L1322.6 504.549L1320.14 503.439Z" fill="#D5B678"/>
<path d="M1365.64 664.063C1366.26 664.877 1366.11 666.047 1365.3 666.676C1364.5 667.304 1363.33 667.153 1362.71 666.338C1362.09 665.524 1362.24 664.354 1363.05 663.725C1363.85 663.097 1365.01 663.248 1365.64 664.063Z" fill="#D5B678"/>
<ellipse cx="2.96588" cy="2.97204" rx="2.96588" ry="2.97204" transform="matrix(0.789456 -0.613807 0.607778 0.794107 1300.03 543.542)" fill="#D5B678"/>
<path d="M1243.75 554.475C1244.38 555.29 1244.23 556.459 1243.42 557.088C1242.61 557.716 1241.45 557.565 1240.83 556.75C1240.2 555.936 1240.35 554.766 1241.16 554.138C1241.97 553.509 1243.13 553.66 1243.75 554.475Z" fill="#D5B678"/>
<path d="M1342.48 553.313L1343.5 563.782L1353.88 564.806L1343.5 565.83L1342.48 576.299L1341.46 565.83L1331.08 564.806L1341.46 563.782L1342.48 553.313Z" fill="#D5B678"/>
<path d="M1397.98 415.588L1399 426.057L1409.39 427.081L1399 428.105L1397.98 438.573L1396.97 428.105L1386.58 427.081L1396.97 426.057L1397.98 415.588Z" fill="#D5B678"/>
<path d="M1267.28 586.588L1268.3 597.057L1278.69 598.081L1268.3 599.105L1267.28 609.573L1266.27 599.105L1255.88 598.081L1266.27 597.057L1267.28 586.588Z" fill="#D5B678"/>
<path d="M1316.79 605.434C1317.41 606.249 1317.26 607.418 1316.46 608.047C1315.65 608.675 1314.49 608.524 1313.86 607.709C1313.24 606.895 1313.39 605.725 1314.2 605.097C1315.01 604.468 1316.17 604.619 1316.79 605.434Z" fill="#D5B678"/>
<path d="M1248.78 622.571C1249.4 623.385 1249.26 624.555 1248.45 625.183C1247.64 625.812 1246.48 625.661 1245.85 624.846C1245.23 624.032 1245.38 622.862 1246.19 622.233C1247 621.605 1248.16 621.756 1248.78 622.571Z" fill="#D5B678"/>
<path d="M1390.56 628.063C1391.18 628.877 1391.03 630.047 1390.22 630.676C1389.41 631.304 1388.25 631.153 1387.63 630.338C1387.01 629.524 1387.16 628.354 1387.96 627.725C1388.77 627.097 1389.93 627.248 1390.56 628.063Z" fill="#D5B678"/>
<ellipse cx="2.96588" cy="2.97204" rx="2.96588" ry="2.97204" transform="matrix(0.789456 -0.613807 0.607778 0.794107 1302.39 639.639)" fill="#D5B678"/>
<ellipse cx="2.96588" cy="2.97204" rx="2.96588" ry="2.97204" transform="matrix(0.789456 -0.613807 0.607778 0.794107 1302.39 639.639)" fill="#D5B678"/>
<path d="M1266.75 674.475C1267.38 675.29 1267.23 676.459 1266.42 677.088C1265.61 677.716 1264.45 677.565 1263.83 676.75C1263.2 675.936 1263.35 674.766 1264.16 674.138C1264.97 673.509 1266.13 673.66 1266.75 674.475Z" fill="#D5B678"/>
<path d="M1288.13 4.47487C1287.51 5.28953 1287.66 6.45935 1288.46 7.08774C1289.27 7.71613 1290.43 7.56512 1291.06 6.75046C1291.68 5.9358 1291.53 4.76598 1290.72 4.13759C1289.91 3.5092 1288.75 3.66021 1288.13 4.47487Z" fill="#D5B678"/>
<path d="M1405.06 699.475C1405.68 700.29 1405.53 701.459 1404.72 702.088C1403.91 702.716 1402.75 702.565 1402.13 701.75C1401.51 700.936 1401.66 699.766 1402.46 699.138C1403.27 698.509 1404.43 698.66 1405.06 699.475Z" fill="#D5B678"/>
<path d="M1312.06 716.475C1312.68 717.29 1312.53 718.459 1311.72 719.088C1310.91 719.716 1309.75 719.565 1309.13 718.75C1308.51 717.936 1308.66 716.766 1309.46 716.138C1310.27 715.509 1311.43 715.66 1312.06 716.475Z" fill="#D5B678"/>
<path d="M1369.93 782.887C1369.31 783.702 1369.46 784.871 1370.27 785.5C1371.07 786.128 1372.24 785.977 1372.86 785.163C1373.48 784.348 1373.33 783.178 1372.52 782.55C1371.72 781.921 1370.56 782.072 1369.93 782.887Z" fill="#D5B678"/>
<path d="M1311.13 861.475C1310.51 862.29 1310.66 863.459 1311.46 864.088C1312.27 864.716 1313.43 864.565 1314.06 863.75C1314.68 862.936 1314.53 861.766 1313.72 861.138C1312.91 860.509 1311.75 860.66 1311.13 861.475Z" fill="#D5B678"/>
<path d="M1363.13 853.475C1362.51 854.29 1362.66 855.459 1363.46 856.088C1364.27 856.716 1365.43 856.565 1366.06 855.75C1366.68 854.936 1366.53 853.766 1365.72 853.138C1364.91 852.509 1363.75 852.66 1363.13 853.475Z" fill="#D5B678"/>
<path d="M1387.9 730.983C1387.28 731.797 1387.43 732.967 1388.24 733.596C1389.05 734.224 1390.21 734.073 1390.83 733.258C1391.46 732.444 1391.31 731.274 1390.5 730.645C1389.69 730.017 1388.53 730.168 1387.9 730.983Z" fill="#D5B678"/>
<ellipse cx="2.96588" cy="2.97204" rx="2.96588" ry="2.97204" transform="matrix(-0.789456 -0.613807 -0.607778 0.794107 1334.3 748.051)" fill="#D5B678"/>
<ellipse cx="2.96588" cy="2.97204" rx="2.96588" ry="2.97204" transform="matrix(-0.789456 -0.613807 -0.607778 0.794107 1334.3 748.051)" fill="#D5B678"/>
<ellipse cx="2.96588" cy="2.97204" rx="2.96588" ry="2.97204" transform="matrix(-0.789456 -0.613807 -0.607778 0.794107 1417.3 821.641)" fill="#D5B678"/>
<path d="M1369.4 695L1368.39 705.469L1358 706.493L1368.39 707.517L1369.4 717.985L1370.42 707.517L1380.8 706.493L1370.42 705.469L1369.4 695Z" fill="#D5B678"/>
<path d="M1392.4 873L1391.39 883.469L1381 884.493L1391.39 885.517L1392.4 895.985L1393.42 885.517L1403.8 884.493L1393.42 883.469L1392.4 873Z" fill="#D5B678"/>
<ellipse cx="2.96588" cy="2.97204" rx="2.96588" ry="2.97204" transform="matrix(-0.789456 -0.613807 -0.607778 0.794107 59.5465 23.6406)" fill="#D5B678"/>
<path d="M88.7559 33.5618C88.1324 34.3764 88.2821 35.5463 89.0903 36.1747C89.8985 36.803 91.0592 36.652 91.6827 35.8374C92.3062 35.0227 92.1565 33.8529 91.3483 33.2245C90.54 32.5961 89.3794 32.7471 88.7559 33.5618Z" fill="#D5B678"/>
<path d="M212.738 56.0247C212.115 56.8393 212.264 58.0092 213.073 58.6375C213.881 59.2659 215.041 59.1149 215.665 58.3003C216.288 57.4856 216.139 56.3158 215.331 55.6874C214.522 55.059 213.362 55.21 212.738 56.0247Z" fill="#D5B678"/>
<path d="M65.6575 53.0247C65.034 53.8393 65.1837 55.0092 65.9919 55.6375C66.8001 56.2659 67.9608 56.1149 68.5843 55.3003C69.2078 54.4856 69.0581 53.3158 68.2499 52.6874C67.4417 52.059 66.281 52.21 65.6575 53.0247Z" fill="#D5B678"/>
<path d="M73.6576 278.475C73.0341 279.29 73.1838 280.459 73.992 281.088C74.8002 281.716 75.9608 281.565 76.5843 280.75C77.2078 279.936 77.0581 278.766 76.2499 278.138C75.4417 277.509 74.2811 277.66 73.6576 278.475Z" fill="#D5B678"/>
<path d="M33.311 59.5498L32.2952 70.0186L21.9088 71.0425L32.2952 72.0665L33.311 82.5352L34.3269 72.0665L44.7133 71.0425L34.3269 70.0186L33.311 59.5498Z" fill="#D5B678"/>
<path d="M122.505 219.846C121.882 220.661 122.031 221.83 122.84 222.459C123.648 223.087 124.808 222.936 125.432 222.122C126.055 221.307 125.906 220.137 125.098 219.509C124.289 218.88 123.129 219.031 122.505 219.846Z" fill="#D5B678"/>
<path d="M190.514 236.983C189.891 237.797 190.04 238.967 190.849 239.596C191.657 240.224 192.817 240.073 193.441 239.258C194.064 238.444 193.915 237.274 193.106 236.645C192.298 236.017 191.138 236.168 190.514 236.983Z" fill="#D5B678"/>
<path d="M48.7382 242.475C48.1147 243.29 48.2644 244.459 49.0726 245.088C49.8808 245.716 51.0415 245.565 51.665 244.75C52.2885 243.936 52.1388 242.766 51.3306 242.138C50.5223 241.509 49.3617 241.66 48.7382 242.475Z" fill="#D5B678"/>
<path d="M63.1289 114.475C62.5054 115.29 62.6552 116.459 63.4634 117.088C64.2716 117.716 65.4322 117.565 66.0557 116.75C66.6792 115.936 66.5295 114.766 65.7213 114.138C64.9131 113.509 63.7525 113.66 63.1289 114.475Z" fill="#D5B678"/>
<path d="M146.129 84.4749C145.505 85.2895 145.655 86.4593 146.463 87.0877C147.272 87.7161 148.432 87.5651 149.056 86.7505C149.679 85.9358 149.53 84.766 148.721 84.1376C147.913 83.5092 146.752 83.6602 146.129 84.4749Z" fill="#D5B678"/>
<path d="M27.1289 172.475C26.5054 173.29 26.6552 174.459 27.4634 175.088C28.2716 175.716 29.4322 175.565 30.0557 174.75C30.6792 173.936 30.5295 172.766 29.7213 172.138C28.9131 171.509 27.7525 171.66 27.1289 172.475Z" fill="#D5B678"/>
<ellipse cx="2.96588" cy="2.97204" rx="2.96588" ry="2.97204" transform="matrix(-0.789456 -0.613807 -0.607778 0.794107 136.91 254.051)" fill="#D5B678"/>
<path d="M172.542 288.887C171.918 289.702 172.068 290.871 172.876 291.5C173.684 292.128 174.845 291.977 175.468 291.163C176.092 290.348 175.942 289.178 175.134 288.55C174.326 287.921 173.165 288.072 172.542 288.887Z" fill="#D5B678"/>
<path d="M34.2398 313.887C33.6163 314.702 33.766 315.871 34.5742 316.5C35.3824 317.128 36.5431 316.977 37.1666 316.163C37.7901 315.348 37.6403 314.178 36.8321 313.55C36.0239 312.921 34.8633 313.072 34.2398 313.887Z" fill="#D5B678"/>
<path d="M127.24 330.887C126.616 331.702 126.766 332.871 127.574 333.5C128.382 334.128 129.543 333.977 130.167 333.163C130.79 332.348 130.64 331.178 129.832 330.55C129.024 329.921 127.863 330.072 127.24 330.887Z" fill="#D5B678"/>
<path d="M69.3632 397.299C69.9868 398.114 69.837 399.284 69.0288 399.912C68.2206 400.54 67.06 400.389 66.4365 399.575C65.8129 398.76 65.9627 397.59 66.7709 396.962C67.5791 396.333 68.7397 396.484 69.3632 397.299Z" fill="#D5B678"/>
<path d="M128.167 475.887C128.79 476.702 128.64 477.871 127.832 478.5C127.024 479.128 125.863 478.977 125.24 478.163C124.616 477.348 124.766 476.178 125.574 475.55C126.382 474.921 127.543 475.072 128.167 475.887Z" fill="#D5B678"/>
<path d="M76.1666 467.887C76.7901 468.702 76.6404 469.871 75.8322 470.5C75.0239 471.128 73.8633 470.977 73.2398 470.163C72.6163 469.348 72.766 468.178 73.5742 467.55C74.3824 466.921 75.5431 467.072 76.1666 467.887Z" fill="#D5B678"/>
<path d="M51.3907 345.395C52.0141 346.209 51.8644 347.379 51.0562 348.008C50.248 348.636 49.0874 348.485 48.4639 347.67C47.8404 346.856 47.9901 345.686 48.7983 345.057C49.6065 344.429 50.7672 344.58 51.3907 345.395Z" fill="#D5B678"/>
<ellipse cx="2.96588" cy="2.97204" rx="2.96588" ry="2.97204" transform="matrix(0.789456 -0.613807 0.607778 0.794107 22 436.053)" fill="#D5B678"/>
<path d="M69.8933 309.412L70.9092 319.881L81.2955 320.905L70.9092 321.929L69.8933 332.398L68.8774 321.929L58.4911 320.905L68.8774 319.881L69.8933 309.412Z" fill="#D5B678"/>
<path d="M46.8933 487.412L47.9092 497.881L58.2955 498.905L47.9092 499.929L46.8933 510.398L45.8774 499.929L35.4911 498.905L45.8774 497.881L46.8933 487.412Z" fill="#D5B678"/>
<ellipse cx="2.96588" cy="2.97204" rx="2.96588" ry="2.97204" transform="matrix(-0.789456 -0.613807 -0.607778 0.794107 117.296 602.641)" fill="#D5B678"/>
<path d="M92.7841 534L90.2124 546.309L78.0001 548.901L90.2124 551.493L92.7841 563.803L95.3557 551.493L107.568 548.901L95.3557 546.309L92.7841 534Z" fill="#D5B678"/>
<path d="M52.1289 605.475C51.5054 606.29 51.6551 607.459 52.4633 608.088C53.2715 608.716 54.4321 608.565 55.0556 607.75C55.6791 606.936 55.5294 605.766 54.7212 605.138C53.913 604.509 52.7524 604.66 52.1289 605.475Z" fill="#D5B678"/>
<path d="M138.129 569.475C137.505 570.29 137.655 571.459 138.463 572.088C139.272 572.716 140.432 572.565 141.056 571.75C141.679 570.936 141.529 569.766 140.721 569.138C139.913 568.509 138.752 568.66 138.129 569.475Z" fill="#D5B678"/>
<path d="M110.129 673.475C109.505 674.29 109.655 675.459 110.463 676.088C111.272 676.716 112.432 676.565 113.056 675.75C113.679 674.936 113.529 673.766 112.721 673.138C111.913 672.509 110.752 672.66 110.129 673.475Z" fill="#D5B678"/>
<ellipse cx="2.96588" cy="2.97204" rx="2.96588" ry="2.97204" transform="matrix(0.789456 -0.613807 0.607778 0.794107 58.2651 841.091)" fill="#D5B678"/>
<ellipse cx="2.96588" cy="2.97204" rx="2.96588" ry="2.97204" transform="matrix(0.789456 -0.613807 0.607778 0.794107 48.0984 681.641)" fill="#D5B678"/>
<path d="M29.0557 851.012C29.6793 851.827 29.5295 852.996 28.7213 853.625C27.9131 854.253 26.7525 854.102 26.129 853.288C25.5055 852.473 25.6552 851.303 26.4634 850.675C27.2716 850.046 28.4322 850.197 29.0557 851.012Z" fill="#D5B678"/>
<path d="M115.056 866.475C115.679 867.29 115.53 868.459 114.721 869.088C113.913 869.716 112.752 869.565 112.129 868.75C111.505 867.936 111.655 866.766 112.463 866.138C113.272 865.509 114.432 865.66 115.056 866.475Z" fill="#D5B678"/>
<path d="M263.056 787.475C263.679 788.29 263.53 789.459 262.721 790.088C261.913 790.716 260.752 790.565 260.129 789.75C259.505 788.936 259.655 787.766 260.463 787.138C261.272 786.509 262.432 786.66 263.056 787.475Z" fill="#D5B678"/>
<path d="M560.056 839.475C560.679 840.29 560.53 841.459 559.721 842.088C558.913 842.716 557.752 842.565 557.129 841.75C556.505 840.936 556.655 839.766 557.463 839.138C558.272 838.509 559.432 838.66 560.056 839.475Z" fill="#D5B678"/>
<path d="M993.056 841.475C993.679 842.29 993.53 843.459 992.721 844.088C991.913 844.716 990.752 844.565 990.129 843.75C989.505 842.936 989.655 841.766 990.463 841.138C991.272 840.509 992.432 840.66 993.056 841.475Z" fill="#D5B678"/>
<path d="M1218.06 714.475C1218.68 715.29 1218.53 716.459 1217.72 717.088C1216.91 717.716 1215.75 717.565 1215.13 716.75C1214.51 715.936 1214.66 714.766 1215.46 714.138C1216.27 713.509 1217.43 713.66 1218.06 714.475Z" fill="#D5B678"/>
<path d="M1173.06 659.475C1173.68 660.29 1173.53 661.459 1172.72 662.088C1171.91 662.716 1170.75 662.565 1170.13 661.75C1169.51 660.936 1169.66 659.766 1170.46 659.138C1171.27 658.509 1172.43 658.66 1173.06 659.475Z" fill="#D5B678"/>
<path d="M1122.06 736.475C1122.68 737.29 1122.53 738.459 1121.72 739.088C1120.91 739.716 1119.75 739.565 1119.13 738.75C1118.51 737.936 1118.66 736.766 1119.46 736.138C1120.27 735.509 1121.43 735.66 1122.06 736.475Z" fill="#D5B678"/>
<path d="M1154.06 802.475C1154.68 803.29 1154.53 804.459 1153.72 805.088C1152.91 805.716 1151.75 805.565 1151.13 804.75C1150.51 803.936 1150.66 802.766 1151.46 802.138C1152.27 801.509 1153.43 801.66 1154.06 802.475Z" fill="#D5B678"/>
<path d="M1283.06 802.475C1283.68 803.29 1283.53 804.459 1282.72 805.088C1281.91 805.716 1280.75 805.565 1280.13 804.75C1279.51 803.936 1279.66 802.766 1280.46 802.138C1281.27 801.509 1282.43 801.66 1283.06 802.475Z" fill="#D5B678"/>
<path d="M1171.06 292.475C1171.68 293.29 1171.53 294.459 1170.72 295.088C1169.91 295.716 1168.75 295.565 1168.13 294.75C1167.51 293.936 1167.66 292.766 1168.46 292.138C1169.27 291.509 1170.43 291.66 1171.06 292.475Z" fill="#D5B678"/>
<path d="M799.056 79.4749C799.679 80.2895 799.53 81.4593 798.721 82.0877C797.913 82.7161 796.752 82.5651 796.129 81.7505C795.505 80.9358 795.655 79.766 796.463 79.1376C797.272 78.5092 798.432 78.6602 799.056 79.4749Z" fill="#D5B678"/>
<path d="M543.056 137.475C543.679 138.29 543.53 139.459 542.721 140.088C541.913 140.716 540.752 140.565 540.129 139.75C539.505 138.936 539.655 137.766 540.463 137.138C541.272 136.509 542.432 136.66 543.056 137.475Z" fill="#D5B678"/>
<path d="M1082.06 171.475C1082.68 172.29 1082.53 173.459 1081.72 174.088C1080.91 174.716 1079.75 174.565 1079.13 173.75C1078.51 172.936 1078.66 171.766 1079.46 171.138C1080.27 170.509 1081.43 170.66 1082.06 171.475Z" fill="#D5B678"/>
<path d="M521.056 18.4749C521.679 19.2895 521.53 20.4593 520.721 21.0877C519.913 21.7161 518.752 21.5651 518.129 20.7505C517.505 19.9358 517.655 18.766 518.463 18.1376C519.272 17.5092 520.432 17.6602 521.056 18.4749Z" fill="#D5B678"/>
<path d="M1012.06 32.4749C1012.68 33.2895 1012.53 34.4593 1011.72 35.0877C1010.91 35.7161 1009.75 35.5651 1009.13 34.7505C1008.51 33.9358 1008.66 32.766 1009.46 32.1376C1010.27 31.5092 1011.43 31.6602 1012.06 32.4749Z" fill="#D5B678"/>
<path d="M89.1541 765.475C89.7776 766.29 89.6279 767.459 88.8197 768.088C88.0115 768.716 86.8509 768.565 86.2274 767.75C85.6038 766.936 85.7536 765.766 86.5618 765.138C87.37 764.509 88.5306 764.66 89.1541 765.475Z" fill="#D5B678"/>
<path d="M30.1541 700.475C30.7776 701.29 30.6279 702.459 29.8197 703.088C29.0115 703.716 27.8509 703.565 27.2274 702.75C26.6038 701.936 26.7536 700.766 27.5618 700.138C28.37 699.509 29.5306 699.66 30.1541 700.475Z" fill="#D5B678"/>
</g>
<defs>
<clipPath id="clip0_622_2391">
<rect width="1440" height="900" fill="white"/>
</clipPath>
</defs>
</svg>
