<svg width="1440" height="834" viewBox="0 0 1440 834" fill="none" xmlns="http://www.w3.org/2000/svg">
<path d="M959.34 197.04V198.3C957.94 198.3 956.94 198.6 956.34 199.2C955.78 199.8 955.5 200.94 955.5 202.62V222.42C955.5 224.1 955.76 225.24 956.28 225.84C956.8 226.44 957.7 226.74 958.98 226.74V228C958.3 227.96 957.28 227.92 955.92 227.88C954.56 227.8 953.18 227.76 951.78 227.76C950.34 227.76 948.88 227.8 947.4 227.88C945.92 227.92 944.82 227.96 944.1 228V226.74C945.5 226.74 946.48 226.44 947.04 225.84C947.64 225.24 947.94 224.1 947.94 222.42V201.78C947.94 200.46 947.68 199.56 947.16 199.08C946.68 198.56 945.8 198.3 944.52 198.3C942.8 198.3 941.48 198.64 940.56 199.32C939.68 199.96 939.08 200.8 938.76 201.84C938.44 202.88 938.28 204.02 938.28 205.26C938.28 207.9 938.88 209.84 940.08 211.08C941.32 212.28 943.44 212.9 946.44 212.94C947.28 212.98 948.14 213 949.02 213C949.9 212.96 950.74 212.94 951.54 212.94L951.66 214.2C949.86 214.2 948.24 214.22 946.8 214.26C945.4 214.26 944.2 214.26 943.2 214.26C940.6 214.26 938.46 214.04 936.78 213.6C935.14 213.12 933.86 212.46 932.94 211.62C932.06 210.78 931.44 209.86 931.08 208.86C930.72 207.86 930.54 206.82 930.54 205.74C930.54 204.02 930.94 202.52 931.74 201.24C932.54 199.92 933.9 198.9 935.82 198.18C937.74 197.42 940.32 197.04 943.56 197.04C944.84 197.04 946.14 197.08 947.46 197.16C948.78 197.24 950.22 197.28 951.78 197.28C953.14 197.28 954.56 197.26 956.04 197.22C957.52 197.14 958.62 197.08 959.34 197.04ZM946.5 213.66V214.2C945.5 214.28 944.52 214.42 943.56 214.62C942.6 214.82 941.76 215.26 941.04 215.94C940.44 216.54 939.96 217.28 939.6 218.16C939.24 219 938.92 219.92 938.64 220.92C938.4 221.92 938.08 222.96 937.68 224.04C937.16 225.52 936.34 226.58 935.22 227.22C934.1 227.86 932.4 228.18 930.12 228.18C929.6 228.18 929.02 228.16 928.38 228.12C927.74 228.08 927.06 228.04 926.34 228V226.74C927.42 226.62 928.22 226.46 928.74 226.26C929.3 226.02 929.72 225.68 930 225.24C930.28 224.76 930.56 224.14 930.84 223.38C931.4 221.86 931.86 220.64 932.22 219.72C932.58 218.8 932.94 218.08 933.3 217.56C933.66 217 934.1 216.52 934.62 216.12C935.02 215.76 935.5 215.44 936.06 215.16C936.66 214.84 937.4 214.56 938.28 214.32C939.2 214.08 940.32 213.9 941.64 213.78C943 213.66 944.62 213.62 946.5 213.66ZM976.284 196.14C978.244 196.14 979.964 196.42 981.444 196.98C982.924 197.54 984.084 198.34 984.924 199.38C985.804 200.42 986.244 201.7 986.244 203.22C986.244 204.98 985.684 206.42 984.564 207.54C983.484 208.62 982.104 209.48 980.424 210.12C978.784 210.72 977.104 211.16 975.384 211.44C977.904 211.48 980.104 211.8 981.984 212.4C983.864 212.96 985.324 213.82 986.364 214.98C987.404 216.1 987.924 217.56 987.924 219.36C987.924 221.28 987.304 222.96 986.064 224.4C984.864 225.8 983.184 226.9 981.024 227.7C978.864 228.46 976.404 228.84 973.644 228.84C971.924 228.84 970.404 228.66 969.084 228.3C967.764 227.94 966.604 227.44 965.604 226.8C964.724 226.24 964.024 225.6 963.504 224.88C962.984 224.12 962.724 223.28 962.724 222.36C962.724 221.2 963.084 220.26 963.804 219.54C964.524 218.78 965.524 218.4 966.804 218.4C968.044 218.4 969.064 218.76 969.864 219.48C970.704 220.16 971.124 221.1 971.124 222.3C971.124 223.34 970.804 224.2 970.164 224.88C969.564 225.52 968.804 225.94 967.884 226.14C968.204 226.54 968.844 226.9 969.804 227.22C970.804 227.54 971.844 227.7 972.924 227.7C975.244 227.7 977.044 227 978.324 225.6C979.604 224.2 980.244 222.32 980.244 219.96C980.244 217.96 979.764 216.2 978.804 214.68C977.844 213.16 976.384 212.26 974.424 211.98C974.024 212.18 973.604 212.36 973.164 212.52C972.764 212.68 972.344 212.76 971.904 212.76C971.024 212.76 970.584 212.42 970.584 211.74C970.584 211.1 971.044 210.78 971.964 210.78C972.364 210.78 972.784 210.82 973.224 210.9C973.664 210.98 974.084 211.06 974.484 211.14C976.124 210.5 977.224 209.56 977.784 208.32C978.384 207.04 978.684 205.62 978.684 204.06C978.684 202.06 978.304 200.52 977.544 199.44C976.784 198.32 975.604 197.76 974.004 197.76C972.524 197.76 971.184 198.2 969.984 199.08C968.784 199.92 967.824 201.08 967.104 202.56C966.384 204.04 966.004 205.74 965.964 207.66H964.584C964.664 205.62 964.684 203.9 964.644 202.5C964.604 201.06 964.544 199.88 964.464 198.96C964.424 198.04 964.364 197.26 964.284 196.62H965.664C965.784 197.5 965.924 198.16 966.084 198.6C966.284 199.04 966.584 199.26 966.984 199.26C967.224 199.26 967.504 199.16 967.824 198.96C968.184 198.76 968.584 198.52 969.024 198.24C969.944 197.68 970.944 197.2 972.024 196.8C973.144 196.36 974.564 196.14 976.284 196.14ZM1007.03 197.04V198.3C1005.55 198.3 1004.49 198.6 1003.85 199.2C1003.25 199.8 1002.95 200.94 1002.95 202.62V223.26C1002.95 224.62 1003.13 225.54 1003.49 226.02C1003.85 226.5 1004.49 226.74 1005.41 226.74C1007.33 226.74 1008.79 226.38 1009.79 225.66C1010.83 224.94 1011.53 223.98 1011.89 222.78C1012.29 221.58 1012.49 220.32 1012.49 219C1012.49 216.2 1011.79 214.2 1010.39 213C1008.99 211.76 1006.67 211.14 1003.43 211.14C1002.75 211.14 1002.05 211.14 1001.33 211.14C1000.61 211.14 999.95 211.14 999.35 211.14L999.23 210C1000.71 210 1002.11 210 1003.43 210C1004.75 210 1005.99 210 1007.15 210C1011.79 210 1015.13 210.82 1017.17 212.46C1019.25 214.06 1020.29 216.08 1020.29 218.52C1020.29 220.04 1019.83 221.52 1018.91 222.96C1018.03 224.4 1016.55 225.6 1014.47 226.56C1012.39 227.52 1009.63 228 1006.19 228C1005.15 228 1004.05 227.96 1002.89 227.88C1001.73 227.8 1000.47 227.76 999.11 227.76C997.79 227.76 996.39 227.8 994.91 227.88C993.43 227.92 992.31 227.96 991.55 228V226.74C992.95 226.74 993.93 226.44 994.49 225.84C995.09 225.24 995.39 224.1 995.39 222.42V202.62C995.39 200.94 995.13 199.8 994.61 199.2C994.09 198.6 993.19 198.3 991.91 198.3V197.04C992.63 197.08 993.65 197.14 994.97 197.22C996.33 197.26 997.73 197.28 999.17 197.28C1000.61 197.28 1002.09 197.26 1003.61 197.22C1005.13 197.14 1006.27 197.08 1007.03 197.04ZM1036.49 197.04V198.3C1035.13 198.3 1034.17 198.6 1033.61 199.2C1033.05 199.8 1032.77 200.94 1032.77 202.62V222.42C1032.77 224.1 1033.07 225.24 1033.67 225.84C1034.31 226.44 1035.37 226.74 1036.85 226.74V228C1036.09 227.96 1034.93 227.92 1033.37 227.88C1031.85 227.8 1030.35 227.76 1028.87 227.76C1027.51 227.76 1026.11 227.8 1024.67 227.88C1023.27 227.92 1022.21 227.96 1021.49 228V226.74C1022.85 226.74 1023.81 226.44 1024.37 225.84C1024.93 225.24 1025.21 224.1 1025.21 222.42V202.62C1025.21 200.94 1024.93 199.8 1024.37 199.2C1023.81 198.6 1022.85 198.3 1021.49 198.3V197.04C1022.25 197.08 1023.35 197.14 1024.79 197.22C1026.27 197.26 1027.71 197.28 1029.11 197.28C1030.51 197.28 1031.91 197.26 1033.31 197.22C1034.75 197.14 1035.81 197.08 1036.49 197.04ZM1067.07 196.14C1068.87 196.14 1070.15 196.56 1070.91 197.4C1071.71 198.24 1072.11 199.26 1072.11 200.46C1072.11 201.7 1071.73 202.7 1070.97 203.46C1070.25 204.18 1069.29 204.54 1068.09 204.54C1067.33 204.54 1066.61 204.4 1065.93 204.12C1065.29 203.8 1064.75 203.32 1064.31 202.68C1063.87 202.04 1063.65 201.26 1063.65 200.34C1063.65 199.94 1063.75 199.52 1063.95 199.08C1064.19 198.64 1064.57 198.28 1065.09 198C1064.25 198.16 1063.59 198.52 1063.11 199.08C1062.67 199.6 1062.27 200.36 1061.91 201.36C1061.59 202.36 1061.19 203.62 1060.71 205.14C1060.35 206.22 1059.95 207.24 1059.51 208.2C1059.07 209.16 1058.45 209.96 1057.65 210.6C1056.85 211.2 1055.73 211.62 1054.29 211.86L1054.65 211.44C1057.45 211.2 1059.81 211.38 1061.73 211.98C1063.65 212.58 1065.13 213.6 1066.17 215.04C1066.97 216.12 1067.59 217.42 1068.03 218.94C1068.47 220.46 1069.01 221.96 1069.65 223.44C1070.09 224.44 1070.55 225.22 1071.03 225.78C1071.55 226.3 1072.35 226.62 1073.43 226.74V228C1072.71 228.12 1071.99 228.22 1071.27 228.3C1070.59 228.38 1069.93 228.42 1069.29 228.42C1067.17 228.42 1065.51 227.98 1064.31 227.1C1063.15 226.18 1062.33 224.78 1061.85 222.9C1061.69 222.3 1061.47 221.52 1061.19 220.56C1060.91 219.56 1060.57 218.56 1060.17 217.56C1059.77 216.56 1059.27 215.7 1058.67 214.98C1057.95 214.02 1056.99 213.36 1055.79 213C1054.63 212.64 1053.13 212.5 1051.29 212.58V211.56C1053.29 211.44 1054.81 211.1 1055.85 210.54C1056.93 209.98 1057.75 209.16 1058.31 208.08C1058.87 207 1059.39 205.68 1059.87 204.12C1060.27 202.68 1060.71 201.36 1061.19 200.16C1061.67 198.96 1062.37 198 1063.29 197.28C1064.21 196.52 1065.47 196.14 1067.07 196.14ZM1055.25 197.04V198.3C1053.89 198.3 1052.93 198.6 1052.37 199.2C1051.81 199.8 1051.53 200.94 1051.53 202.62V222.42C1051.53 224.1 1051.81 225.24 1052.37 225.84C1052.93 226.44 1053.89 226.74 1055.25 226.74V228C1054.49 227.96 1053.39 227.92 1051.95 227.88C1050.51 227.8 1049.05 227.76 1047.57 227.76C1046.17 227.76 1044.71 227.8 1043.19 227.88C1041.71 227.92 1040.61 227.96 1039.89 228V226.74C1041.37 226.74 1042.41 226.44 1043.01 225.84C1043.65 225.24 1043.97 224.1 1043.97 222.42V202.62C1043.97 200.94 1043.65 199.8 1043.01 199.2C1042.41 198.6 1041.37 198.3 1039.89 198.3V197.04C1040.65 197.08 1041.79 197.14 1043.31 197.22C1044.87 197.26 1046.37 197.28 1047.81 197.28C1049.25 197.28 1050.67 197.26 1052.07 197.22C1053.47 197.14 1054.53 197.08 1055.25 197.04ZM1090.4 196.14C1093.16 196.14 1095.6 196.7 1097.72 197.82C1099.88 198.9 1101.58 200.64 1102.82 203.04C1104.1 205.44 1104.74 208.6 1104.74 212.52C1104.74 216.44 1104.1 219.6 1102.82 222C1101.58 224.4 1099.88 226.14 1097.72 227.22C1095.6 228.3 1093.16 228.84 1090.4 228.84C1087.64 228.84 1085.18 228.3 1083.02 227.22C1080.86 226.14 1079.16 224.4 1077.92 222C1076.68 219.6 1076.06 216.44 1076.06 212.52C1076.06 208.6 1076.68 205.44 1077.92 203.04C1079.16 200.64 1080.86 198.9 1083.02 197.82C1085.18 196.7 1087.64 196.14 1090.4 196.14ZM1090.4 197.34C1088.52 197.34 1086.98 198.54 1085.78 200.94C1084.62 203.3 1084.04 207.16 1084.04 212.52C1084.04 217.88 1084.62 221.74 1085.78 224.1C1086.98 226.46 1088.52 227.64 1090.4 227.64C1092.24 227.64 1093.76 226.46 1094.96 224.1C1096.16 221.74 1096.76 217.88 1096.76 212.52C1096.76 207.16 1096.16 203.3 1094.96 200.94C1093.76 198.54 1092.24 197.34 1090.4 197.34ZM1125.24 197.04C1128.28 197.04 1130.66 197.34 1132.38 197.94C1134.14 198.54 1135.38 199.38 1136.1 200.46C1136.86 201.54 1137.24 202.78 1137.24 204.18C1137.24 206.38 1136.08 208.26 1133.76 209.82C1131.44 211.38 1127.9 212.14 1123.14 212.1C1123.14 212.1 1123.02 212.08 1122.78 212.04C1122.58 211.96 1122.36 211.9 1122.12 211.86C1121.88 211.78 1121.76 211.74 1121.76 211.74C1123.88 211.7 1125.5 211.42 1126.62 210.9C1127.78 210.38 1128.56 209.62 1128.96 208.62C1129.36 207.58 1129.56 206.32 1129.56 204.84C1129.56 203.6 1129.42 202.5 1129.14 201.54C1128.86 200.54 1128.3 199.76 1127.46 199.2C1126.62 198.6 1125.4 198.3 1123.8 198.3C1122.52 198.3 1121.62 198.6 1121.1 199.2C1120.58 199.8 1120.32 200.94 1120.32 202.62V222.42C1120.32 224.18 1120.58 225.34 1121.1 225.9C1121.66 226.46 1122.62 226.74 1123.98 226.74C1125.9 226.74 1127.36 226.4 1128.36 225.72C1129.36 225.04 1130.04 224.16 1130.4 223.08C1130.8 222 1131 220.84 1131 219.6C1131 217.08 1130.36 215.32 1129.08 214.32C1127.84 213.32 1126.08 212.82 1123.8 212.82H1116.12C1116.12 212.82 1116.12 212.64 1116.12 212.28C1116.12 211.92 1116.12 211.74 1116.12 211.74H1124.34L1125.24 211.86C1128.56 211.86 1131.22 212.16 1133.22 212.76C1135.22 213.32 1136.64 214.18 1137.48 215.34C1138.36 216.46 1138.8 217.86 1138.8 219.54C1138.8 221.18 1138.38 222.64 1137.54 223.92C1136.74 225.2 1135.4 226.2 1133.52 226.92C1131.64 227.64 1129.1 228 1125.9 228C1124.62 228 1123.16 227.96 1121.52 227.88C1119.92 227.8 1118.26 227.76 1116.54 227.76C1115.1 227.76 1113.62 227.8 1112.1 227.88C1110.58 227.92 1109.44 227.96 1108.68 228V226.74C1110.16 226.74 1111.2 226.44 1111.8 225.84C1112.44 225.24 1112.76 224.1 1112.76 222.42V202.62C1112.76 200.94 1112.44 199.8 1111.8 199.2C1111.2 198.6 1110.16 198.3 1108.68 198.3V197.04C1109.4 197.08 1110.5 197.14 1111.98 197.22C1113.46 197.26 1114.9 197.28 1116.3 197.28C1117.98 197.28 1119.6 197.24 1121.16 197.16C1122.72 197.08 1124.08 197.04 1125.24 197.04Z" fill="#D5B678"/>
<path d="M793 83.6L794.2 87.6C787.4 89.6 780.533 92.8667 773.6 97.4C766.8 101.933 760.267 107.667 754 114.6C747.867 121.4 742.333 129.4 737.4 138.6C732.467 147.667 728.6 157.8 725.8 169C723 180.2 721.6 192.333 721.6 205.4C721.6 213.933 722.267 219.667 723.6 222.6C724.933 225.4 726.867 226.8 729.4 226.8C733.133 226.8 736.6 224.8 739.8 220.8C743.133 216.8 746 211.733 748.4 205.6C750.8 199.467 752.667 193.067 754 186.4C755.333 179.6 756 173.533 756 168.2C756 161.933 755.2 157.733 753.6 155.6C752 153.333 750.2 152.2 748.2 152.2C745.667 152.2 743.067 153.6 740.4 156.4C737.733 159.2 735.467 163.867 733.6 170.4L730.2 169.4C732.067 162.333 734.533 156.667 737.6 152.4C740.8 148.133 744.467 145.067 748.6 143.2C752.733 141.333 757.333 140.4 762.4 140.4C771.067 140.4 778.267 142.933 784 148C789.867 153.067 792.8 160.667 792.8 170.8C792.8 178.533 791 186 787.4 193.2C783.8 200.4 778.8 206.867 772.4 212.6C766 218.2 758.6 222.667 750.2 226C741.8 229.2 732.8 230.8 723.2 230.8C711.467 230.8 702.2 227.867 695.4 222C688.733 216.133 685.4 206.6 685.4 193.4C685.4 181.933 687.8 171 692.6 160.6C697.4 150.2 703.733 140.6 711.6 131.8C719.467 123 728.133 115.267 737.6 108.6C747.067 101.8 756.6 96.2667 766.2 92C775.933 87.7333 784.867 84.9333 793 83.6ZM885.955 83.6C892.888 83.6 899.088 84.4 904.555 86C910.155 87.4667 914.555 89.8 917.755 93C921.088 96.2 922.755 100.267 922.755 105.2C922.755 110 921.155 114.533 917.955 118.8C914.755 123.067 910.555 127 905.355 130.6C900.288 134.2 894.888 137.467 889.155 140.4C883.421 143.333 877.955 145.867 872.755 148L871.955 147.2C875.021 144.267 877.821 140.533 880.355 136C882.888 131.333 884.888 126.2 886.355 120.6C887.821 115 888.555 109.2 888.555 103.2C888.555 92.5333 885.755 87.2 880.155 87.2C877.088 87.2 874.088 88.6 871.155 91.4C868.221 94.0667 865.821 97.5333 863.955 101.8C862.221 106.067 861.355 110.533 861.355 115.2C861.355 121.467 862.821 126.867 865.755 131.4C868.688 135.933 872.288 140.067 876.555 143.8C880.821 147.533 885.088 151.267 889.355 155C893.621 158.733 897.221 162.933 900.155 167.6C903.088 172.133 904.555 177.6 904.555 184C904.555 190.667 902.755 196.867 899.155 202.6C895.555 208.333 890.688 213.333 884.555 217.6C878.421 221.733 871.421 225 863.555 227.4C855.821 229.667 847.755 230.8 839.355 230.8C831.888 230.8 824.955 229.867 818.555 228C812.155 226.133 807.021 223.267 803.155 219.4C799.288 215.533 797.355 210.533 797.355 204.4C797.355 198.8 799.021 193.6 802.355 188.8C805.688 183.867 810.155 179.333 815.755 175.2C821.355 170.933 827.555 167.133 834.355 163.8C841.288 160.467 848.221 157.6 855.155 155.2L855.955 156C851.821 159.2 847.955 163.467 844.355 168.8C840.888 174 838.088 179.933 835.955 186.6C833.955 193.267 832.955 200.333 832.955 207.8C832.955 213.533 833.755 218.2 835.355 221.8C837.088 225.4 840.221 227.2 844.755 227.2C849.155 227.2 853.355 225.6 857.355 222.4C861.488 219.2 864.821 215.067 867.355 210C869.888 204.8 871.155 199.333 871.155 193.6C871.155 187.067 869.755 181.467 866.955 176.8C864.155 172 860.688 167.667 856.555 163.8C852.555 159.933 848.488 156.067 844.355 152.2C840.355 148.333 836.955 144.2 834.155 139.8C831.355 135.267 829.955 129.933 829.955 123.8C829.955 117.8 831.488 112.333 834.555 107.4C837.621 102.467 841.755 98.2667 846.955 94.8C852.155 91.2 858.088 88.4667 864.755 86.6C871.555 84.6 878.621 83.6 885.955 83.6Z" fill="#D5B678"/>
<path d="M938.84 239.7V240.12C938.32 240.12 937.947 240.22 937.72 240.42C937.507 240.62 937.4 241 937.4 241.56V248.14C937.4 248.7 937.507 249.08 937.72 249.28C937.947 249.48 938.32 249.58 938.84 249.58V250C938.613 249.987 938.26 249.973 937.78 249.96C937.3 249.933 936.827 249.92 936.36 249.92C935.907 249.92 935.453 249.933 935 249.96C934.56 249.973 934.227 249.987 934 250V249.58C934.453 249.58 934.773 249.48 934.96 249.28C935.147 249.08 935.24 248.7 935.24 248.14V241.56C935.24 241 935.147 240.62 934.96 240.42C934.773 240.22 934.453 240.12 934 240.12H932.38C931.94 240.12 931.62 240.22 931.42 240.42C931.233 240.62 931.14 241 931.14 241.56V248.14C931.14 248.7 931.233 249.08 931.42 249.28C931.62 249.48 931.94 249.58 932.38 249.58V250C932.167 249.987 931.84 249.973 931.4 249.96C930.973 249.933 930.527 249.92 930.06 249.92C929.607 249.92 929.133 249.933 928.64 249.96C928.147 249.973 927.78 249.987 927.54 250V249.58C928.06 249.58 928.427 249.48 928.64 249.28C928.867 249.08 928.98 248.7 928.98 248.14V241.56C928.98 241 928.867 240.62 928.64 240.42C928.427 240.22 928.06 240.12 927.54 240.12V239.7C927.78 239.713 928.14 239.733 928.62 239.76C929.1 239.773 929.567 239.78 930.02 239.78C930.62 239.78 931.167 239.767 931.66 239.74C932.167 239.713 932.7 239.7 933.26 239.7C933.833 239.7 934.333 239.713 934.76 239.74C935.2 239.767 935.72 239.78 936.32 239.78C936.787 239.78 937.26 239.773 937.74 239.76C938.233 239.733 938.6 239.713 938.84 239.7ZM944.942 239.4C945.836 239.4 946.629 239.587 947.322 239.96C948.016 240.333 948.569 240.92 948.982 241.72C949.396 242.52 949.602 243.567 949.602 244.86C949.602 246.153 949.396 247.2 948.982 248C948.569 248.787 948.016 249.367 947.322 249.74C946.629 250.1 945.836 250.28 944.942 250.28C944.062 250.28 943.269 250.1 942.562 249.74C941.856 249.367 941.296 248.787 940.882 248C940.482 247.2 940.282 246.153 940.282 244.86C940.282 243.567 940.482 242.52 940.882 241.72C941.296 240.92 941.856 240.333 942.562 239.96C943.269 239.587 944.062 239.4 944.942 239.4ZM944.942 239.8C944.249 239.8 943.682 240.2 943.242 241C942.802 241.787 942.582 243.073 942.582 244.86C942.582 246.647 942.802 247.933 943.242 248.72C943.682 249.493 944.249 249.88 944.942 249.88C945.622 249.88 946.182 249.493 946.622 248.72C947.076 247.933 947.302 246.647 947.302 244.86C947.302 243.073 947.076 241.787 946.622 241C946.182 240.2 945.622 239.8 944.942 239.8ZM959.206 239.7V240.12C958.699 240.12 958.339 240.22 958.126 240.42C957.912 240.62 957.806 241 957.806 241.56V248.14C957.806 248.7 957.912 249.08 958.126 249.28C958.352 249.48 958.812 249.58 959.506 249.58C959.452 250.047 959.412 250.493 959.386 250.92C959.372 251.347 959.366 251.673 959.366 251.9C959.366 252.14 959.372 252.367 959.386 252.58C959.399 252.807 959.412 252.993 959.426 253.14H958.966C958.872 252.353 958.752 251.72 958.606 251.24C958.459 250.773 958.232 250.44 957.926 250.24C957.632 250.04 957.206 249.94 956.646 249.94C956.326 249.94 956.026 249.947 955.746 249.96C955.479 249.96 955.186 249.967 954.866 249.98C954.546 249.98 954.179 249.987 953.766 250C953.352 250 952.852 250 952.266 250C951.706 250 951.272 250.093 950.966 250.28C950.659 250.48 950.432 250.807 950.286 251.26C950.139 251.727 950.026 252.353 949.946 253.14H949.486C949.512 252.993 949.526 252.807 949.526 252.58C949.539 252.367 949.546 252.14 949.546 251.9C949.546 251.673 949.532 251.347 949.506 250.92C949.492 250.493 949.459 250.047 949.406 249.58H954.326C954.806 249.58 955.146 249.48 955.346 249.28C955.546 249.08 955.646 248.7 955.646 248.14V241.56C955.646 241 955.552 240.62 955.366 240.42C955.179 240.22 954.859 240.12 954.406 240.12H954.226C953.759 240.12 953.446 240.227 953.286 240.44C953.139 240.64 953.039 241.013 952.986 241.56C952.932 242.307 952.859 243.08 952.766 243.88C952.686 244.667 952.572 245.433 952.426 246.18C952.292 246.913 952.099 247.58 951.846 248.18C951.672 248.593 951.446 248.96 951.166 249.28C950.899 249.587 950.546 249.773 950.106 249.84L949.786 249.58C950.212 249.58 950.566 249.427 950.846 249.12C951.139 248.813 951.359 248.467 951.506 248.08C951.732 247.493 951.912 246.847 952.046 246.14C952.192 245.433 952.312 244.693 952.406 243.92C952.499 243.133 952.572 242.347 952.626 241.56C952.666 241 952.546 240.62 952.266 240.42C951.999 240.22 951.592 240.12 951.046 240.12V239.7C951.152 239.713 951.319 239.733 951.546 239.76C951.786 239.773 952.066 239.78 952.386 239.78C952.706 239.78 953.032 239.767 953.366 239.74C953.699 239.713 954.066 239.7 954.466 239.7C954.892 239.7 955.272 239.713 955.606 239.74C955.939 239.767 956.326 239.78 956.766 239.78C957.219 239.78 957.679 239.773 958.146 239.76C958.612 239.733 958.966 239.713 959.206 239.7ZM969.85 239.7V240.12C969.343 240.12 968.983 240.22 968.77 240.42C968.557 240.62 968.45 241 968.45 241.56V248.14C968.45 248.7 968.557 249.08 968.77 249.28C968.997 249.48 969.457 249.58 970.15 249.58C970.097 250.047 970.057 250.493 970.03 250.92C970.017 251.347 970.01 251.673 970.01 251.9C970.01 252.14 970.017 252.367 970.03 252.58C970.043 252.807 970.057 252.993 970.07 253.14H969.61C969.517 252.353 969.397 251.72 969.25 251.24C969.103 250.773 968.877 250.44 968.57 250.24C968.277 250.04 967.85 249.94 967.29 249.94C966.97 249.94 966.67 249.947 966.39 249.96C966.123 249.96 965.83 249.967 965.51 249.98C965.19 249.98 964.823 249.987 964.41 250C963.997 250 963.497 250 962.91 250C962.35 250 961.917 250.093 961.61 250.28C961.303 250.48 961.077 250.807 960.93 251.26C960.783 251.727 960.67 252.353 960.59 253.14H960.13C960.157 252.993 960.17 252.807 960.17 252.58C960.183 252.367 960.19 252.14 960.19 251.9C960.19 251.673 960.177 251.347 960.15 250.92C960.137 250.493 960.103 250.047 960.05 249.58H964.97C965.45 249.58 965.79 249.48 965.99 249.28C966.19 249.08 966.29 248.7 966.29 248.14V241.56C966.29 241 966.197 240.62 966.01 240.42C965.823 240.22 965.503 240.12 965.05 240.12H964.87C964.403 240.12 964.09 240.227 963.93 240.44C963.783 240.64 963.683 241.013 963.63 241.56C963.577 242.307 963.503 243.08 963.41 243.88C963.33 244.667 963.217 245.433 963.07 246.18C962.937 246.913 962.743 247.58 962.49 248.18C962.317 248.593 962.09 248.96 961.81 249.28C961.543 249.587 961.19 249.773 960.75 249.84L960.43 249.58C960.857 249.58 961.21 249.427 961.49 249.12C961.783 248.813 962.003 248.467 962.15 248.08C962.377 247.493 962.557 246.847 962.69 246.14C962.837 245.433 962.957 244.693 963.05 243.92C963.143 243.133 963.217 242.347 963.27 241.56C963.31 241 963.19 240.62 962.91 240.42C962.643 240.22 962.237 240.12 961.69 240.12V239.7C961.797 239.713 961.963 239.733 962.19 239.76C962.43 239.773 962.71 239.78 963.03 239.78C963.35 239.78 963.677 239.767 964.01 239.74C964.343 239.713 964.71 239.7 965.11 239.7C965.537 239.7 965.917 239.713 966.25 239.74C966.583 239.767 966.97 239.78 967.41 239.78C967.863 239.78 968.323 239.773 968.79 239.76C969.257 239.733 969.61 239.713 969.85 239.7ZM976.016 239.4C977.189 239.4 978.109 239.753 978.776 240.46C979.442 241.167 979.776 242.287 979.776 243.82H972.876L972.836 243.44H977.656C977.669 242.787 977.616 242.187 977.496 241.64C977.376 241.08 977.189 240.633 976.936 240.3C976.682 239.967 976.349 239.8 975.936 239.8C975.362 239.8 974.862 240.107 974.436 240.72C974.022 241.32 973.769 242.287 973.676 243.62L973.736 243.72C973.722 243.907 973.709 244.113 973.696 244.34C973.682 244.553 973.676 244.767 973.676 244.98C973.676 245.9 973.816 246.673 974.096 247.3C974.376 247.927 974.742 248.4 975.196 248.72C975.649 249.027 976.109 249.18 976.576 249.18C976.936 249.18 977.282 249.127 977.616 249.02C977.962 248.9 978.289 248.707 978.596 248.44C978.902 248.16 979.176 247.78 979.416 247.3L979.816 247.46C979.656 247.913 979.409 248.36 979.076 248.8C978.742 249.24 978.316 249.6 977.796 249.88C977.276 250.147 976.669 250.28 975.976 250.28C975.042 250.28 974.229 250.073 973.536 249.66C972.842 249.233 972.309 248.627 971.936 247.84C971.562 247.053 971.376 246.12 971.376 245.04C971.376 243.853 971.569 242.84 971.956 242C972.342 241.16 972.882 240.52 973.576 240.08C974.282 239.627 975.096 239.4 976.016 239.4ZM984.633 239.46V251.72C984.633 252.307 984.8 252.7 985.133 252.9C985.467 253.1 985.927 253.2 986.513 253.2V253.62C986.207 253.607 985.78 253.587 985.233 253.56C984.687 253.547 984.1 253.54 983.473 253.54C983.033 253.54 982.6 253.547 982.173 253.56C981.747 253.587 981.42 253.607 981.193 253.62V253.2C981.66 253.2 981.987 253.107 982.173 252.92C982.373 252.747 982.473 252.413 982.473 251.92V241.86C982.473 241.26 982.373 240.82 982.173 240.54C981.973 240.247 981.593 240.1 981.033 240.1V239.68C981.46 239.72 981.873 239.74 982.273 239.74C982.713 239.74 983.133 239.72 983.533 239.68C983.933 239.627 984.3 239.553 984.633 239.46ZM987.813 239.4C988.507 239.4 989.127 239.593 989.673 239.98C990.233 240.353 990.673 240.907 990.993 241.64C991.313 242.373 991.473 243.287 991.473 244.38C991.473 245.18 991.38 245.94 991.193 246.66C991.007 247.367 990.72 247.993 990.333 248.54C989.96 249.073 989.487 249.5 988.913 249.82C988.34 250.127 987.66 250.28 986.873 250.28C986.287 250.28 985.767 250.153 985.313 249.9C984.873 249.647 984.56 249.327 984.373 248.94L984.573 248.66C984.747 248.993 984.987 249.267 985.293 249.48C985.613 249.693 986.007 249.8 986.473 249.8C987.167 249.8 987.707 249.58 988.093 249.14C988.493 248.687 988.773 248.08 988.933 247.32C989.093 246.547 989.173 245.673 989.173 244.7C989.173 243.607 989.093 242.727 988.933 242.06C988.773 241.38 988.533 240.887 988.213 240.58C987.893 240.26 987.507 240.1 987.053 240.1C986.453 240.1 985.907 240.34 985.413 240.82C984.933 241.3 984.64 242.02 984.533 242.98L984.333 242.56C984.507 241.56 984.907 240.787 985.533 240.24C986.173 239.68 986.933 239.4 987.813 239.4ZM1006.98 239.4C1007.52 239.4 1007.91 239.527 1008.14 239.78C1008.36 240.033 1008.48 240.327 1008.48 240.66C1008.48 241.02 1008.36 241.313 1008.14 241.54C1007.92 241.767 1007.63 241.88 1007.26 241.88C1007.02 241.88 1006.8 241.827 1006.6 241.72C1006.4 241.613 1006.24 241.46 1006.12 241.26C1006.01 241.06 1005.96 240.82 1005.96 240.54C1005.96 240.46 1005.97 240.38 1006 240.3C1006.04 240.207 1006.1 240.133 1006.18 240.08C1005.96 240.133 1005.78 240.267 1005.64 240.48C1005.5 240.68 1005.38 240.94 1005.26 241.26C1005.15 241.567 1005.02 241.927 1004.88 242.34C1004.69 242.86 1004.47 243.32 1004.22 243.72C1003.96 244.107 1003.54 244.387 1002.96 244.56L1002.94 244.48C1003.47 244.467 1003.95 244.5 1004.38 244.58C1004.82 244.647 1005.21 244.78 1005.56 244.98C1005.9 245.167 1006.19 245.433 1006.42 245.78C1006.66 246.14 1006.85 246.573 1007 247.08C1007.16 247.573 1007.33 248.04 1007.52 248.48C1007.66 248.813 1007.82 249.073 1008 249.26C1008.18 249.433 1008.47 249.54 1008.86 249.58V250C1008.63 250.04 1008.4 250.073 1008.18 250.1C1007.96 250.127 1007.76 250.14 1007.56 250.14C1006.94 250.14 1006.46 250.013 1006.12 249.76C1005.77 249.493 1005.5 249.047 1005.32 248.42C1005.24 248.073 1005.11 247.64 1004.94 247.12C1004.78 246.587 1004.56 246.127 1004.28 245.74C1003.98 245.353 1003.62 245.107 1003.2 245C1002.77 244.88 1002.22 244.833 1001.56 244.86V244.52C1002.25 244.467 1002.78 244.347 1003.16 244.16C1003.54 243.973 1003.84 243.7 1004.04 243.34C1004.25 242.98 1004.44 242.533 1004.6 242C1004.74 241.573 1004.9 241.16 1005.06 240.76C1005.22 240.36 1005.44 240.033 1005.74 239.78C1006.04 239.527 1006.46 239.4 1006.98 239.4ZM994.318 239.4C994.851 239.4 995.264 239.527 995.558 239.78C995.864 240.033 996.098 240.36 996.258 240.76C996.431 241.16 996.578 241.573 996.698 242C996.871 242.52 997.058 242.96 997.258 243.32C997.458 243.68 997.744 243.96 998.118 244.16C998.504 244.347 999.044 244.467 999.738 244.52V244.86C999.124 244.833 998.591 244.873 998.138 244.98C997.698 245.087 997.331 245.34 997.038 245.74C996.851 245.993 996.684 246.3 996.538 246.66C996.391 247.02 996.271 247.36 996.178 247.68C996.098 248 996.031 248.247 995.978 248.42C995.804 249.047 995.538 249.493 995.178 249.76C994.818 250.013 994.338 250.14 993.738 250.14C993.538 250.14 993.324 250.127 993.098 250.1C992.884 250.073 992.664 250.04 992.438 250V249.58C992.824 249.54 993.111 249.433 993.298 249.26C993.484 249.073 993.644 248.813 993.778 248.48C993.978 248.027 994.151 247.553 994.298 247.06C994.458 246.567 994.658 246.14 994.898 245.78C995.138 245.407 995.438 245.127 995.798 244.94C996.171 244.753 996.571 244.627 996.998 244.56C997.438 244.493 997.891 244.467 998.358 244.48V244.56C997.758 244.387 997.331 244.107 997.078 243.72C996.824 243.32 996.611 242.86 996.438 242.34C996.291 241.94 996.158 241.58 996.038 241.26C995.931 240.94 995.804 240.68 995.658 240.48C995.524 240.267 995.344 240.133 995.118 240.08C995.211 240.133 995.271 240.207 995.298 240.3C995.338 240.38 995.358 240.46 995.358 240.54C995.358 240.82 995.298 241.06 995.178 241.26C995.058 241.46 994.898 241.613 994.698 241.72C994.498 241.827 994.278 241.88 994.038 241.88C993.664 241.88 993.371 241.767 993.158 241.54C992.944 241.313 992.838 241.02 992.838 240.66C992.838 240.327 992.951 240.033 993.178 239.78C993.404 239.527 993.784 239.4 994.318 239.4ZM1003.02 239.7V240.12C1002.55 240.12 1002.22 240.22 1002.02 240.42C1001.83 240.62 1001.74 241 1001.74 241.56V248.14C1001.74 248.7 1001.83 249.08 1002.02 249.28C1002.2 249.48 1002.52 249.58 1002.98 249.58V250C1002.75 249.987 1002.41 249.973 1001.96 249.96C1001.52 249.933 1001.08 249.92 1000.64 249.92C1000.21 249.92 999.771 249.933 999.318 249.96C998.878 249.973 998.551 249.987 998.338 250V249.58C998.791 249.58 999.111 249.48 999.298 249.28C999.484 249.08 999.578 248.7 999.578 248.14V241.56C999.578 241 999.478 240.62 999.278 240.42C999.091 240.22 998.764 240.12 998.298 240.12V239.7C998.524 239.713 998.864 239.733 999.318 239.76C999.784 239.773 1000.24 239.78 1000.68 239.78C1001.13 239.78 1001.58 239.773 1002.02 239.76C1002.46 239.733 1002.79 239.713 1003.02 239.7ZM1021.39 239.7V240.12C1020.87 240.12 1020.49 240.22 1020.27 240.42C1020.05 240.62 1019.95 241 1019.95 241.56V248.14C1019.95 248.7 1020.05 249.08 1020.27 249.28C1020.49 249.48 1020.87 249.58 1021.39 249.58V250C1021.16 249.987 1020.81 249.973 1020.33 249.96C1019.85 249.933 1019.37 249.92 1018.91 249.92C1018.45 249.92 1018 249.933 1017.55 249.96C1017.11 249.973 1016.77 249.987 1016.55 250V249.58C1017 249.58 1017.32 249.48 1017.51 249.28C1017.69 249.08 1017.79 248.7 1017.79 248.14V241.56C1017.79 241 1017.69 240.62 1017.51 240.42C1017.32 240.22 1017 240.12 1016.55 240.12V239.7C1016.77 239.713 1017.1 239.733 1017.53 239.76C1017.97 239.773 1018.41 239.78 1018.87 239.78C1019.33 239.78 1019.81 239.773 1020.29 239.76C1020.78 239.733 1021.15 239.713 1021.39 239.7ZM1014.61 239.7V240.12C1014.17 240.12 1013.85 240.22 1013.65 240.42C1013.46 240.62 1013.37 241 1013.37 241.56V248.14C1013.37 248.7 1013.46 249.08 1013.65 249.28C1013.85 249.48 1014.17 249.58 1014.61 249.58V250C1014.39 249.987 1014.07 249.973 1013.63 249.96C1013.2 249.933 1012.75 249.92 1012.29 249.92C1011.83 249.92 1011.36 249.933 1010.87 249.96C1010.37 249.973 1010.01 249.987 1009.77 250V249.58C1010.29 249.58 1010.65 249.48 1010.87 249.28C1011.09 249.08 1011.21 248.7 1011.21 248.14V241.56C1011.21 241 1011.09 240.62 1010.87 240.42C1010.65 240.22 1010.29 240.12 1009.77 240.12V239.7C1010.01 239.713 1010.37 239.733 1010.85 239.76C1011.33 239.773 1011.79 239.78 1012.25 239.78C1012.71 239.78 1013.17 239.773 1013.61 239.76C1014.06 239.733 1014.39 239.713 1014.61 239.7ZM1018.01 241.04L1018.33 241.26L1013.09 249.02L1012.75 248.78L1018.01 241.04ZM1027.74 239.7C1028.74 239.7 1029.53 239.8 1030.1 240C1030.67 240.2 1031.08 240.487 1031.32 240.86C1031.56 241.22 1031.68 241.633 1031.68 242.1C1031.68 242.807 1031.31 243.42 1030.56 243.94C1029.81 244.46 1028.67 244.72 1027.14 244.72C1027.14 244.72 1027.11 244.713 1027.04 244.7C1026.97 244.673 1026.9 244.647 1026.82 244.62C1026.75 244.593 1026.72 244.58 1026.72 244.58C1027.48 244.567 1028.06 244.48 1028.46 244.32C1028.86 244.147 1029.13 243.893 1029.26 243.56C1029.41 243.213 1029.48 242.787 1029.48 242.28C1029.48 241.88 1029.43 241.52 1029.32 241.2C1029.23 240.867 1029.03 240.607 1028.72 240.42C1028.43 240.22 1027.99 240.12 1027.4 240.12C1026.92 240.12 1026.58 240.22 1026.38 240.42C1026.18 240.62 1026.08 241 1026.08 241.56V248.14C1026.08 248.713 1026.18 249.1 1026.38 249.3C1026.58 249.487 1026.94 249.58 1027.46 249.58C1028.15 249.58 1028.69 249.467 1029.06 249.24C1029.43 249.013 1029.69 248.72 1029.82 248.36C1029.97 247.987 1030.04 247.587 1030.04 247.16C1030.04 246.32 1029.81 245.74 1029.36 245.42C1028.92 245.1 1028.32 244.94 1027.56 244.94H1024.76C1024.76 244.94 1024.76 244.88 1024.76 244.76C1024.76 244.64 1024.76 244.58 1024.76 244.58H1027.58L1027.8 244.62C1028.89 244.62 1029.77 244.72 1030.42 244.92C1031.07 245.107 1031.55 245.387 1031.84 245.76C1032.13 246.133 1032.28 246.593 1032.28 247.14C1032.28 247.673 1032.14 248.16 1031.86 248.6C1031.58 249.027 1031.11 249.367 1030.46 249.62C1029.82 249.873 1028.96 250 1027.88 250C1027.47 250 1027.01 249.987 1026.52 249.96C1026.03 249.933 1025.51 249.92 1024.98 249.92C1024.54 249.92 1024.07 249.933 1023.58 249.96C1023.09 249.973 1022.72 249.987 1022.48 250V249.58C1023 249.58 1023.37 249.48 1023.58 249.28C1023.81 249.08 1023.92 248.7 1023.92 248.14V241.56C1023.92 241 1023.81 240.62 1023.58 240.42C1023.37 240.22 1023 240.12 1022.48 240.12V239.7C1022.72 239.713 1023.08 239.733 1023.56 239.76C1024.04 239.773 1024.5 239.78 1024.94 239.78C1025.46 239.78 1025.96 239.767 1026.44 239.74C1026.93 239.713 1027.37 239.7 1027.74 239.7ZM1036.4 250.14C1035.84 250.14 1035.36 250.033 1034.96 249.82C1034.56 249.607 1034.26 249.313 1034.06 248.94C1033.86 248.567 1033.76 248.14 1033.76 247.66C1033.76 247.073 1033.89 246.6 1034.16 246.24C1034.42 245.867 1034.76 245.567 1035.18 245.34C1035.6 245.113 1036.05 244.927 1036.52 244.78C1037 244.62 1037.44 244.473 1037.86 244.34C1038.28 244.193 1038.63 244.027 1038.9 243.84C1039.18 243.653 1039.32 243.407 1039.32 243.1V241.74C1039.32 241.26 1039.24 240.88 1039.08 240.6C1038.93 240.307 1038.72 240.1 1038.46 239.98C1038.2 239.86 1037.9 239.8 1037.54 239.8C1037.23 239.8 1036.9 239.847 1036.56 239.94C1036.21 240.02 1035.94 240.187 1035.74 240.44C1036.03 240.52 1036.27 240.68 1036.46 240.92C1036.66 241.147 1036.76 241.433 1036.76 241.78C1036.76 242.153 1036.63 242.447 1036.38 242.66C1036.14 242.873 1035.83 242.98 1035.46 242.98C1035.04 242.98 1034.74 242.853 1034.54 242.6C1034.34 242.333 1034.24 242.027 1034.24 241.68C1034.24 241.32 1034.32 241.027 1034.5 240.8C1034.68 240.573 1034.92 240.36 1035.22 240.16C1035.54 239.947 1035.94 239.767 1036.44 239.62C1036.94 239.473 1037.5 239.4 1038.12 239.4C1038.69 239.4 1039.18 239.467 1039.6 239.6C1040.02 239.72 1040.38 239.92 1040.66 240.2C1040.99 240.507 1041.21 240.893 1041.32 241.36C1041.42 241.813 1041.48 242.367 1041.48 243.02V248.54C1041.48 248.873 1041.52 249.113 1041.6 249.26C1041.69 249.393 1041.84 249.46 1042.04 249.46C1042.17 249.46 1042.3 249.427 1042.42 249.36C1042.55 249.293 1042.7 249.193 1042.88 249.06L1043.08 249.4C1042.8 249.627 1042.51 249.807 1042.22 249.94C1041.94 250.073 1041.58 250.14 1041.14 250.14C1040.71 250.14 1040.36 250.073 1040.1 249.94C1039.83 249.807 1039.63 249.613 1039.5 249.36C1039.38 249.107 1039.32 248.793 1039.32 248.42C1038.97 248.98 1038.56 249.407 1038.08 249.7C1037.6 249.993 1037.04 250.14 1036.4 250.14ZM1037.36 249.18C1037.73 249.18 1038.08 249.073 1038.4 248.86C1038.73 248.647 1039.04 248.327 1039.32 247.9V243.92C1039.17 244.133 1038.96 244.32 1038.68 244.48C1038.4 244.627 1038.1 244.78 1037.78 244.94C1037.46 245.1 1037.15 245.287 1036.86 245.5C1036.58 245.7 1036.34 245.96 1036.16 246.28C1035.97 246.6 1035.88 247.007 1035.88 247.5C1035.88 248.02 1036.01 248.433 1036.28 248.74C1036.54 249.033 1036.9 249.18 1037.36 249.18ZM1048.63 239.4C1049.81 239.4 1050.73 239.753 1051.39 240.46C1052.06 241.167 1052.39 242.287 1052.39 243.82H1045.49L1045.45 243.44H1050.27C1050.29 242.787 1050.23 242.187 1050.11 241.64C1049.99 241.08 1049.81 240.633 1049.55 240.3C1049.3 239.967 1048.97 239.8 1048.55 239.8C1047.98 239.8 1047.48 240.107 1047.05 240.72C1046.64 241.32 1046.39 242.287 1046.29 243.62L1046.35 243.72C1046.34 243.907 1046.33 244.113 1046.31 244.34C1046.3 244.553 1046.29 244.767 1046.29 244.98C1046.29 245.9 1046.43 246.673 1046.71 247.3C1046.99 247.927 1047.36 248.4 1047.81 248.72C1048.27 249.027 1048.73 249.18 1049.19 249.18C1049.55 249.18 1049.9 249.127 1050.23 249.02C1050.58 248.9 1050.91 248.707 1051.21 248.44C1051.52 248.16 1051.79 247.78 1052.03 247.3L1052.43 247.46C1052.27 247.913 1052.03 248.36 1051.69 248.8C1051.36 249.24 1050.93 249.6 1050.41 249.88C1049.89 250.147 1049.29 250.28 1048.59 250.28C1047.66 250.28 1046.85 250.073 1046.15 249.66C1045.46 249.233 1044.93 248.627 1044.55 247.84C1044.18 247.053 1043.99 246.12 1043.99 245.04C1043.99 243.853 1044.19 242.84 1044.57 242C1044.96 241.16 1045.5 240.52 1046.19 240.08C1046.9 239.627 1047.71 239.4 1048.63 239.4ZM1063.91 239.7C1063.86 240.207 1063.82 240.687 1063.79 241.14C1063.78 241.593 1063.77 241.94 1063.77 242.18C1063.77 242.433 1063.78 242.673 1063.79 242.9C1063.8 243.127 1063.82 243.313 1063.83 243.46H1063.37C1063.26 242.527 1063.09 241.82 1062.85 241.34C1062.62 240.86 1062.33 240.533 1061.97 240.36C1061.61 240.187 1061.18 240.1 1060.69 240.1H1059.95V247.94C1059.95 248.593 1060.13 249.033 1060.49 249.26C1060.86 249.473 1061.36 249.58 1061.99 249.58V250C1061.67 249.987 1061.23 249.973 1060.67 249.96C1060.11 249.933 1059.51 249.92 1058.87 249.92C1058.24 249.92 1057.64 249.933 1057.07 249.96C1056.51 249.973 1056.07 249.987 1055.75 250V249.58C1056.39 249.58 1056.89 249.48 1057.25 249.28C1057.61 249.067 1057.79 248.633 1057.79 247.98V240.1H1056.89C1056.4 240.1 1055.98 240.187 1055.65 240.36C1055.32 240.533 1055.04 240.867 1054.83 241.36C1054.63 241.84 1054.48 242.547 1054.37 243.48H1053.91C1053.94 243.333 1053.95 243.147 1053.95 242.92C1053.96 242.693 1053.97 242.453 1053.97 242.2C1053.97 241.96 1053.96 241.613 1053.93 241.16C1053.92 240.693 1053.88 240.213 1053.83 239.72H1055.81C1056.24 239.72 1056.72 239.727 1057.25 239.74C1057.78 239.753 1058.32 239.76 1058.85 239.76C1059.38 239.76 1059.92 239.753 1060.45 239.74C1061 239.713 1061.48 239.7 1061.91 239.7H1063.91ZM1070.14 239.4C1070.59 239.4 1071.03 239.46 1071.44 239.58C1071.85 239.687 1072.21 239.84 1072.52 240.04C1072.84 240.24 1073.08 240.48 1073.24 240.76C1073.41 241.04 1073.5 241.347 1073.5 241.68C1073.5 242.08 1073.39 242.393 1073.16 242.62C1072.93 242.847 1072.64 242.96 1072.28 242.96C1071.92 242.96 1071.62 242.86 1071.38 242.66C1071.14 242.46 1071.02 242.173 1071.02 241.8C1071.02 241.453 1071.12 241.173 1071.32 240.96C1071.52 240.733 1071.75 240.587 1072.02 240.52C1071.9 240.32 1071.69 240.153 1071.38 240.02C1071.09 239.873 1070.77 239.8 1070.42 239.8C1070.06 239.8 1069.71 239.893 1069.38 240.08C1069.06 240.267 1068.77 240.553 1068.52 240.94C1068.27 241.327 1068.06 241.827 1067.9 242.44C1067.75 243.053 1067.68 243.793 1067.68 244.66C1067.68 245.78 1067.81 246.673 1068.06 247.34C1068.33 247.993 1068.67 248.46 1069.1 248.74C1069.53 249.02 1069.99 249.16 1070.48 249.16C1070.8 249.16 1071.13 249.1 1071.46 248.98C1071.81 248.86 1072.13 248.66 1072.44 248.38C1072.76 248.1 1073.04 247.72 1073.28 247.24L1073.66 247.38C1073.51 247.82 1073.28 248.267 1072.96 248.72C1072.65 249.173 1072.25 249.547 1071.74 249.84C1071.23 250.133 1070.61 250.28 1069.88 250.28C1069.04 250.28 1068.28 250.073 1067.6 249.66C1066.92 249.247 1066.38 248.647 1065.98 247.86C1065.58 247.06 1065.38 246.087 1065.38 244.94C1065.38 243.82 1065.58 242.847 1065.98 242.02C1066.39 241.18 1066.96 240.533 1067.68 240.08C1068.4 239.627 1069.22 239.4 1070.14 239.4ZM1084.78 239.7V240.12C1084.29 240.12 1083.93 240.22 1083.7 240.42C1083.49 240.62 1083.38 241 1083.38 241.56V248.14C1083.38 248.7 1083.48 249.08 1083.66 249.28C1083.86 249.48 1084.18 249.58 1084.62 249.58V250C1084.41 249.987 1084.08 249.973 1083.64 249.96C1083.22 249.933 1082.77 249.92 1082.3 249.92C1081.85 249.92 1081.38 249.933 1080.9 249.96C1080.42 249.973 1080.06 249.987 1079.82 250V249.58C1080.33 249.58 1080.69 249.48 1080.9 249.28C1081.12 249.08 1081.22 248.7 1081.22 248.14V241.42C1081.22 240.94 1081.13 240.607 1080.94 240.42C1080.76 240.22 1080.42 240.12 1079.94 240.12C1079.36 240.12 1078.91 240.233 1078.6 240.46C1078.3 240.673 1078.09 240.953 1077.98 241.3C1077.88 241.647 1077.82 242.027 1077.82 242.44C1077.82 243.307 1078.02 243.953 1078.42 244.38C1078.84 244.807 1079.56 245.027 1080.58 245.04C1080.89 245.053 1081.2 245.06 1081.5 245.06C1081.82 245.06 1082.13 245.06 1082.42 245.06L1082.46 245.44C1081.81 245.44 1081.24 245.447 1080.74 245.46C1080.26 245.473 1079.88 245.48 1079.58 245.48C1078.74 245.48 1078.06 245.4 1077.54 245.24C1077.02 245.08 1076.62 244.86 1076.34 244.58C1076.06 244.3 1075.87 243.993 1075.76 243.66C1075.67 243.327 1075.62 242.987 1075.62 242.64C1075.62 242.067 1075.74 241.56 1075.98 241.12C1076.22 240.68 1076.64 240.333 1077.22 240.08C1077.82 239.827 1078.64 239.7 1079.66 239.7C1080.06 239.7 1080.48 239.713 1080.92 239.74C1081.38 239.767 1081.85 239.78 1082.34 239.78C1082.8 239.78 1083.26 239.773 1083.72 239.76C1084.2 239.733 1084.56 239.713 1084.78 239.7ZM1080.66 245.26V245.46C1080.32 245.473 1079.97 245.507 1079.62 245.56C1079.29 245.6 1079 245.74 1078.74 245.98C1078.54 246.167 1078.38 246.413 1078.26 246.72C1078.16 247.027 1078.06 247.36 1077.98 247.72C1077.9 248.067 1077.8 248.42 1077.66 248.78C1077.49 249.233 1077.24 249.56 1076.92 249.76C1076.6 249.96 1076.08 250.06 1075.36 250.06C1075.19 250.06 1075 250.053 1074.8 250.04C1074.6 250.027 1074.39 250.013 1074.16 250V249.58C1074.54 249.54 1074.82 249.487 1075 249.42C1075.19 249.34 1075.32 249.227 1075.4 249.08C1075.5 248.92 1075.59 248.713 1075.68 248.46C1075.9 247.913 1076.06 247.487 1076.18 247.18C1076.32 246.86 1076.45 246.613 1076.58 246.44C1076.72 246.253 1076.88 246.093 1077.08 245.96C1077.23 245.853 1077.4 245.76 1077.6 245.68C1077.8 245.587 1078.04 245.507 1078.32 245.44C1078.6 245.373 1078.94 245.327 1079.32 245.3C1079.71 245.26 1080.16 245.247 1080.66 245.26Z" fill="#D5B678"/>
<path d="M54 300.613C160.775 182.544 312.264 103.109 437.671 201.176C584.624 316.092 478.915 530.228 569.028 577.444C669.538 630.107 858.428 297.29 982.159 344.962C1105.89 392.634 1003.2 758.954 1162.38 822.052C1284.38 870.407 1440 726.773 1440 726.773" stroke="#D5B678" stroke-width="3"/>
<circle cx="28.5" cy="171.5" r="171.5" fill="#D5B678"/>
<path d="M386.5 309C386.5 350.688 352.483 384.5 310.5 384.5C268.517 384.5 234.5 350.688 234.5 309C234.5 267.312 268.517 233.5 310.5 233.5C352.483 233.5 386.5 267.312 386.5 309Z" fill="black" stroke="#D5B678" stroke-width="3"/>
<path d="M611.5 385.5C611.5 437.974 569.184 480.5 517 480.5C464.816 480.5 422.5 437.974 422.5 385.5C422.5 333.026 464.816 290.5 517 290.5C569.184 290.5 611.5 333.026 611.5 385.5Z" fill="black" stroke="#D5B678" stroke-width="3"/>
<path d="M885.5 470C885.5 536.004 832.216 589.5 766.5 589.5C700.784 589.5 647.5 536.004 647.5 470C647.5 403.996 700.784 350.5 766.5 350.5C832.216 350.5 885.5 403.996 885.5 470Z" fill="black" stroke="#D5B678" stroke-width="3"/>
<circle cx="1070" cy="572" r="149.5" fill="black" stroke="#D5B678" stroke-width="3"/>
<path d="M765.7 440.8C774.167 440.8 781.5 441.9 787.7 444.1C793.9 446.233 798.667 449.4 802 453.6C805.333 457.733 807 462.867 807 469C807 474.933 805.3 480.1 801.9 484.5C798.5 488.9 793.667 492.333 787.4 494.8C781.2 497.2 773.933 498.4 765.6 498.4C757.2 498.4 749.9 497.3 743.7 495.1C737.5 492.833 732.7 489.533 729.3 485.2C725.967 480.8 724.3 475.467 724.3 469.2C724.3 463.467 726.033 458.467 729.5 454.2C732.967 449.933 737.8 446.633 744 444.3C750.2 441.967 757.433 440.8 765.7 440.8ZM765.3 442.5C759.167 442.5 753.967 443.567 749.7 445.7C745.433 447.767 742.167 450.767 739.9 454.7C737.633 458.633 736.5 463.333 736.5 468.8C736.5 474.8 737.733 479.9 740.2 484.1C742.667 488.233 746.1 491.367 750.5 493.5C754.967 495.633 760.133 496.7 766 496.7C772.2 496.7 777.433 495.6 781.7 493.4C785.967 491.2 789.2 488.067 791.4 484C793.667 479.867 794.8 475 794.8 469.4C794.8 463.533 793.567 458.6 791.1 454.6C788.7 450.6 785.3 447.6 780.9 445.6C776.5 443.533 771.3 442.5 765.3 442.5ZM779.4 426.8V428.8C777.2 428.867 775.533 429.133 774.4 429.6C773.267 430 772.5 430.8 772.1 432C771.7 433.133 771.5 434.933 771.5 437.4V501.8C771.5 504.267 771.7 506.1 772.1 507.3C772.5 508.5 773.267 509.267 774.4 509.6C775.533 510 777.2 510.267 779.4 510.4V512.4C777.8 512.267 775.767 512.167 773.3 512.1C770.9 512.1 768.433 512.1 765.9 512.1C763.1 512.1 760.467 512.1 758 512.1C755.6 512.167 753.633 512.267 752.1 512.4V510.4C754.367 510.267 756.067 510 757.2 509.6C758.333 509.2 759.067 508.4 759.4 507.2C759.8 506 760 504.2 760 501.8V437.4C760 434.933 759.8 433.1 759.4 431.9C759.067 430.7 758.3 429.9 757.1 429.5C755.967 429.1 754.3 428.867 752.1 428.8V426.8C753.633 426.867 755.6 426.933 758 427C760.467 427.067 763.1 427.1 765.9 427.1C768.433 427.1 770.9 427.067 773.3 427C775.767 426.933 777.8 426.867 779.4 426.8Z" fill="#D5B678"/>
<path d="M1048.4 634.4C1042.4 634.4 1037.4 633.267 1033.4 631C1029.4 628.733 1026.47 625.733 1024.6 622C1022.73 618.133 1021.8 613.933 1021.8 609.4C1021.8 603.667 1023.07 599 1025.6 595.4C1028.27 591.8 1031.67 588.867 1035.8 586.6C1039.93 584.333 1044.27 582.467 1048.8 581C1053.47 579.533 1057.87 578.133 1062 576.8C1066.27 575.333 1069.67 573.667 1072.2 571.8C1074.87 569.8 1076.2 567.267 1076.2 564.2V548.6C1076.2 545.133 1075.6 542.067 1074.4 539.4C1073.33 536.6 1071.6 534.467 1069.2 533C1066.93 531.533 1063.93 530.8 1060.2 530.8C1057.53 530.8 1054.87 531.2 1052.2 532C1049.53 532.667 1047.33 533.867 1045.6 535.6C1049.33 536.933 1052.2 539 1054.2 541.8C1056.33 544.467 1057.4 547.533 1057.4 551C1057.4 555.533 1055.8 559.133 1052.6 561.8C1049.53 564.467 1045.87 565.8 1041.6 565.8C1036.8 565.8 1033.13 564.333 1030.6 561.4C1028.2 558.333 1027 554.667 1027 550.4C1027 546.533 1027.93 543.333 1029.8 540.8C1031.8 538.267 1034.53 535.867 1038 533.6C1041.73 531.467 1046.2 529.8 1051.4 528.6C1056.73 527.4 1062.47 526.8 1068.6 526.8C1074.73 526.8 1080.27 527.467 1085.2 528.8C1090.13 530 1094.27 532.267 1097.6 535.6C1100.67 538.667 1102.67 542.467 1103.6 547C1104.53 551.4 1105 557 1105 563.8V618.2C1105 621.533 1105.33 623.867 1106 625.2C1106.67 626.4 1107.8 627 1109.4 627C1110.6 627 1111.73 626.667 1112.8 626C1114 625.333 1115.27 624.533 1116.6 623.6L1118.6 627C1115.8 629.4 1112.53 631.267 1108.8 632.6C1105.2 633.8 1101.13 634.4 1096.6 634.4C1091.67 634.4 1087.73 633.733 1084.8 632.4C1081.87 630.933 1079.73 629 1078.4 626.6C1077.2 624.2 1076.6 621.4 1076.6 618.2C1073.4 623.267 1069.53 627.267 1065 630.2C1060.47 633 1054.93 634.4 1048.4 634.4ZM1062.6 621.6C1065.27 621.6 1067.67 621 1069.8 619.8C1072.07 618.467 1074.2 616.333 1076.2 613.4V572.4C1075 574.4 1073.33 576.2 1071.2 577.8C1069.07 579.4 1066.8 581.067 1064.4 582.8C1062 584.4 1059.67 586.2 1057.4 588.2C1055.27 590.2 1053.53 592.667 1052.2 595.6C1050.87 598.533 1050.2 602.067 1050.2 606.2C1050.2 611.4 1051.33 615.267 1053.6 617.8C1055.87 620.333 1058.87 621.6 1062.6 621.6Z" fill="#D5B678"/>
<path d="M309.84 331.12C304.08 331.12 299.627 329.173 296.48 325.28C293.333 321.333 291.76 315.573 291.76 308H323.2L323.28 309.52H299.6C299.44 316.133 300.293 321.12 302.16 324.48C304.027 327.84 306.587 329.52 309.84 329.52C313.04 329.52 315.573 327.973 317.44 324.88C319.307 321.787 320.24 316.907 320.24 310.24C320.24 303.787 319.12 298.72 316.88 295.04C314.64 291.307 311.733 289.44 308.16 289.44C306.187 289.44 304.32 290.08 302.56 291.36C300.8 292.587 299.36 294.24 298.24 296.32C297.173 298.4 296.64 300.667 296.64 303.12H294.8C294.907 300.56 294.933 298.347 294.88 296.48C294.827 294.56 294.747 292.933 294.64 291.6C294.587 290.267 294.507 289.2 294.4 288.4H296.24C296.4 289.68 296.613 290.587 296.88 291.12C297.147 291.653 297.52 291.92 298 291.92C298.32 291.92 298.667 291.813 299.04 291.6C299.467 291.387 300.027 291.04 300.72 290.56C302.32 289.493 303.813 288.773 305.2 288.4C306.587 287.973 308.107 287.76 309.76 287.76C315.307 287.76 319.733 289.573 323.04 293.2C326.347 296.827 328 302.24 328 309.44C328 316.267 326.427 321.6 323.28 325.44C320.133 329.227 315.653 331.12 309.84 331.12Z" fill="#D5B678"/>
<path d="M534.32 355.82C534.093 357.973 533.923 360.07 533.81 362.11C533.753 364.093 533.725 365.623 533.725 366.7C533.725 368.06 533.753 369.335 533.81 370.525C533.867 371.715 533.923 372.763 533.98 373.67H532.025C531.628 369.703 531.09 366.587 530.41 364.32C529.73 361.997 528.54 360.325 526.84 359.305C525.14 358.285 522.505 357.775 518.935 357.775H514.345V416.935C512.872 416.482 511.115 416.17 509.075 416C507.092 415.83 505.108 415.745 503.125 415.745C502.275 415.745 501.397 415.773 500.49 415.83C499.64 415.83 498.762 415.887 497.855 416V414.3C500.235 414.187 502.048 413.932 503.295 413.535C504.542 413.138 505.363 412.373 505.76 411.24C506.213 410.107 506.44 408.407 506.44 406.14V357.775H501.85C498.337 357.775 495.702 358.285 493.945 359.305C492.245 360.325 491.055 361.997 490.375 364.32C489.695 366.587 489.157 369.703 488.76 373.67H486.805C486.918 372.763 486.975 371.715 486.975 370.525C487.032 369.335 487.06 368.06 487.06 366.7C487.06 365.623 487.003 364.093 486.89 362.11C486.833 360.07 486.692 357.973 486.465 355.82C488.845 355.877 491.423 355.933 494.2 355.99C497.033 356.047 499.867 356.075 502.7 356.075C505.533 356.075 508.112 356.075 510.435 356.075C512.758 356.075 515.308 356.075 518.085 356.075C520.918 356.075 523.752 356.047 526.585 355.99C529.418 355.933 531.997 355.877 534.32 355.82ZM529.815 380.64C533.272 380.64 536.332 381.292 538.995 382.595C541.658 383.898 543.755 385.882 545.285 388.545C546.815 391.152 547.58 394.495 547.58 398.575C547.58 402.938 546.702 406.508 544.945 409.285C543.245 412.005 541.007 414.017 538.23 415.32C535.51 416.567 532.62 417.19 529.56 417.19C527.803 417.19 526.075 416.935 524.375 416.425C522.675 415.915 521.287 415.122 520.21 414.045C519.133 412.968 518.595 411.58 518.595 409.88C518.595 408.52 518.963 407.415 519.7 406.565C520.493 405.715 521.598 405.29 523.015 405.29C524.318 405.29 525.395 405.658 526.245 406.395C527.095 407.132 527.52 408.152 527.52 409.455C527.52 410.475 527.208 411.382 526.585 412.175C526.018 412.912 525.112 413.478 523.865 413.875C524.035 414.385 524.545 414.867 525.395 415.32C526.245 415.717 527.293 415.915 528.54 415.915C532.28 415.915 535 414.527 536.7 411.75C538.457 408.917 539.335 404.78 539.335 399.34C539.335 396.28 539.023 393.56 538.4 391.18C537.777 388.743 536.558 386.845 534.745 385.485C532.988 384.068 530.353 383.36 526.84 383.36C524.233 383.36 521.768 383.813 519.445 384.72C517.178 385.627 515.45 386.788 514.26 388.205V386.42C515.847 384.89 518 383.558 520.72 382.425C523.497 381.235 526.528 380.64 529.815 380.64Z" fill="#D5B678"/>
</svg>
