<svg width="1440" height="900" viewBox="0 0 1440 900" fill="none" xmlns="http://www.w3.org/2000/svg">
<ellipse cx="2.96588" cy="2.97204" rx="2.96588" ry="2.97204" transform="matrix(0.789456 -0.613807 0.607778 0.794107 1371.75 37.6406)" fill="#D5B678"/>
<path d="M1342.54 47.5618C1343.16 48.3764 1343.01 49.5463 1342.21 50.1747C1341.4 50.803 1340.24 50.652 1339.61 49.8374C1338.99 49.0227 1339.14 47.8529 1339.95 47.2245C1340.76 46.5961 1341.92 46.7471 1342.54 47.5618Z" fill="#D5B678"/>
<path d="M1218.56 70.0247C1219.18 70.8393 1219.03 72.0092 1218.22 72.6375C1217.41 73.2659 1216.25 73.1149 1215.63 72.3003C1215.01 71.4856 1215.16 70.3158 1215.96 69.6874C1216.77 69.059 1217.93 69.21 1218.56 70.0247Z" fill="#D5B678"/>
<ellipse cx="2.96588" cy="2.97204" rx="2.96588" ry="2.97204" transform="matrix(0.789456 -0.613807 0.607778 0.794107 1353.39 115.19)" fill="#D5B678"/>
<ellipse cx="2.96588" cy="2.97204" rx="2.96588" ry="2.97204" transform="matrix(0.789456 -0.613807 0.607778 0.794107 1073 123.641)" fill="#D5B678"/>
<ellipse cx="2.96588" cy="2.97204" rx="2.96588" ry="2.97204" transform="matrix(0.789456 -0.613807 0.607778 0.794107 1107 50.6406)" fill="#D5B678"/>
<ellipse cx="2.96588" cy="2.97204" rx="2.96588" ry="2.97204" transform="matrix(0.789456 -0.613807 0.607778 0.794107 978 104.641)" fill="#D5B678"/>
<path d="M1291.56 116.025C1292.18 116.839 1292.03 118.009 1291.22 118.638C1290.41 119.266 1289.25 119.115 1288.63 118.3C1288.01 117.486 1288.16 116.316 1288.96 115.687C1289.77 115.059 1290.93 115.21 1291.56 116.025Z" fill="#D5B678"/>
<path d="M1365.64 67.0247C1366.26 67.8393 1366.11 69.0092 1365.3 69.6375C1364.5 70.2659 1363.33 70.1149 1362.71 69.3003C1362.09 68.4856 1362.24 67.3158 1363.05 66.6874C1363.85 66.059 1365.01 66.21 1365.64 67.0247Z" fill="#D5B678"/>
<path d="M1323.7 146.506L1326.27 158.815L1338.48 161.407L1326.27 163.999L1323.7 176.309L1321.13 163.999L1308.91 161.407L1321.13 158.815L1323.7 146.506Z" fill="#D5B678"/>
<path d="M1267.56 154.025C1268.18 154.839 1268.03 156.009 1267.22 156.638C1266.41 157.266 1265.25 157.115 1264.63 156.3C1264.01 155.486 1264.16 154.316 1264.97 153.687C1265.77 153.059 1266.93 153.21 1267.56 154.025Z" fill="#D5B678"/>
<path d="M1154.06 75.4748C1154.68 76.2895 1154.53 77.4593 1153.72 78.0877C1152.91 78.7162 1151.75 78.5652 1151.13 77.7505C1150.51 76.9358 1150.66 75.766 1151.46 75.1376C1152.27 74.5092 1153.43 74.6602 1154.06 75.4748Z" fill="#D5B678"/>
<path d="M1149.06 115.475C1149.68 116.29 1149.53 117.459 1148.72 118.088C1147.91 118.716 1146.75 118.565 1146.13 117.75C1145.51 116.936 1145.66 115.766 1146.46 115.138C1147.27 114.509 1148.43 114.66 1149.06 115.475Z" fill="#D5B678"/>
<path d="M1074.06 93.4748C1074.68 94.2895 1074.53 95.4593 1073.72 96.0877C1072.91 96.7162 1071.75 96.5652 1071.13 95.7505C1070.51 94.9358 1070.66 93.766 1071.46 93.1376C1072.27 92.5092 1073.43 92.6602 1074.06 93.4748Z" fill="#D5B678"/>
<path d="M1033.06 120.475C1033.68 121.29 1033.53 122.459 1032.72 123.088C1031.91 123.716 1030.75 123.565 1030.13 122.75C1029.51 121.936 1029.66 120.766 1030.46 120.138C1031.27 119.509 1032.43 119.66 1033.06 120.475Z" fill="#D5B678"/>
<path d="M1033.06 72.4748C1033.68 73.2895 1033.53 74.4593 1032.72 75.0877C1031.91 75.7162 1030.75 75.5652 1030.13 74.7505C1029.51 73.9358 1029.66 72.766 1030.46 72.1376C1031.27 71.5092 1032.43 71.6602 1033.06 72.4748Z" fill="#D5B678"/>
<path d="M961.056 30.4748C961.679 31.2895 961.529 32.4593 960.721 33.0877C959.913 33.7162 958.752 33.5652 958.129 32.7505C957.505 31.9358 957.655 30.766 958.463 30.1376C959.272 29.5092 960.432 29.6602 961.056 30.4748Z" fill="#D5B678"/>
<path d="M859.056 52.4748C859.679 53.2895 859.529 54.4593 858.721 55.0877C857.913 55.7162 856.752 55.5652 856.129 54.7505C855.505 53.9358 855.655 52.766 856.463 52.1376C857.272 51.5092 858.432 51.6602 859.056 52.4748Z" fill="#D5B678"/>
<path d="M287.056 42.4748C287.679 43.2895 287.529 44.4593 286.721 45.0877C285.913 45.7162 284.752 45.5652 284.129 44.7505C283.505 43.9358 283.655 42.766 284.463 42.1376C285.272 41.5092 286.432 41.6602 287.056 42.4748Z" fill="#D5B678"/>
<path d="M1159.06 193.475C1159.68 194.29 1159.53 195.459 1158.72 196.088C1157.91 196.716 1156.75 196.565 1156.13 195.75C1155.51 194.936 1155.66 193.766 1156.46 193.138C1157.27 192.509 1158.43 192.66 1159.06 193.475Z" fill="#D5B678"/>
<path d="M1362.06 583.475C1362.68 584.29 1362.53 585.459 1361.72 586.088C1360.91 586.716 1359.75 586.565 1359.13 585.75C1358.51 584.936 1358.66 583.766 1359.46 583.138C1360.27 582.509 1361.43 582.66 1362.06 583.475Z" fill="#D5B678"/>
<path d="M1412.06 636.475C1412.68 637.29 1412.53 638.459 1411.72 639.088C1410.91 639.716 1409.75 639.565 1409.13 638.75C1408.51 637.936 1408.66 636.766 1409.46 636.138C1410.27 635.509 1411.43 635.66 1412.06 636.475Z" fill="#D5B678"/>
<ellipse cx="2.96588" cy="2.97204" rx="2.96588" ry="2.97204" transform="matrix(0.789456 -0.613807 0.607778 0.794107 1376.39 160.19)" fill="#D5B678"/>
<path d="M1320.14 161.401L1322.6 160.303L1323.69 157.82L1324.8 160.303L1327.25 161.401L1324.8 162.511L1323.69 164.983L1322.6 162.511L1320.14 161.401Z" fill="#D5B678"/>
<path d="M1365.64 322.025C1366.26 322.839 1366.11 324.009 1365.3 324.638C1364.5 325.266 1363.33 325.115 1362.71 324.3C1362.09 323.486 1362.24 322.316 1363.05 321.687C1363.85 321.059 1365.01 321.21 1365.64 322.025Z" fill="#D5B678"/>
<ellipse cx="2.96588" cy="2.97204" rx="2.96588" ry="2.97204" transform="matrix(0.789456 -0.613807 0.607778 0.794107 1300.03 201.504)" fill="#D5B678"/>
<path d="M1243.75 212.437C1244.38 213.251 1244.23 214.421 1243.42 215.05C1242.61 215.678 1241.45 215.527 1240.83 214.712C1240.2 213.898 1240.35 212.728 1241.16 212.1C1241.97 211.471 1243.13 211.622 1243.75 212.437Z" fill="#D5B678"/>
<path d="M1342.48 211.275L1343.5 221.744L1353.88 222.768L1343.5 223.792L1342.48 234.261L1341.46 223.792L1331.08 222.768L1341.46 221.744L1342.48 211.275Z" fill="#D5B678"/>
<path d="M1397.98 73.5498L1399 84.0186L1409.39 85.0425L1399 86.0665L1397.98 96.5352L1396.97 86.0665L1386.58 85.0425L1396.97 84.0186L1397.98 73.5498Z" fill="#D5B678"/>
<path d="M1267.28 244.55L1268.3 255.019L1278.69 256.043L1268.3 257.066L1267.28 267.535L1266.27 257.066L1255.88 256.043L1266.27 255.019L1267.28 244.55Z" fill="#D5B678"/>
<path d="M1288.4 51L1289.42 61.4688L1299.8 62.4927L1289.42 63.5167L1288.4 73.9854L1287.39 63.5167L1277 62.4927L1287.39 61.4688L1288.4 51Z" fill="#D5B678"/>
<path d="M1202.4 109L1203.42 119.469L1213.8 120.493L1203.42 121.517L1202.4 131.985L1201.39 121.517L1191 120.493L1201.39 119.469L1202.4 109Z" fill="#D5B678"/>
<path d="M1316.79 263.396C1317.41 264.21 1317.26 265.38 1316.46 266.009C1315.65 266.637 1314.49 266.486 1313.86 265.671C1313.24 264.857 1313.39 263.687 1314.2 263.058C1315.01 262.43 1316.17 262.581 1316.79 263.396Z" fill="#D5B678"/>
<path d="M1248.78 280.532C1249.4 281.347 1249.26 282.517 1248.45 283.145C1247.64 283.774 1246.48 283.623 1245.85 282.808C1245.23 281.993 1245.38 280.824 1246.19 280.195C1247 279.567 1248.16 279.718 1248.78 280.532Z" fill="#D5B678"/>
<path d="M1390.56 286.025C1391.18 286.839 1391.03 288.009 1390.22 288.638C1389.41 289.266 1388.25 289.115 1387.63 288.3C1387.01 287.486 1387.16 286.316 1387.96 285.687C1388.77 285.059 1389.93 285.21 1390.56 286.025Z" fill="#D5B678"/>
<ellipse cx="2.96588" cy="2.97204" rx="2.96588" ry="2.97204" transform="matrix(0.789456 -0.613807 0.607778 0.794107 1302.39 297.601)" fill="#D5B678"/>
<ellipse cx="2.96588" cy="2.97204" rx="2.96588" ry="2.97204" transform="matrix(0.789456 -0.613807 0.607778 0.794107 1302.39 297.601)" fill="#D5B678"/>
<path d="M1266.75 332.437C1267.38 333.251 1267.23 334.421 1266.42 335.05C1265.61 335.678 1264.45 335.527 1263.83 334.712C1263.2 333.898 1263.35 332.728 1264.16 332.1C1264.97 331.471 1266.13 331.622 1266.75 332.437Z" fill="#D5B678"/>
<path d="M1405.06 357.437C1405.68 358.251 1405.53 359.421 1404.72 360.05C1403.91 360.678 1402.75 360.527 1402.13 359.712C1401.51 358.898 1401.66 357.728 1402.46 357.1C1403.27 356.471 1404.43 356.622 1405.06 357.437Z" fill="#D5B678"/>
<path d="M1312.06 374.437C1312.68 375.251 1312.53 376.421 1311.72 377.05C1310.91 377.678 1309.75 377.527 1309.13 376.712C1308.51 375.898 1308.66 374.728 1309.46 374.1C1310.27 373.471 1311.43 373.622 1312.06 374.437Z" fill="#D5B678"/>
<path d="M1369.93 440.849C1369.31 441.664 1369.46 442.833 1370.27 443.462C1371.07 444.09 1372.24 443.939 1372.86 443.124C1373.48 442.31 1373.33 441.14 1372.52 440.512C1371.72 439.883 1370.56 440.034 1369.93 440.849Z" fill="#D5B678"/>
<path d="M1311.13 519.437C1310.51 520.251 1310.66 521.421 1311.46 522.05C1312.27 522.678 1313.43 522.527 1314.06 521.712C1314.68 520.898 1314.53 519.728 1313.72 519.1C1312.91 518.471 1311.75 518.622 1311.13 519.437Z" fill="#D5B678"/>
<path d="M1363.13 511.437C1362.51 512.251 1362.66 513.421 1363.46 514.05C1364.27 514.678 1365.43 514.527 1366.06 513.712C1366.68 512.898 1366.53 511.728 1365.72 511.1C1364.91 510.471 1363.75 510.622 1363.13 511.437Z" fill="#D5B678"/>
<path d="M1387.9 388.945C1387.28 389.759 1387.43 390.929 1388.24 391.557C1389.05 392.186 1390.21 392.035 1390.83 391.22C1391.46 390.406 1391.31 389.236 1390.5 388.607C1389.69 387.979 1388.53 388.13 1387.9 388.945Z" fill="#D5B678"/>
<ellipse cx="2.96588" cy="2.97204" rx="2.96588" ry="2.97204" transform="matrix(-0.789456 -0.613807 -0.607778 0.794107 1334.3 406.013)" fill="#D5B678"/>
<ellipse cx="2.96588" cy="2.97204" rx="2.96588" ry="2.97204" transform="matrix(-0.789456 -0.613807 -0.607778 0.794107 1334.3 406.013)" fill="#D5B678"/>
<ellipse cx="2.96588" cy="2.97204" rx="2.96588" ry="2.97204" transform="matrix(-0.789456 -0.613807 -0.607778 0.794107 1417.3 479.603)" fill="#D5B678"/>
<path d="M1369.4 352.962L1368.39 363.431L1358 364.455L1368.39 365.479L1369.4 375.947L1370.42 365.479L1380.8 364.455L1370.42 363.431L1369.4 352.962Z" fill="#D5B678"/>
<path d="M1392.4 530.962L1391.39 541.431L1381 542.455L1391.39 543.479L1392.4 553.947L1393.42 543.479L1403.8 542.455L1393.42 541.431L1392.4 530.962Z" fill="#D5B678"/>
<path d="M1218.06 372.437C1218.68 373.251 1218.53 374.421 1217.72 375.05C1216.91 375.678 1215.75 375.527 1215.13 374.712C1214.51 373.898 1214.66 372.728 1215.46 372.1C1216.27 371.471 1217.43 371.622 1218.06 372.437Z" fill="#D5B678"/>
<path d="M1283.06 460.437C1283.68 461.251 1283.53 462.421 1282.72 463.05C1281.91 463.678 1280.75 463.527 1280.13 462.712C1279.51 461.898 1279.66 460.728 1280.46 460.1C1281.27 459.471 1282.43 459.622 1283.06 460.437Z" fill="#D5B678"/>
<path d="M50.9182 411L49.6197 449.925L11 451.234L49.6197 452.542L50.9182 491.467L52.2166 452.542L90.8363 451.234L52.2166 449.925L50.9182 411Z" fill="#D5B678"/>
<path d="M64.2241 451.234C64.2241 451.234 57.7827 449.932 54.9968 447.124C52.2109 444.316 50.9183 437.823 50.9183 437.823C50.9183 437.823 49.592 444.317 46.7947 447.124C44.014 449.914 37.6124 451.234 37.6124 451.234C37.6124 451.234 44.0152 452.589 46.7947 455.391C49.5743 458.192 50.9183 464.645 50.9183 464.645C50.9183 464.645 52.2286 458.193 54.9968 455.391C57.7814 452.571 64.2241 451.234 64.2241 451.234Z" fill="#D5B678"/>
<path d="M188.056 636.475C188.679 637.29 188.53 638.459 187.721 639.088C186.913 639.716 185.752 639.565 185.129 638.75C184.505 637.936 184.655 636.766 185.463 636.138C186.272 635.509 187.432 635.66 188.056 636.475Z" fill="#D5B678"/>
<path d="M260.056 666.475C260.679 667.29 260.53 668.459 259.721 669.088C258.913 669.716 257.752 669.565 257.129 668.75C256.505 667.936 256.655 666.766 257.463 666.138C258.272 665.509 259.432 665.66 260.056 666.475Z" fill="#D5B678"/>
<path d="M99.0557 645.475C99.6793 646.29 99.5295 647.459 98.7213 648.088C97.9131 648.716 96.7525 648.565 96.129 647.75C95.5055 646.936 95.6552 645.766 96.4634 645.138C97.2716 644.509 98.4322 644.66 99.0557 645.475Z" fill="#D5B678"/>
<path d="M143.056 704.475C143.679 705.29 143.53 706.459 142.721 707.088C141.913 707.716 140.752 707.565 140.129 706.75C139.505 705.936 139.655 704.766 140.463 704.138C141.272 703.509 142.432 703.66 143.056 704.475Z" fill="#D5B678"/>
<path d="M230.056 715.475C230.679 716.29 230.53 717.459 229.721 718.088C228.913 718.716 227.752 718.565 227.129 717.75C226.505 716.936 226.655 715.766 227.463 715.138C228.272 714.509 229.432 714.66 230.056 715.475Z" fill="#D5B678"/>
<path d="M177.056 399.475C177.679 400.29 177.53 401.459 176.721 402.088C175.913 402.716 174.752 402.565 174.129 401.75C173.505 400.936 173.655 399.766 174.463 399.138C175.272 398.509 176.432 398.66 177.056 399.475Z" fill="#D5B678"/>
<path d="M160.167 466.475C160.79 467.29 160.64 468.459 159.832 469.088C159.024 469.716 157.863 469.565 157.24 468.75C156.616 467.936 156.766 466.766 157.574 466.138C158.382 465.509 159.543 465.66 160.167 466.475Z" fill="#D5B678"/>
<path d="M99.0557 394.475C99.6792 395.29 99.5295 396.459 98.7213 397.088C97.9131 397.716 96.7524 397.565 96.1289 396.75C95.5054 395.936 95.6552 394.766 96.4634 394.138C97.2716 393.509 98.4322 393.66 99.0557 394.475Z" fill="#D5B678"/>
<path d="M40.3907 510.983C41.0141 511.797 40.8644 512.967 40.0562 513.596C39.248 514.224 38.0874 514.073 37.4639 513.258C36.8404 512.444 36.9901 511.274 37.7983 510.645C38.6065 510.017 39.7672 510.168 40.3907 510.983Z" fill="#D5B678"/>
<ellipse cx="2.96588" cy="2.97204" rx="2.96588" ry="2.97204" transform="matrix(0.789456 -0.613807 0.607778 0.794107 81 486.641)" fill="#D5B678"/>
<ellipse cx="2.96588" cy="2.97204" rx="2.96588" ry="2.97204" transform="matrix(0.789456 -0.613807 0.607778 0.794107 190.889 680.641)" fill="#D5B678"/>
<ellipse cx="2.96588" cy="2.97204" rx="2.96588" ry="2.97204" transform="matrix(0.789456 -0.613807 0.607778 0.794107 54 831.641)" fill="#D5B678"/>
<ellipse cx="2.96588" cy="2.97204" rx="2.96588" ry="2.97204" transform="matrix(0.789456 -0.613807 0.607778 0.794107 130 426.641)" fill="#D5B678"/>
<path d="M80.4022 408L81.4181 418.469L91.8044 419.493L81.4181 420.517L80.4022 430.985L79.3863 420.517L69 419.493L79.3863 418.469L80.4022 408Z" fill="#D5B678"/>
<path d="M144.782 654L145.798 664.469L156.185 665.493L145.798 666.517L144.782 676.985L143.767 666.517L133.38 665.493L143.767 664.469L144.782 654Z" fill="#D5B678"/>
<path d="M135.056 508.475C135.679 509.29 135.53 510.459 134.721 511.088C133.913 511.716 132.752 511.565 132.129 510.75C131.505 509.936 131.655 508.766 132.463 508.138C133.272 507.509 134.432 507.66 135.056 508.475Z" fill="#D5B678"/>
<path d="M43.0557 678.475C43.6793 679.29 43.5295 680.459 42.7213 681.088C41.9131 681.716 40.7525 681.565 40.129 680.75C39.5055 679.936 39.6552 678.766 40.4634 678.138C41.2716 677.509 42.4322 677.66 43.0557 678.475Z" fill="#D5B678"/>
<path d="M232.056 486.475C232.679 487.29 232.53 488.459 231.721 489.088C230.913 489.716 229.752 489.565 229.129 488.75C228.505 487.936 228.655 486.766 229.463 486.138C230.272 485.509 231.432 485.66 232.056 486.475Z" fill="#D5B678"/>
<path d="M90.0557 576.475C90.6793 577.29 90.5295 578.459 89.7213 579.088C88.9131 579.716 87.7525 579.565 87.129 578.75C86.5055 577.936 86.6552 576.766 87.4634 576.138C88.2716 575.509 89.4322 575.66 90.0557 576.475Z" fill="#D5B678"/>
<path d="M138.056 607.475C138.679 608.29 138.53 609.459 137.721 610.088C136.913 610.716 135.752 610.565 135.129 609.75C134.505 608.936 134.655 607.766 135.463 607.138C136.272 606.509 137.432 606.66 138.056 607.475Z" fill="#D5B678"/>
<ellipse cx="2.96588" cy="2.97204" rx="2.96588" ry="2.97204" transform="matrix(0.789456 -0.613807 0.607778 0.794107 137.889 552.641)" fill="#D5B678"/>
<path d="M91.7825 526L92.7984 536.469L103.185 537.493L92.7984 538.517L91.7825 548.985L90.7666 538.517L80.3802 537.493L90.7666 536.469L91.7825 526Z" fill="#D5B678"/>
<path d="M184.401 581L186.972 593.309L199.185 595.901L186.972 598.493L184.401 610.803L181.829 598.493L169.617 595.901L181.829 593.309L184.401 581Z" fill="#D5B678"/>
<path d="M337.676 651.475C338.299 652.29 338.149 653.459 337.341 654.088C336.533 654.716 335.372 654.565 334.749 653.75C334.125 652.936 334.275 651.766 335.083 651.138C335.891 650.509 337.052 650.66 337.676 651.475Z" fill="#D5B678"/>
<path d="M409.676 681.475C410.299 682.29 410.149 683.459 409.341 684.088C408.533 684.716 407.372 684.565 406.749 683.75C406.125 682.936 406.275 681.766 407.083 681.138C407.891 680.509 409.052 680.66 409.676 681.475Z" fill="#D5B678"/>
<path d="M292.676 719.475C293.299 720.29 293.149 721.459 292.341 722.088C291.533 722.716 290.372 722.565 289.749 721.75C289.125 720.936 289.275 719.766 290.083 719.138C290.891 718.509 292.052 718.66 292.676 719.475Z" fill="#D5B678"/>
<path d="M437.056 604.475C437.679 605.29 437.53 606.459 436.721 607.088C435.913 607.716 434.752 607.565 434.129 606.75C433.505 605.936 433.655 604.766 434.463 604.138C435.272 603.509 436.432 603.66 437.056 604.475Z" fill="#D5B678"/>
<path d="M282.056 765.475C282.679 766.29 282.53 767.459 281.721 768.088C280.913 768.716 279.752 768.565 279.129 767.75C278.505 766.936 278.655 765.766 279.463 765.138C280.272 764.509 281.432 764.66 282.056 765.475Z" fill="#D5B678"/>
<path d="M610.056 743.475C610.679 744.29 610.53 745.459 609.721 746.088C608.913 746.716 607.752 746.565 607.129 745.75C606.505 744.936 606.655 743.766 607.463 743.138C608.272 742.509 609.432 742.66 610.056 743.475Z" fill="#D5B678"/>
<path d="M570.056 680.475C570.679 681.29 570.53 682.459 569.721 683.088C568.913 683.716 567.752 683.565 567.129 682.75C566.505 681.936 566.655 680.766 567.463 680.138C568.272 679.509 569.432 679.66 570.056 680.475Z" fill="#D5B678"/>
<path d="M929.056 795.475C929.679 796.29 929.53 797.459 928.721 798.088C927.913 798.716 926.752 798.565 926.129 797.75C925.505 796.936 925.655 795.766 926.463 795.138C927.272 794.509 928.432 794.66 929.056 795.475Z" fill="#D5B678"/>
<path d="M195.056 793.475C195.679 794.29 195.53 795.459 194.721 796.088C193.913 796.716 192.752 796.565 192.129 795.75C191.505 794.936 191.655 793.766 192.463 793.138C193.272 792.509 194.432 792.66 195.056 793.475Z" fill="#D5B678"/>
<path d="M308.056 860.475C308.679 861.29 308.53 862.459 307.721 863.088C306.913 863.716 305.752 863.565 305.129 862.75C304.505 861.936 304.655 860.766 305.463 860.138C306.272 859.509 307.432 859.66 308.056 860.475Z" fill="#D5B678"/>
<path d="M83.0557 853.475C83.6793 854.29 83.5295 855.459 82.7213 856.088C81.9131 856.716 80.7525 856.565 80.129 855.75C79.5055 854.936 79.6552 853.766 80.4634 853.138C81.2716 852.509 82.4322 852.66 83.0557 853.475Z" fill="#D5B678"/>
<path d="M40.0557 877.475C40.6793 878.29 40.5295 879.459 39.7213 880.088C38.9131 880.716 37.7525 880.565 37.129 879.75C36.5055 878.936 36.6552 877.766 37.4634 877.138C38.2716 876.509 39.4322 876.66 40.0557 877.475Z" fill="#D5B678"/>
<path d="M379.676 730.475C380.299 731.29 380.149 732.459 379.341 733.088C378.533 733.716 377.372 733.565 376.749 732.75C376.125 731.936 376.275 730.766 377.083 730.138C377.891 729.509 379.052 729.66 379.676 730.475Z" fill="#D5B678"/>
<ellipse cx="2.96588" cy="2.97204" rx="2.96588" ry="2.97204" transform="matrix(0.789456 -0.613807 0.607778 0.794107 340.509 695.641)" fill="#D5B678"/>
<path d="M294.402 669L295.418 679.469L305.804 680.493L295.418 681.517L294.402 691.985L293.386 681.517L283 680.493L293.386 679.469L294.402 669Z" fill="#D5B678"/>
<path d="M415.056 730.475C415.679 731.29 415.53 732.459 414.721 733.088C413.913 733.716 412.752 733.565 412.129 732.75C411.505 731.936 411.655 730.766 412.463 730.138C413.272 729.509 414.432 729.66 415.056 730.475Z" fill="#D5B678"/>
<path d="M492.676 715.475C493.299 716.29 493.149 717.459 492.341 718.088C491.533 718.716 490.372 718.565 489.749 717.75C489.125 716.936 489.275 715.766 490.083 715.138C490.891 714.509 492.052 714.66 492.676 715.475Z" fill="#D5B678"/>
<path d="M534.676 794.475C535.299 795.29 535.149 796.459 534.341 797.088C533.533 797.716 532.372 797.565 531.749 796.75C531.125 795.936 531.275 794.766 532.083 794.138C532.891 793.509 534.052 793.66 534.676 794.475Z" fill="#D5B678"/>
<ellipse cx="2.96588" cy="2.97204" rx="2.96588" ry="2.97204" transform="matrix(0.789456 -0.613807 0.607778 0.794107 495.509 759.641)" fill="#D5B678"/>
<path d="M449.402 733L450.418 743.469L460.804 744.493L450.418 745.517L449.402 755.985L448.386 745.517L438 744.493L448.386 743.469L449.402 733Z" fill="#D5B678"/>
<path d="M386.056 798.475C386.679 799.29 386.53 800.459 385.721 801.088C384.913 801.716 383.752 801.565 383.129 800.75C382.505 799.936 382.655 798.766 383.463 798.138C384.272 797.509 385.432 797.66 386.056 798.475Z" fill="#D5B678"/>
<path d="M463.676 783.475C464.299 784.29 464.149 785.459 463.341 786.088C462.533 786.716 461.372 786.565 460.749 785.75C460.125 784.936 460.275 783.766 461.083 783.138C461.891 782.509 463.052 782.66 463.676 783.475Z" fill="#D5B678"/>
<path d="M418.676 851.475C419.299 852.29 419.149 853.459 418.341 854.088C417.533 854.716 416.372 854.565 415.749 853.75C415.125 852.936 415.275 851.766 416.083 851.138C416.891 850.509 418.052 850.66 418.676 851.475Z" fill="#D5B678"/>
<path d="M505.676 862.475C506.299 863.29 506.149 864.459 505.341 865.088C504.533 865.716 503.372 865.565 502.749 864.75C502.125 863.936 502.275 862.766 503.083 862.138C503.891 861.509 505.052 861.66 505.676 862.475Z" fill="#D5B678"/>
<ellipse cx="2.96588" cy="2.97204" rx="2.96588" ry="2.97204" transform="matrix(0.789456 -0.613807 0.607778 0.794107 466.509 827.641)" fill="#D5B678"/>
<path d="M420.402 801L421.418 811.469L431.804 812.493L421.418 813.517L420.402 823.985L419.386 813.517L409 812.493L419.386 811.469L420.402 801Z" fill="#D5B678"/>
<path d="M535.056 829.475C535.679 830.29 535.53 831.459 534.721 832.088C533.913 832.716 532.752 832.565 532.129 831.75C531.505 830.936 531.655 829.766 532.463 829.138C533.272 828.509 534.432 828.66 535.056 829.475Z" fill="#D5B678"/>
<path d="M612.676 814.475C613.299 815.29 613.149 816.459 612.341 817.088C611.533 817.716 610.372 817.565 609.749 816.75C609.125 815.936 609.275 814.766 610.083 814.138C610.891 813.509 612.052 813.66 612.676 814.475Z" fill="#D5B678"/>
<path d="M699.056 857.475C699.679 858.29 699.53 859.459 698.721 860.088C697.913 860.716 696.752 860.565 696.129 859.75C695.505 858.936 695.655 857.766 696.463 857.138C697.272 856.509 698.432 856.66 699.056 857.475Z" fill="#D5B678"/>
<path d="M851.056 880.475C851.679 881.29 851.53 882.459 850.721 883.088C849.913 883.716 848.752 883.565 848.129 882.75C847.505 881.936 847.655 880.766 848.463 880.138C849.272 879.509 850.432 879.66 851.056 880.475Z" fill="#D5B678"/>
<path d="M776.056 890.475C776.679 891.29 776.53 892.459 775.721 893.088C774.913 893.716 773.752 893.565 773.129 892.75C772.505 891.936 772.655 890.766 773.463 890.138C774.272 889.509 775.432 889.66 776.056 890.475Z" fill="#D5B678"/>
<path d="M567.676 882.475C568.299 883.29 568.149 884.459 567.341 885.088C566.533 885.716 565.372 885.565 564.749 884.75C564.125 883.936 564.275 882.766 565.083 882.138C565.891 881.509 567.052 881.66 567.676 882.475Z" fill="#D5B678"/>
<path d="M654.676 893.475C655.299 894.29 655.149 895.459 654.341 896.088C653.533 896.716 652.372 896.565 651.749 895.75C651.125 894.936 651.275 893.766 652.083 893.138C652.891 892.509 654.052 892.66 654.676 893.475Z" fill="#D5B678"/>
<ellipse cx="2.96588" cy="2.97204" rx="2.96588" ry="2.97204" transform="matrix(0.789456 -0.613807 0.607778 0.794107 615.509 858.641)" fill="#D5B678"/>
<path d="M569.402 832L570.418 842.469L580.804 843.493L570.418 844.517L569.402 854.985L568.386 844.517L558 843.493L568.386 842.469L569.402 832Z" fill="#D5B678"/>
<path d="M287.676 622.475C288.299 623.29 288.149 624.459 287.341 625.088C286.533 625.716 285.372 625.565 284.749 624.75C284.125 623.936 284.275 622.766 285.083 622.138C285.891 621.509 287.052 621.66 287.676 622.475Z" fill="#D5B678"/>
<ellipse cx="2.96588" cy="2.97204" rx="2.96588" ry="2.97204" transform="matrix(0.789456 -0.613807 0.607778 0.794107 287.509 567.641)" fill="#D5B678"/>
<path d="M241.402 541L242.418 551.469L252.804 552.493L242.418 553.517L241.402 563.985L240.386 553.517L230 552.493L240.386 551.469L241.402 541Z" fill="#D5B678"/>
<path d="M334.02 596L336.592 608.309L348.805 610.901L336.592 613.493L334.02 625.803L331.449 613.493L319.236 610.901L331.449 608.309L334.02 596Z" fill="#D5B678"/>
</svg>
