<svg width="674" height="547" viewBox="0 0 674 547" fill="none" xmlns="http://www.w3.org/2000/svg">
<circle cx="335.003" cy="273.385" r="235.805" stroke="#D5B678"/>
<circle cx="335.003" cy="273.385" r="272.885" stroke="#D5B678"/>
<circle cx="335.003" cy="273.384" r="164.788" stroke="#D5B678"/>
<path d="M334.326 433.744L334.326 113.125" stroke="#D5B678" stroke-width="3" stroke-linecap="round"/>
<path d="M302.212 430.701L366.542 116.383" stroke="#D5B678" stroke-width="3" stroke-linecap="round"/>
<path d="M271.353 421.061L397.4 126.024" stroke="#D5B678" stroke-width="3" stroke-linecap="round"/>
<path d="M243.054 405.428L425.699 141.656" stroke="#D5B678" stroke-width="3" stroke-linecap="round"/>
<path d="M218.464 384.439L450.288 162.647" stroke="#D5B678" stroke-width="3" stroke-linecap="round"/>
<path d="M198.582 358.946L470.169 188.14" stroke="#D5B678" stroke-width="3" stroke-linecap="round"/>
<path d="M184.215 329.983L484.535 217.101" stroke="#D5B678" stroke-width="3" stroke-linecap="round"/>
<path d="M175.948 298.729L492.802 248.356" stroke="#D5B678" stroke-width="3" stroke-linecap="round"/>
<path d="M174.114 266.452L494.634 280.634" stroke="#D5B678" stroke-width="3" stroke-linecap="round"/>
<path d="M178.791 234.464L489.958 312.625" stroke="#D5B678" stroke-width="3" stroke-linecap="round"/>
<path d="M189.786 204.061L478.962 343.026" stroke="#D5B678" stroke-width="3" stroke-linecap="round"/>
<path d="M206.654 176.479L462.094 370.605" stroke="#D5B678" stroke-width="3" stroke-linecap="round"/>
<path d="M228.709 152.841L440.038 394.242" stroke="#D5B678" stroke-width="3" stroke-linecap="round"/>
<path d="M255.056 134.106L413.691 412.978" stroke="#D5B678" stroke-width="3" stroke-linecap="round"/>
<path d="M284.625 121.033L384.122 426.049" stroke="#D5B678" stroke-width="3" stroke-linecap="round"/>
<path d="M309.55 114.068L358.751 433.782" stroke="#D5B678" stroke-width="3" stroke-linecap="round"/>
<path d="M277.498 194.828C313.031 197.817 347.887 209.38 365.798 218.081C383.71 226.783 398.479 247.299 397.222 254.215C395.965 261.132 374.597 284.068 363.284 284.385C351.972 284.703 321.177 264.899 307.664 267.728C294.152 270.556 283.635 285.752 267.128 294.438C249.218 303.861 228.163 305.436 219.679 312.981C212.689 319.196 201.222 349.075 192.654 364.86C192.654 364.86 196.739 382.427 193.597 395.939C194.108 403.018 189.826 433.015 182.285 428.302C176.314 415.732 174.682 400.649 174.682 400.649C173.439 394.572 173.172 388.079 173.172 388.079C167.368 393.533 161.869 397.44 159.031 395.939C156.191 394.437 160.368 377.476 164.904 361.919C168.899 348.216 173.172 335.602 173.172 335.602C173.172 335.602 183.542 306.693 197.682 275.898L175.057 312.981C175.057 312.981 154.608 331.854 149.604 348.172C144.058 366.26 151.579 377.86 148.18 394.993C148.18 394.993 147.09 413.533 145.205 421.703C143.319 429.873 139.863 440.557 135.149 438.043C130.436 435.529 129.206 409.133 129.206 409.133C128.844 406.985 128.536 404.487 128.236 401.592C125.604 376.195 121.637 355.399 122.58 334.031C123.003 324.441 141.748 312.981 141.748 312.981L146.776 307.321L135.149 312.981C135.149 312.981 115.437 323.422 108.439 335.602C99.9551 350.371 101.84 354.456 90.528 372.685C86.8963 380.673 82.9289 386.245 79.2155 389.709C79.2155 389.709 75.5176 397.862 70.7312 404.106C67.5221 408.292 64.1322 412.59 61.6183 411.333C59.1045 410.076 59.2395 405.962 60.0472 400.335C61.3308 391.392 65.2548 380.538 65.2548 380.538C65.3435 380.016 65.4347 379.491 65.5247 378.967C66.603 372.682 67.903 367.026 70.1027 361.055C72.3023 355.085 79.5297 335.602 79.5297 335.602L122.58 302.608L126.665 291.924H82.9862C63.5037 307.007 47.9165 311.694 22.9674 316.434C21.0153 316.805 17.4328 317.609 14.7972 318.005C5.37006 320.833 -0.241621 320.344 2.85621 317.691C9.01253 310.989 19.1274 305.47 25.7954 300.722C35.5367 296.009 42.6399 290.112 49.9915 285.325C60.641 278.391 60.9897 276.837 75.7588 264.27C90.5279 251.702 137.663 260.5 172.543 238.816C207.423 217.133 233.774 191.151 277.498 194.828Z" fill="black"/>
<path d="M187.627 372.685C187.627 372.685 184.438 363.503 179.456 361.055C174.347 358.545 164.904 361.919 164.904 361.919M187.627 372.685C183.65 377.253 178.292 383.268 173.172 388.079M187.627 372.685C189.122 370.968 190.822 368.237 192.654 364.86M65.2548 380.538C65.3435 380.016 65.4347 379.491 65.5247 378.967C66.603 372.682 67.903 367.026 70.1027 361.055C72.3023 355.085 79.5297 335.602 79.5297 335.602L122.58 302.608L126.665 291.924H82.9862C63.5038 307.007 47.9165 311.694 22.9674 316.434C21.0153 316.805 17.4328 317.609 14.7972 318.005M65.2548 380.538C64.2804 386.272 63.6091 391.72 68.2173 393.736C70.9208 394.919 74.8963 393.739 79.2155 389.709M65.2548 380.538C65.2548 380.538 61.3308 391.392 60.0472 400.335C59.2395 405.962 59.1045 410.076 61.6183 411.333C64.1322 412.59 67.5221 408.292 70.7312 404.106C75.5176 397.862 79.2155 389.709 79.2155 389.709M79.2155 389.709C82.9289 386.245 86.8963 380.673 90.528 372.685C101.84 354.456 99.9551 350.371 108.439 335.602C115.437 323.422 135.149 312.981 135.149 312.981L146.776 307.321L141.748 312.981C141.748 312.981 123.003 324.441 122.58 334.031C121.637 355.399 125.604 376.195 128.236 401.592C128.536 404.487 128.844 406.985 129.206 409.133M14.7972 318.005C5.37006 320.833 -0.241621 320.344 2.85621 317.691C9.01253 310.989 19.1274 305.47 25.7954 300.722M14.7972 318.005C28.3093 306.384 27.995 303.161 25.7954 300.722M25.7954 300.722C35.5367 296.009 42.6399 290.112 49.9915 285.325C60.641 278.391 60.9897 276.837 75.7588 264.27C90.5279 251.702 137.663 260.5 172.543 238.816C207.423 217.133 233.774 191.151 277.498 194.828C313.031 197.817 347.887 209.38 365.798 218.081C383.71 226.783 398.479 247.299 397.222 254.215C395.965 261.132 374.597 284.068 363.284 284.385C351.972 284.703 321.177 264.899 307.664 267.728C294.152 270.556 283.635 285.752 267.128 294.438C249.218 303.861 228.163 305.436 219.679 312.981C212.689 319.196 201.222 349.075 192.654 364.86M129.206 409.133C130.453 416.546 132.335 419.786 136.721 420.76C142.377 422.017 144.495 408.136 147.09 399.392C147.538 397.883 147.897 396.419 148.18 394.993M129.206 409.133C129.206 409.133 130.436 435.529 135.149 438.043C139.863 440.557 143.319 429.873 145.205 421.703C147.09 413.533 148.18 394.993 148.18 394.993M148.18 394.993C151.579 377.86 144.058 366.26 149.604 348.172C154.608 331.854 175.057 312.981 175.057 312.981L197.682 275.898C183.542 306.693 173.172 335.602 173.172 335.602C173.172 335.602 168.899 348.216 164.904 361.919M164.904 361.919C160.368 377.476 156.191 394.437 159.031 395.939C161.869 397.44 167.368 393.533 173.172 388.079M173.172 388.079C173.172 388.079 173.439 394.572 174.682 400.649M193.597 395.939C191.955 403 187.312 411.019 180.713 411.019C177.625 411.019 175.776 405.995 174.682 400.649M193.597 395.939C196.739 382.427 192.654 364.86 192.654 364.86M193.597 395.939C194.108 403.018 189.826 433.015 182.285 428.302C176.314 415.732 174.682 400.649 174.682 400.649" stroke="white" stroke-width="3" stroke-linejoin="round"/>
<path d="M396.982 357.341C361.449 354.352 326.593 342.789 308.682 334.087C290.77 325.386 267.442 297.58 272.784 291.924C278.126 286.267 299.883 268.101 311.196 267.784C322.508 267.466 353.303 287.27 366.815 284.441C380.328 281.613 390.845 266.417 407.352 257.731C425.262 248.308 446.317 246.733 454.801 239.188C461.791 232.973 473.258 203.094 481.826 187.309C481.826 187.309 477.741 169.742 480.883 156.23C480.372 149.151 484.654 119.154 492.195 123.867C498.166 136.437 499.798 151.52 499.798 151.52C501.041 157.597 501.308 164.09 501.308 164.09C507.112 158.636 512.611 154.729 515.449 156.23C518.289 157.732 514.112 174.693 509.576 190.25C505.581 203.953 501.308 216.567 501.308 216.567C501.308 216.567 490.938 245.476 476.798 276.271L499.423 239.188C499.423 239.188 519.872 220.314 524.876 203.997C530.422 185.909 522.901 174.309 526.3 157.176C526.3 157.176 527.39 138.636 529.275 130.466C531.161 122.296 534.617 111.612 539.331 114.126C544.044 116.64 545.274 143.036 545.274 143.036C545.636 145.184 545.944 147.682 546.244 150.577C548.876 175.974 552.842 196.77 551.9 218.138C551.477 227.728 532.732 239.188 532.732 239.188L527.704 244.848L539.331 239.188C539.331 239.188 559.043 228.747 566.041 216.567C574.525 201.798 572.639 197.712 583.952 179.484C587.584 171.495 591.551 165.924 595.264 162.46C595.264 162.46 598.962 154.307 603.749 148.063C606.958 143.877 610.348 139.579 612.862 140.836C615.376 142.093 615.241 146.207 614.433 151.834C613.149 160.777 609.225 171.631 609.225 171.631C609.136 172.153 609.045 172.678 608.955 173.202C607.877 179.487 606.577 185.143 604.377 191.114C602.178 197.084 594.95 216.567 594.95 216.567L551.9 249.561L547.815 260.245H591.494C610.976 245.162 626.564 240.475 651.513 235.735C653.465 235.364 657.047 234.56 659.683 234.164C669.11 231.336 674.722 231.825 671.624 234.478C665.467 241.18 655.353 246.699 648.685 251.447C638.943 256.16 631.84 262.057 624.488 266.844C613.839 273.778 613.49 275.332 598.721 287.899C583.952 300.467 536.817 291.669 501.937 313.353C467.057 335.036 440.706 361.018 396.982 357.341Z" fill="black"/>
<path d="M486.853 179.484C486.853 179.484 490.042 188.666 495.024 191.114C500.133 193.624 509.576 190.25 509.576 190.25M486.853 179.484C490.83 174.916 496.188 168.901 501.308 164.09M486.853 179.484C485.358 181.201 483.658 183.932 481.826 187.309M609.225 171.631C609.136 172.153 609.045 172.678 608.955 173.202C607.877 179.487 606.577 185.143 604.377 191.114C602.178 197.084 594.95 216.567 594.95 216.567L551.9 249.561L547.815 260.245H591.494C610.976 245.162 626.564 240.475 651.513 235.735C653.465 235.364 657.047 234.56 659.683 234.164M609.225 171.631C610.2 165.897 610.871 160.449 606.263 158.433C603.559 157.25 599.584 158.43 595.264 162.46M609.225 171.631C609.225 171.631 613.149 160.777 614.433 151.834C615.241 146.207 615.376 142.093 612.862 140.836C610.348 139.579 606.958 143.877 603.749 148.063C598.962 154.307 595.264 162.46 595.264 162.46M595.264 162.46C591.551 165.924 587.584 171.495 583.952 179.484C572.639 197.712 574.525 201.798 566.041 216.567C559.043 228.747 539.331 239.188 539.331 239.188L527.704 244.848L532.732 239.188C532.732 239.188 551.477 227.728 551.9 218.138C552.843 196.77 548.876 175.974 546.244 150.577C545.944 147.682 545.636 145.184 545.274 143.036M659.683 234.164C669.11 231.336 674.722 231.825 671.624 234.478C665.467 241.18 655.353 246.699 648.685 251.447M659.683 234.164C646.171 245.785 646.485 249.008 648.685 251.447M648.685 251.447C638.943 256.16 631.84 262.057 624.488 266.844C613.839 273.778 613.49 275.332 598.721 287.899C583.952 300.467 536.817 291.669 501.937 313.353C467.057 335.036 440.706 361.018 396.982 357.341C361.449 354.352 326.593 342.789 308.682 334.087C290.77 325.386 267.442 297.58 272.784 291.924C278.126 286.267 299.883 268.101 311.196 267.784C322.508 267.466 353.303 287.27 366.815 284.441C380.328 281.613 390.845 266.417 407.352 257.731C425.262 248.308 446.317 246.733 454.801 239.188C461.791 232.973 473.258 203.094 481.826 187.309M545.274 143.036C544.027 135.623 542.145 132.383 537.759 131.409C532.103 130.152 529.985 144.033 527.39 152.777C526.942 154.286 526.583 155.75 526.3 157.176M545.274 143.036C545.274 143.036 544.044 116.64 539.331 114.126C534.617 111.612 531.161 122.296 529.275 130.466C527.39 138.636 526.3 157.176 526.3 157.176M526.3 157.176C522.901 174.309 530.422 185.909 524.876 203.997C519.872 220.314 499.423 239.188 499.423 239.188L476.798 276.271C490.938 245.476 501.308 216.567 501.308 216.567C501.308 216.567 505.581 203.953 509.576 190.25M509.576 190.25C514.112 174.693 518.289 157.732 515.449 156.23C512.611 154.729 507.112 158.636 501.308 164.09M501.308 164.09C501.308 164.09 501.041 157.597 499.798 151.52M480.883 156.23C482.525 149.169 487.168 141.15 493.767 141.15C496.855 141.15 498.704 146.174 499.798 151.52M480.883 156.23C477.741 169.742 481.826 187.309 481.826 187.309M480.883 156.23C480.372 149.151 484.654 119.154 492.195 123.867C498.166 136.437 499.798 151.52 499.798 151.52" stroke="white" stroke-width="3" stroke-linejoin="round"/>
<path fill-rule="evenodd" clip-rule="evenodd" d="M63.0142 457.358C45.0128 438.422 33.9655 412.813 33.9655 384.623C33.9655 326.311 81.2366 279.04 139.549 279.04C157.73 279.04 174.837 283.635 189.774 291.728L188.569 294.438L182.599 308.893L176.532 322.958C165.539 317.756 153.089 314.863 139.548 314.863C88.1782 314.863 49.6771 356.506 49.6771 407.876C49.6771 426.061 54.5018 443.027 63.0142 457.358ZM211.103 462.262C232.026 442.97 245.132 415.327 245.132 384.623C245.132 357.979 235.262 333.639 218.98 315.062L217.479 317.063L215.279 320.519L211.508 327.747L205.852 339.373L203.859 343.825C218.262 360.504 226.591 383.055 226.591 407.876C226.591 428.181 221.017 446.967 211.103 462.262Z" fill="#D5B678"/>
<path fill-rule="evenodd" clip-rule="evenodd" d="M539.884 67.5801C481.572 67.5801 434.301 114.851 434.301 173.163C434.301 197.296 442.398 219.537 456.022 237.32C458.437 241.884 464.812 248.177 471.785 253.852C490.169 269.384 513.933 278.746 539.884 278.746C598.196 278.746 645.467 231.475 645.467 173.163C645.467 114.851 598.196 67.5801 539.884 67.5801ZM471.785 253.852C475.859 257.168 480.138 260.273 483.95 262.699C494.006 242.907 503.119 215.25 510.975 189.168C516.002 169.371 519.59 155.097 515.06 155.231C506.89 154.917 492.749 170.314 483.008 184.136C478.01 192.467 474.618 199.85 470.968 207.795C467.044 216.336 462.821 225.527 455.983 237.246C455.996 237.271 456.009 237.295 456.022 237.32C460.667 243.383 465.956 248.927 471.785 253.852Z" fill="#D5B678"/>
<rect x="456.926" y="238.19" width="25.1386" height="23.2532" fill="black"/>
</svg>
