<svg width="1440" height="765" viewBox="0 0 1440 765" fill="none" xmlns="http://www.w3.org/2000/svg">
<g clip-path="url(#clip0_622_2446)">
<path d="M476.784 5L479.356 17.3093L491.568 19.9014L479.356 22.4934L476.784 34.8027L474.212 22.4934L462 19.9014L474.212 17.3093L476.784 5Z" fill="#D5B678"/>
<path d="M447.402 44L448.418 54.4688L458.804 55.4927L448.418 56.5167L447.402 66.9854L446.386 56.5167L436 55.4927L446.386 54.4688L447.402 44Z" fill="#D5B678"/>
<path d="M564.402 78L565.418 88.4688L575.804 89.4927L565.418 90.5167L564.402 100.985L563.386 90.5167L553 89.4927L563.386 88.4688L564.402 78Z" fill="#D5B678"/>
<path d="M681.402 128L682.418 138.469L692.804 139.493L682.418 140.517L681.402 150.985L680.386 140.517L670 139.493L680.386 138.469L681.402 128Z" fill="#D5B678"/>
<path d="M217.402 141L218.418 151.469L228.804 152.493L218.418 153.517L217.402 163.985L216.386 153.517L206 152.493L216.386 151.469L217.402 141Z" fill="#D5B678"/>
<path d="M258.784 109L261.356 121.309L273.568 123.901L261.356 126.493L258.784 138.803L256.212 126.493L244 123.901L256.212 121.309L258.784 109Z" fill="#D5B678"/>
<ellipse cx="2.96588" cy="2.97204" rx="2.96588" ry="2.97204" transform="matrix(0.789456 -0.613807 0.607778 0.794107 315 123.641)" fill="#D5B678"/>
<ellipse cx="2.96588" cy="2.97204" rx="2.96588" ry="2.97204" transform="matrix(0.789456 -0.613807 0.607778 0.794107 462 101.641)" fill="#D5B678"/>
<ellipse cx="2.96588" cy="2.97204" rx="2.96588" ry="2.97204" transform="matrix(0.789456 -0.613807 0.607778 0.794107 598 99.6406)" fill="#D5B678"/>
<ellipse cx="2.96588" cy="2.97204" rx="2.96588" ry="2.97204" transform="matrix(0.789456 -0.613807 0.607778 0.794107 525 71.6406)" fill="#D5B678"/>
<path d="M291.056 82.4749C291.679 83.2895 291.53 84.4593 290.721 85.0877C289.913 85.7161 288.752 85.5651 288.129 84.7505C287.505 83.9358 287.655 82.766 288.463 82.1376C289.272 81.5092 290.432 81.6602 291.056 82.4749Z" fill="#D5B678"/>
<path d="M367.056 87.4749C367.679 88.2895 367.53 89.4593 366.721 90.0877C365.913 90.7161 364.752 90.5651 364.129 89.7505C363.505 88.9358 363.655 87.766 364.463 87.1376C365.272 86.5092 366.432 86.6602 367.056 87.4749Z" fill="#D5B678"/>
<path d="M423.056 104.475C423.679 105.29 423.53 106.459 422.721 107.088C421.913 107.716 420.752 107.565 420.129 106.75C419.505 105.936 419.655 104.766 420.463 104.138C421.272 103.509 422.432 103.66 423.056 104.475Z" fill="#D5B678"/>
<path d="M174.056 142.475C174.679 143.29 174.53 144.459 173.721 145.088C172.913 145.716 171.752 145.565 171.129 144.75C170.505 143.936 170.655 142.766 171.463 142.138C172.272 141.509 173.432 141.66 174.056 142.475Z" fill="#D5B678"/>
<path d="M129.056 165.475C129.679 166.29 129.53 167.459 128.721 168.088C127.913 168.716 126.752 168.565 126.129 167.75C125.505 166.936 125.655 165.766 126.463 165.138C127.272 164.509 128.432 164.66 129.056 165.475Z" fill="#D5B678"/>
<path d="M19.0557 144.475C19.6793 145.29 19.5295 146.459 18.7213 147.088C17.9131 147.716 16.7525 147.565 16.129 146.75C15.5055 145.936 15.6552 144.766 16.4634 144.138C17.2716 143.509 18.4322 143.66 19.0557 144.475Z" fill="#D5B678"/>
<path d="M34.0557 246.475C34.6793 247.29 34.5295 248.459 33.7213 249.088C32.9131 249.716 31.7525 249.565 31.129 248.75C30.5055 247.936 30.6552 246.766 31.4634 246.138C32.2716 245.509 33.4322 245.66 34.0557 246.475Z" fill="#D5B678"/>
<path d="M89.0557 93.4749C89.6793 94.2895 89.5295 95.4593 88.7213 96.0877C87.9131 96.7161 86.7525 96.5651 86.129 95.7505C85.5055 94.9358 85.6552 93.766 86.4634 93.1376C87.2716 92.5092 88.4322 92.6602 89.0557 93.4749Z" fill="#D5B678"/>
<path d="M494.056 63.4749C494.679 64.2895 494.53 65.4593 493.721 66.0877C492.913 66.7161 491.752 66.5651 491.129 65.7505C490.505 64.9358 490.655 63.766 491.463 63.1376C492.272 62.5092 493.432 62.6602 494.056 63.4749Z" fill="#D5B678"/>
<path d="M628.056 131.475C628.679 132.29 628.53 133.459 627.721 134.088C626.913 134.716 625.752 134.565 625.129 133.75C624.505 132.936 624.655 131.766 625.463 131.138C626.272 130.509 627.432 130.66 628.056 131.475Z" fill="#D5B678"/>
<path d="M691.056 181.475C691.679 182.29 691.53 183.459 690.721 184.088C689.913 184.716 688.752 184.565 688.129 183.75C687.505 182.936 687.655 181.766 688.463 181.138C689.272 180.509 690.432 180.66 691.056 181.475Z" fill="#D5B678"/>
<path d="M554.056 37.4749C554.679 38.2895 554.53 39.4593 553.721 40.0877C552.913 40.7161 551.752 40.5651 551.129 39.7505C550.505 38.9358 550.655 37.766 551.463 37.1376C552.272 36.5092 553.432 36.6602 554.056 37.4749Z" fill="#D5B678"/>
<path d="M622.056 160.475C622.679 161.29 622.53 162.459 621.721 163.088C620.913 163.716 619.752 163.565 619.129 162.75C618.505 161.936 618.655 160.766 619.463 160.138C620.272 159.509 621.432 159.66 622.056 160.475Z" fill="#D5B678"/>
<path d="M541.056 135.475C541.679 136.29 541.53 137.459 540.721 138.088C539.913 138.716 538.752 138.565 538.129 137.75C537.505 136.936 537.655 135.766 538.463 135.138C539.272 134.509 540.432 134.66 541.056 135.475Z" fill="#D5B678"/>
<path d="M644.056 179.475C644.679 180.29 644.53 181.459 643.721 182.088C642.913 182.716 641.752 182.565 641.129 181.75C640.505 180.936 640.655 179.766 641.463 179.138C642.272 178.509 643.432 178.66 644.056 179.475Z" fill="#D5B678"/>
<path d="M657.056 77.4749C657.679 78.2895 657.53 79.4593 656.721 80.0877C655.913 80.7161 654.752 80.5651 654.129 79.7505C653.505 78.9358 653.655 77.766 654.463 77.1376C655.272 76.5092 656.432 76.6602 657.056 77.4749Z" fill="#D5B678"/>
<path d="M853.402 207L854.418 217.469L864.804 218.493L854.418 219.517L853.402 229.985L852.386 219.517L842 218.493L852.386 217.469L853.402 207Z" fill="#D5B678"/>
<ellipse cx="2.96588" cy="2.97204" rx="2.96588" ry="2.97204" transform="matrix(0.789456 -0.613807 0.607778 0.794107 770 178.641)" fill="#D5B678"/>
<path d="M800.056 210.475C800.679 211.29 800.53 212.459 799.721 213.088C798.913 213.716 797.752 213.565 797.129 212.75C796.505 211.936 796.655 210.766 797.463 210.138C798.272 209.509 799.432 209.66 800.056 210.475Z" fill="#D5B678"/>
<path d="M794.056 239.475C794.679 240.29 794.53 241.459 793.721 242.088C792.913 242.716 791.752 242.565 791.129 241.75C790.505 240.936 790.655 239.766 791.463 239.138C792.272 238.509 793.432 238.66 794.056 239.475Z" fill="#D5B678"/>
<path d="M713.056 214.475C713.679 215.29 713.53 216.459 712.721 217.088C711.913 217.716 710.752 217.565 710.129 216.75C709.505 215.936 709.655 214.766 710.463 214.138C711.272 213.509 712.432 213.66 713.056 214.475Z" fill="#D5B678"/>
<path d="M829.056 156.475C829.679 157.29 829.53 158.459 828.721 159.088C827.913 159.716 826.752 159.565 826.129 158.75C825.505 157.936 825.655 156.766 826.463 156.138C827.272 155.509 828.432 155.66 829.056 156.475Z" fill="#D5B678"/>
<path d="M982.056 168.475C982.679 169.29 982.53 170.459 981.721 171.088C980.913 171.716 979.752 171.565 979.129 170.75C978.505 169.936 978.655 168.766 979.463 168.138C980.272 167.509 981.432 167.66 982.056 168.475Z" fill="#D5B678"/>
<path d="M1151.06 239.475C1151.68 240.29 1151.53 241.459 1150.72 242.088C1149.91 242.716 1148.75 242.565 1148.13 241.75C1147.51 240.936 1147.66 239.766 1148.46 239.138C1149.27 238.509 1150.43 238.66 1151.06 239.475Z" fill="#D5B678"/>
<path d="M1291.4 364L1292.42 374.469L1302.8 375.493L1292.42 376.517L1291.4 386.985L1290.39 376.517L1280 375.493L1290.39 374.469L1291.4 364Z" fill="#D5B678"/>
<ellipse cx="2.96588" cy="2.97204" rx="2.96588" ry="2.97204" transform="matrix(0.789456 -0.613807 0.607778 0.794107 1208 335.641)" fill="#D5B678"/>
<path d="M1238.06 367.475C1238.68 368.29 1238.53 369.459 1237.72 370.088C1236.91 370.716 1235.75 370.565 1235.13 369.75C1234.51 368.936 1234.66 367.766 1235.46 367.138C1236.27 366.509 1237.43 366.66 1238.06 367.475Z" fill="#D5B678"/>
<path d="M1232.06 396.475C1232.68 397.29 1232.53 398.459 1231.72 399.088C1230.91 399.716 1229.75 399.565 1229.13 398.75C1228.51 397.936 1228.66 396.766 1229.46 396.138C1230.27 395.509 1231.43 395.66 1232.06 396.475Z" fill="#D5B678"/>
<path d="M1267.06 313.475C1267.68 314.29 1267.53 315.459 1266.72 316.088C1265.91 316.716 1264.75 316.565 1264.13 315.75C1263.51 314.936 1263.66 313.766 1264.46 313.138C1265.27 312.509 1266.43 312.66 1267.06 313.475Z" fill="#D5B678"/>
<path d="M1410.06 210.475C1410.68 211.29 1410.53 212.459 1409.72 213.088C1408.91 213.716 1407.75 213.565 1407.13 212.75C1406.51 211.936 1406.66 210.766 1407.46 210.138C1408.27 209.509 1409.43 209.66 1410.06 210.475Z" fill="#D5B678"/>
<path d="M876.402 275L875.386 285.469L865 286.493L875.386 287.517L876.402 297.985L877.418 287.517L887.804 286.493L877.418 285.469L876.402 275Z" fill="#D5B678"/>
<ellipse cx="2.96588" cy="2.97204" rx="2.96588" ry="2.97204" transform="matrix(-0.789456 -0.613807 -0.607778 0.794107 959.804 246.641)" fill="#D5B678"/>
<path d="M929.749 278.475C929.125 279.29 929.275 280.459 930.083 281.088C930.891 281.716 932.052 281.565 932.675 280.75C933.299 279.936 933.149 278.766 932.341 278.138C931.533 277.509 930.372 277.66 929.749 278.475Z" fill="#D5B678"/>
<path d="M935.749 307.475C935.125 308.29 935.275 309.459 936.083 310.088C936.891 310.716 938.052 310.565 938.675 309.75C939.299 308.936 939.149 307.766 938.341 307.138C937.533 306.509 936.372 306.66 935.749 307.475Z" fill="#D5B678"/>
<path d="M900.749 224.475C900.125 225.29 900.275 226.459 901.083 227.088C901.891 227.716 903.052 227.565 903.675 226.75C904.299 225.936 904.149 224.766 903.341 224.138C902.533 223.509 901.372 223.66 900.749 224.475Z" fill="#D5B678"/>
<path d="M1053.4 327L1054.42 337.469L1064.8 338.493L1054.42 339.517L1053.4 349.985L1052.39 339.517L1042 338.493L1052.39 337.469L1053.4 327Z" fill="#D5B678"/>
<ellipse cx="2.96588" cy="2.97204" rx="2.96588" ry="2.97204" transform="matrix(0.789456 -0.613807 0.607778 0.794107 970 298.641)" fill="#D5B678"/>
<path d="M1000.06 330.475C1000.68 331.29 1000.53 332.459 999.721 333.088C998.913 333.716 997.752 333.565 997.129 332.75C996.505 331.936 996.655 330.766 997.463 330.138C998.272 329.509 999.432 329.66 1000.06 330.475Z" fill="#D5B678"/>
<path d="M994.056 359.475C994.679 360.29 994.53 361.459 993.721 362.088C992.913 362.716 991.752 362.565 991.129 361.75C990.505 360.936 990.655 359.766 991.463 359.138C992.272 358.509 993.432 358.66 994.056 359.475Z" fill="#D5B678"/>
<path d="M1029.06 276.475C1029.68 277.29 1029.53 278.459 1028.72 279.088C1027.91 279.716 1026.75 279.565 1026.13 278.75C1025.51 277.936 1025.66 276.766 1026.46 276.138C1027.27 275.509 1028.43 275.66 1029.06 276.475Z" fill="#D5B678"/>
<ellipse cx="2.96588" cy="2.97204" rx="2.96588" ry="2.97204" transform="matrix(-0.789456 -0.613807 -0.607778 0.794107 1159.8 366.641)" fill="#D5B678"/>
<path d="M1129.75 398.475C1129.13 399.29 1129.27 400.459 1130.08 401.088C1130.89 401.716 1132.05 401.565 1132.68 400.75C1133.3 399.936 1133.15 398.766 1132.34 398.138C1131.53 397.509 1130.37 397.66 1129.75 398.475Z" fill="#D5B678"/>
<path d="M1135.75 427.475C1135.13 428.29 1135.27 429.459 1136.08 430.088C1136.89 430.716 1138.05 430.565 1138.68 429.75C1139.3 428.936 1139.15 427.766 1138.34 427.138C1137.53 426.509 1136.37 426.66 1135.75 427.475Z" fill="#D5B678"/>
<ellipse cx="2.96588" cy="2.97204" rx="2.96588" ry="2.97204" transform="matrix(0.789456 -0.613807 0.607778 0.794107 1352 219.641)" fill="#D5B678"/>
<path d="M1382.06 251.475C1382.68 252.29 1382.53 253.459 1381.72 254.088C1380.91 254.716 1379.75 254.565 1379.13 253.75C1378.51 252.936 1378.66 251.766 1379.46 251.138C1380.27 250.509 1381.43 250.66 1382.06 251.475Z" fill="#D5B678"/>
<path d="M1415.06 265.475C1415.68 266.29 1415.53 267.459 1414.72 268.088C1413.91 268.716 1412.75 268.565 1412.13 267.75C1411.51 266.936 1411.66 265.766 1412.46 265.138C1413.27 264.509 1414.43 264.66 1415.06 265.475Z" fill="#D5B678"/>
<path d="M1376.06 280.475C1376.68 281.29 1376.53 282.459 1375.72 283.088C1374.91 283.716 1373.75 283.565 1373.13 282.75C1372.51 281.936 1372.66 280.766 1373.46 280.138C1374.27 279.509 1375.43 279.66 1376.06 280.475Z" fill="#D5B678"/>
<ellipse cx="2.96588" cy="2.97204" rx="2.96588" ry="2.97204" transform="matrix(-0.789456 -0.613807 -0.607778 0.794107 1340.18 272.641)" fill="#D5B678"/>
<path d="M1310.13 304.475C1309.51 305.29 1309.66 306.459 1310.46 307.088C1311.27 307.716 1312.43 307.565 1313.06 306.75C1313.68 305.936 1313.53 304.766 1312.72 304.138C1311.91 303.509 1310.75 303.66 1310.13 304.475Z" fill="#D5B678"/>
<path d="M1316.13 333.475C1315.51 334.29 1315.66 335.459 1316.46 336.088C1317.27 336.716 1318.43 336.565 1319.06 335.75C1319.68 334.936 1319.53 333.766 1318.72 333.138C1317.91 332.509 1316.75 332.66 1316.13 333.475Z" fill="#D5B678"/>
<path d="M909.893 575L910.909 585.469L921.296 586.493L910.909 587.517L909.893 597.985L908.877 587.517L898.491 586.493L908.877 585.469L909.893 575Z" fill="#D5B678"/>
<ellipse cx="2.96588" cy="2.97204" rx="2.96588" ry="2.97204" transform="matrix(0.789456 -0.613807 0.607778 0.794107 826.491 546.641)" fill="#D5B678"/>
<path d="M856.547 578.475C857.17 579.29 857.021 580.459 856.212 581.088C855.404 581.716 854.244 581.565 853.62 580.75C852.997 579.936 853.146 578.766 853.954 578.138C854.763 577.509 855.923 577.66 856.547 578.475Z" fill="#D5B678"/>
<path d="M850.547 607.475C851.17 608.29 851.021 609.459 850.212 610.088C849.404 610.716 848.244 610.565 847.62 609.75C846.997 608.936 847.146 607.766 847.954 607.138C848.763 606.509 849.923 606.66 850.547 607.475Z" fill="#D5B678"/>
<path d="M885.547 524.475C886.17 525.29 886.021 526.459 885.212 527.088C884.404 527.716 883.244 527.565 882.62 526.75C881.997 525.936 882.146 524.766 882.954 524.138C883.763 523.509 884.923 523.66 885.547 524.475Z" fill="#D5B678"/>
<path d="M1028.55 421.475C1029.17 422.29 1029.02 423.459 1028.21 424.088C1027.4 424.716 1026.24 424.565 1025.62 423.75C1025 422.936 1025.15 421.766 1025.95 421.138C1026.76 420.509 1027.92 420.66 1028.55 421.475Z" fill="#D5B678"/>
<ellipse cx="2.96588" cy="2.97204" rx="2.96588" ry="2.97204" transform="matrix(-0.789456 -0.613807 -0.607778 0.794107 778.296 577.641)" fill="#D5B678"/>
<ellipse cx="2.96588" cy="2.97204" rx="2.96588" ry="2.97204" transform="matrix(0.789456 -0.613807 0.607778 0.794107 970.491 430.641)" fill="#D5B678"/>
<path d="M1000.55 462.475C1001.17 463.29 1001.02 464.459 1000.21 465.088C999.404 465.716 998.244 465.565 997.62 464.75C996.997 463.936 997.146 462.766 997.954 462.138C998.763 461.509 999.923 461.66 1000.55 462.475Z" fill="#D5B678"/>
<path d="M1033.55 476.475C1034.17 477.29 1034.02 478.459 1033.21 479.088C1032.4 479.716 1031.24 479.565 1030.62 478.75C1030 477.936 1030.15 476.766 1030.95 476.138C1031.76 475.509 1032.92 475.66 1033.55 476.475Z" fill="#D5B678"/>
<path d="M994.547 491.475C995.17 492.29 995.021 493.459 994.212 494.088C993.404 494.716 992.244 494.565 991.62 493.75C990.997 492.936 991.146 491.766 991.954 491.138C992.763 490.509 993.923 490.66 994.547 491.475Z" fill="#D5B678"/>
<ellipse cx="2.96588" cy="2.97204" rx="2.96588" ry="2.97204" transform="matrix(-0.789456 -0.613807 -0.607778 0.794107 958.676 483.641)" fill="#D5B678"/>
<path d="M928.62 515.475C927.997 516.29 928.146 517.459 928.954 518.088C929.763 518.716 930.923 518.565 931.547 517.75C932.17 516.936 932.021 515.766 931.212 515.138C930.404 514.509 929.244 514.66 928.62 515.475Z" fill="#D5B678"/>
<path d="M934.62 544.475C933.997 545.29 934.146 546.459 934.954 547.088C935.763 547.716 936.923 547.565 937.547 546.75C938.17 545.936 938.021 544.766 937.212 544.138C936.404 543.509 935.244 543.66 934.62 544.475Z" fill="#D5B678"/>
<path d="M1208.78 616L1207.77 626.469L1197.38 627.493L1207.77 628.517L1208.78 638.985L1209.8 628.517L1220.18 627.493L1209.8 626.469L1208.78 616Z" fill="#D5B678"/>
<ellipse cx="2.96588" cy="2.97204" rx="2.96588" ry="2.97204" transform="matrix(-0.789456 -0.613807 -0.607778 0.794107 1292.18 587.641)" fill="#D5B678"/>
<path d="M1262.13 619.475C1261.51 620.29 1261.66 621.459 1262.46 622.088C1263.27 622.716 1264.43 622.565 1265.06 621.75C1265.68 620.936 1265.53 619.766 1264.72 619.138C1263.91 618.509 1262.75 618.66 1262.13 619.475Z" fill="#D5B678"/>
<path d="M1268.13 648.475C1267.51 649.29 1267.66 650.459 1268.46 651.088C1269.27 651.716 1270.43 651.565 1271.06 650.75C1271.68 649.936 1271.53 648.766 1270.72 648.138C1269.91 647.509 1268.75 647.66 1268.13 648.475Z" fill="#D5B678"/>
<path d="M1233.13 565.475C1232.51 566.29 1232.66 567.459 1233.46 568.088C1234.27 568.716 1235.43 568.565 1236.06 567.75C1236.68 566.936 1236.53 565.766 1235.72 565.138C1234.91 564.509 1233.75 564.66 1233.13 565.475Z" fill="#D5B678"/>
<path d="M1090.13 462.475C1089.51 463.29 1089.66 464.459 1090.46 465.088C1091.27 465.716 1092.43 465.565 1093.06 464.75C1093.68 463.936 1093.53 462.766 1092.72 462.138C1091.91 461.509 1090.75 461.66 1090.13 462.475Z" fill="#D5B678"/>
<ellipse cx="2.96588" cy="2.97204" rx="2.96588" ry="2.97204" transform="matrix(0.789456 -0.613807 0.607778 0.794107 1340.38 618.641)" fill="#D5B678"/>
<ellipse cx="2.96588" cy="2.97204" rx="2.96588" ry="2.97204" transform="matrix(-0.789456 -0.613807 -0.607778 0.794107 1115.3 420.641)" fill="#D5B678"/>
<ellipse cx="2.96588" cy="2.97204" rx="2.96588" ry="2.97204" transform="matrix(-0.789456 -0.613807 -0.607778 0.794107 1339.3 655.641)" fill="#D5B678"/>
<ellipse cx="2.96588" cy="2.97204" rx="2.96588" ry="2.97204" transform="matrix(-0.789456 -0.613807 -0.607778 0.794107 1148.18 471.641)" fill="#D5B678"/>
<path d="M1118.13 503.475C1117.51 504.29 1117.66 505.459 1118.46 506.088C1119.27 506.716 1120.43 506.565 1121.06 505.75C1121.68 504.936 1121.53 503.766 1120.72 503.138C1119.91 502.509 1118.75 502.66 1118.13 503.475Z" fill="#D5B678"/>
<path d="M1085.13 517.475C1084.51 518.29 1084.66 519.459 1085.46 520.088C1086.27 520.716 1087.43 520.565 1088.06 519.75C1088.68 518.936 1088.53 517.766 1087.72 517.138C1086.91 516.509 1085.75 516.66 1085.13 517.475Z" fill="#D5B678"/>
<path d="M1124.13 532.475C1123.51 533.29 1123.66 534.459 1124.46 535.088C1125.27 535.716 1126.43 535.565 1127.06 534.75C1127.68 533.936 1127.53 532.766 1126.72 532.138C1125.91 531.509 1124.75 531.66 1124.13 532.475Z" fill="#D5B678"/>
<ellipse cx="2.96588" cy="2.97204" rx="2.96588" ry="2.97204" transform="matrix(0.789456 -0.613807 0.607778 0.794107 1160 524.641)" fill="#D5B678"/>
<path d="M1190.06 556.475C1190.68 557.29 1190.53 558.459 1189.72 559.088C1188.91 559.716 1187.75 559.565 1187.13 558.75C1186.51 557.936 1186.66 556.766 1187.46 556.138C1188.27 555.509 1189.43 555.66 1190.06 556.475Z" fill="#D5B678"/>
<path d="M1184.06 585.475C1184.68 586.29 1184.53 587.459 1183.72 588.088C1182.91 588.716 1181.75 588.565 1181.13 587.75C1180.51 586.936 1180.66 585.766 1181.46 585.138C1182.27 584.509 1183.43 584.66 1184.06 585.475Z" fill="#D5B678"/>
<path d="M1405.78 647L1404.77 657.469L1394.38 658.493L1404.77 659.517L1405.78 669.985L1406.8 659.517L1417.18 658.493L1406.8 657.469L1405.78 647Z" fill="#D5B678"/>
<path d="M1430.13 596.475C1429.51 597.29 1429.66 598.459 1430.46 599.088C1431.27 599.716 1432.43 599.565 1433.06 598.75C1433.68 597.936 1433.53 596.766 1432.72 596.138C1431.91 595.509 1430.75 595.66 1430.13 596.475Z" fill="#D5B678"/>
<path d="M1387.06 587.475C1387.68 588.29 1387.53 589.459 1386.72 590.088C1385.91 590.716 1384.75 590.565 1384.13 589.75C1383.51 588.936 1383.66 587.766 1384.46 587.138C1385.27 586.509 1386.43 586.66 1387.06 587.475Z" fill="#D5B678"/>
<path d="M1381.06 616.475C1381.68 617.29 1381.53 618.459 1380.72 619.088C1379.91 619.716 1378.75 619.565 1378.13 618.75C1377.51 617.936 1377.66 616.766 1378.46 616.138C1379.27 615.509 1380.43 615.66 1381.06 616.475Z" fill="#D5B678"/>
<path d="M1405.78 647L1404.77 657.469L1394.38 658.493L1404.77 659.517L1405.78 669.985L1406.8 659.517L1417.18 658.493L1406.8 657.469L1405.78 647Z" fill="#D5B678"/>
<path d="M1430.13 596.475C1429.51 597.29 1429.66 598.459 1430.46 599.088C1431.27 599.716 1432.43 599.565 1433.06 598.75C1433.68 597.936 1433.53 596.766 1432.72 596.138C1431.91 595.509 1430.75 595.66 1430.13 596.475Z" fill="#D5B678"/>
<path d="M1387.06 587.475C1387.68 588.29 1387.53 589.459 1386.72 590.088C1385.91 590.716 1384.75 590.565 1384.13 589.75C1383.51 588.936 1383.66 587.766 1384.46 587.138C1385.27 586.509 1386.43 586.66 1387.06 587.475Z" fill="#D5B678"/>
<path d="M1396.13 693.475C1395.51 694.29 1395.66 695.459 1396.46 696.088C1397.27 696.716 1398.43 696.565 1399.06 695.75C1399.68 694.936 1399.53 693.766 1398.72 693.138C1397.91 692.509 1396.75 692.66 1396.13 693.475Z" fill="#D5B678"/>
<path d="M1353.06 684.475C1353.68 685.29 1353.53 686.459 1352.72 687.088C1351.91 687.716 1350.75 687.565 1350.13 686.75C1349.51 685.936 1349.66 684.766 1350.46 684.138C1351.27 683.509 1352.43 683.66 1353.06 684.475Z" fill="#D5B678"/>
<path d="M1371.4 724L1370.39 734.469L1360 735.493L1370.39 736.517L1371.4 746.985L1372.42 736.517L1382.8 735.493L1372.42 734.469L1371.4 724Z" fill="#D5B678"/>
<path d="M1396.13 693.475C1395.51 694.29 1395.66 695.459 1396.46 696.088C1397.27 696.716 1398.43 696.565 1399.06 695.75C1399.68 694.936 1399.53 693.766 1398.72 693.138C1397.91 692.509 1396.75 692.66 1396.13 693.475Z" fill="#D5B678"/>
<path d="M1353.06 684.475C1353.68 685.29 1353.53 686.459 1352.72 687.088C1351.91 687.716 1350.75 687.565 1350.13 686.75C1349.51 685.936 1349.66 684.766 1350.46 684.138C1351.27 683.509 1352.43 683.66 1353.06 684.475Z" fill="#D5B678"/>
<path d="M1381.06 616.475C1381.68 617.29 1381.53 618.459 1380.72 619.088C1379.91 619.716 1378.75 619.565 1378.13 618.75C1377.51 617.936 1377.66 616.766 1378.46 616.138C1379.27 615.509 1380.43 615.66 1381.06 616.475Z" fill="#D5B678"/>
<path d="M1100.75 344.475C1100.13 345.29 1100.27 346.459 1101.08 347.088C1101.89 347.716 1103.05 347.565 1103.68 346.75C1104.3 345.936 1104.15 344.766 1103.34 344.138C1102.53 343.509 1101.37 343.66 1100.75 344.475Z" fill="#D5B678"/>
<path d="M418.056 1.47487C418.679 2.28953 418.53 3.45935 417.721 4.08774C416.913 4.71613 415.752 4.56512 415.129 3.75046C414.505 2.9358 414.655 1.76598 415.463 1.13759C416.272 0.509203 417.432 0.660206 418.056 1.47487Z" fill="#D5B678"/>
<path d="M292.056 153.475C292.679 154.29 292.53 155.459 291.721 156.088C290.913 156.716 289.752 156.565 289.129 155.75C288.505 154.936 288.655 153.766 289.463 153.138C290.272 152.509 291.432 152.66 292.056 153.475Z" fill="#D5B678"/>
<path d="M96.4022 188L97.4181 198.469L107.804 199.493L97.4181 200.517L96.4022 210.985L95.3863 200.517L85 199.493L95.3863 198.469L96.4022 188Z" fill="#D5B678"/>
<ellipse cx="2.96588" cy="2.97204" rx="2.96588" ry="2.97204" transform="matrix(0.789456 -0.613807 0.607778 0.794107 198 97.6406)" fill="#D5B678"/>
<path d="M54.0557 189.475C54.6793 190.29 54.5295 191.459 53.7213 192.088C52.9131 192.716 51.7525 192.565 51.129 191.75C50.5055 190.936 50.6552 189.766 51.4634 189.138C52.2716 188.509 53.4322 188.66 54.0557 189.475Z" fill="#D5B678"/>
<path d="M171.056 200.475C171.679 201.29 171.53 202.459 170.721 203.088C169.913 203.716 168.752 203.565 168.129 202.75C167.505 201.936 167.655 200.766 168.463 200.138C169.272 199.509 170.432 199.66 171.056 200.475Z" fill="#D5B678"/>
<path d="M218.056 11.4749C218.679 12.2895 218.53 13.4593 217.721 14.0877C216.913 14.7161 215.752 14.5651 215.129 13.7505C214.505 12.9358 214.655 11.766 215.463 11.1376C216.272 10.5092 217.432 10.6602 218.056 11.4749Z" fill="#D5B678"/>
<path d="M1074.92 354L1073.62 392.925L1035 394.234L1073.62 395.542L1074.92 434.467L1076.22 395.542L1114.84 394.234L1076.22 392.925L1074.92 354Z" fill="#D5B678"/>
<path d="M1088.22 394.234C1088.22 394.234 1081.78 392.932 1079 390.124C1076.21 387.316 1074.92 380.823 1074.92 380.823C1074.92 380.823 1073.59 387.317 1070.79 390.124C1068.01 392.914 1061.61 394.234 1061.61 394.234C1061.61 394.234 1068.02 395.589 1070.79 398.391C1073.57 401.192 1074.92 407.645 1074.92 407.645C1074.92 407.645 1076.23 401.193 1079 398.391C1081.78 395.571 1088.22 394.234 1088.22 394.234Z" fill="#D5B678"/>
<path d="M814.129 636.475C813.505 637.29 813.655 638.459 814.463 639.088C815.272 639.716 816.432 639.565 817.056 638.75C817.679 637.936 817.53 636.766 816.721 636.138C815.913 635.509 814.752 635.66 814.129 636.475Z" fill="#D5B678"/>
<path d="M766.129 667.475C765.505 668.29 765.655 669.459 766.463 670.088C767.272 670.716 768.432 670.565 769.056 669.75C769.679 668.936 769.53 667.766 768.721 667.138C767.913 666.509 766.752 666.66 766.129 667.475Z" fill="#D5B678"/>
<path d="M721.129 716.475C720.505 717.29 720.655 718.459 721.463 719.088C722.272 719.716 723.432 719.565 724.056 718.75C724.679 717.936 724.53 716.766 723.721 716.138C722.913 715.509 721.752 715.66 721.129 716.475Z" fill="#D5B678"/>
<path d="M647.129 642.475C646.505 643.29 646.655 644.459 647.463 645.088C648.272 645.716 649.432 645.565 650.056 644.75C650.679 643.936 650.53 642.766 649.721 642.138C648.913 641.509 647.752 641.66 647.129 642.475Z" fill="#D5B678"/>
<path d="M618.129 754.475C617.505 755.29 617.655 756.459 618.463 757.088C619.272 757.716 620.432 757.565 621.056 756.75C621.679 755.936 621.53 754.766 620.721 754.138C619.913 753.509 618.752 753.66 618.129 754.475Z" fill="#D5B678"/>
<ellipse cx="2.96588" cy="2.97204" rx="2.96588" ry="2.97204" transform="matrix(-0.789456 -0.613807 -0.607778 0.794107 766.296 612.641)" fill="#D5B678"/>
<ellipse cx="2.96588" cy="2.97204" rx="2.96588" ry="2.97204" transform="matrix(-0.789456 -0.613807 -0.607778 0.794107 680.296 723.641)" fill="#D5B678"/>
<path d="M812.402 586L811.386 596.469L801 597.493L811.386 598.517L812.402 608.985L813.418 598.517L823.804 597.493L813.418 596.469L812.402 586Z" fill="#D5B678"/>
<path d="M813.129 734.475C812.505 735.29 812.655 736.459 813.463 737.088C814.272 737.716 815.432 737.565 816.056 736.75C816.679 735.936 816.53 734.766 815.721 734.138C814.913 733.509 813.752 733.66 813.129 734.475Z" fill="#D5B678"/>
<path d="M719.784 641L717.212 653.309L705 655.901L717.212 658.493L719.784 670.803L722.356 658.493L734.568 655.901L722.356 653.309L719.784 641Z" fill="#D5B678"/>
<path d="M126.056 700.475C126.679 701.29 126.53 702.459 125.721 703.088C124.913 703.716 123.752 703.565 123.129 702.75C122.505 701.936 122.655 700.766 123.463 700.138C124.272 699.509 125.432 699.66 126.056 700.475Z" fill="#D5B678"/>
<path d="M29.0557 665.475C29.6793 666.29 29.5295 667.459 28.7213 668.088C27.9131 668.716 26.7525 668.565 26.129 667.75C25.5055 666.936 25.6552 665.766 26.4634 665.138C27.2716 664.509 28.4322 664.66 29.0557 665.475Z" fill="#D5B678"/>
</g>
<defs>
<clipPath id="clip0_622_2446">
<rect width="1440" height="765" fill="white"/>
</clipPath>
</defs>
</svg>
